SplineFontDB: 3.0
FontName: Experiment-Sinhala-Italic
FullName: Experiment-Sinhala
FamilyName: Experiment-Sinhala
Weight: Italic
Copyright: Copyright (c) 2015, Pathum Egodawatta
UComments: "2015-9-29: Created with FontForge (http://fontforge.org)"
Version: 0.001
ItalicAngle: 0
UnderlinePosition: -99
UnderlineWidth: 49
Ascent: 750
Descent: 250
InvalidEm: 0
LayerCount: 2
Layer: 0 0 "Back" 1
Layer: 1 0 "Fore" 0
PreferredKerning: 4
XUID: [1021 779 -1439063335 14876943]
FSType: 0
OS2Version: 0
OS2_WeightWidthSlopeOnly: 0
OS2_UseTypoMetrics: 1
CreationTime: 1443542790
ModificationTime: 1464540934
PfmFamily: 17
TTFWeight: 400
TTFWidth: 5
LineGap: 122
VLineGap: 0
OS2TypoAscent: 879
OS2TypoAOffset: 0
OS2TypoDescent: -250
OS2TypoDOffset: 0
OS2TypoLinegap: 122
OS2WinAscent: 879
OS2WinAOffset: 0
OS2WinDescent: 49
OS2WinDOffset: 0
HheadAscent: 779
HheadAOffset: 0
HheadDescent: -27
HheadDOffset: 0
OS2Vendor: 'PfEd'
Lookup: 4 0 0 "'abvs' Above Base Substitutions in Sinhala lookup 0" { "'abvs' Above Base Substitutions in Sinhala lookup 0-1"  "'abvs' Above Base Substitutions in Sinhala lookup 0-2"  } ['abvs' ('DFLT' <'dflt' > 'sinh' <'dflt' > ) ]
Lookup: 4 0 0 "si_akhands" { "si_akhands subtable"  } ['akhn' ('sinh' <'dflt' > ) ]
Lookup: 4 0 0 "si_reph" { "si_reph subtable"  } ['rphf' ('sinh' <'dflt' > ) ]
Lookup: 4 0 0 "si_halant_1" { "si_halant_1 subtable"  } ['abvs' ('sinh' <'dflt' > ) ]
Lookup: 4 0 0 "si_halant_2" { "si_halant_2 subtable"  } ['abvs' ('sinh' <'dflt' > ) ]
Lookup: 4 0 0 "si_halant_3" { "si_halant_3 subtable"  } ['abvs' ('sinh' <'dflt' > ) ]
Lookup: 4 0 0 "si_abvs_1" { "si_abvs_1 subtable"  } ['abvs' ('sinh' <'dflt' > ) ]
Lookup: 4 0 0 "si_abvs_2" { "si_abvs_2 subtable"  } ['abvs' ('sinh' <'dflt' > ) ]
Lookup: 4 0 0 "si_abvs_3" { "si_abvs_3 subtable"  } ['abvs' ('sinh' <'dflt' > ) ]
Lookup: 4 0 0 "si_abvs_4" { "si_abvs_4 subtable"  } ['abvs' ('sinh' <'dflt' > ) ]
Lookup: 4 0 0 "si_abvs_5" { "si_abvs_5 subtable"  } ['abvs' ('sinh' <'dflt' > ) ]

StartChar: si_Tta
Encoding: 34 3495 0
GlifName: si_T_ta
Width: 760
Flags: HMW
LayerCount: 2
Back
SplineSet
353.442382812 334 m 1
 327.442382812 346 293.442382812 352 260.442382812 350 c 0
 190.369140625 345.8515625 117.307617188 292.790039062 116.442382812 208 c 0
 115.355802726 108.803477281 199.944466063 42.2948424889 367.442382812 43 c 4
 557.228705606 43.7949037201 650.722119379 185.697659139 656.442382812 327 c 0
 665.150342129 540.589788945 569.467974964 673.364858982 358.442382812 676 c 0
 223.275384718 677.536957205 121.442382812 595 118.442382812 595 c 1
 85.4423828125 648 l 0
 136.296506486 685.638514727 246.850823715 734.567254144 360.442382812 734 c 0
 588.166195662 732.855778392 728.943480374 561.636312573 728.442382812 332 c 0
 727.995573089 105.602165284 585.341587056 -56.8921832884 361.442382812 -59 c 0
 155.835286459 -60.677734375 38.7778735192 38.0029296875 35.4423828125 176 c 0
 32.1533989173 320.966632951 154.427734375 394.418945312 265.442382812 398 c 0
 327.442382812 400 367.442382812 379 367.442382812 379 c 1
 353.442382812 334 l 1
EndSplineSet
Fore
SplineSet
73.17578125 156 m 0
 87.7021484375 348.98046875 291.77734375 437.67578125 400.90234375 437 c 0
 409.90234375 437 419.90234375 437 427.849609375 436 c 1
 441.004882812 422.372070312 446.736328125 394.943359375 436.443359375 371 c 1
 411.653320312 375 386.810546875 378 360.810546875 378 c 0
 262.374023438 378 142.41015625 313.123046875 136.743164062 205 c 0
 131.974609375 114 211.168945312 60.4541015625 332.197265625 61 c 0
 554.065429688 62 708.999023438 228.951171875 720.112304688 441 c 0
 728.549804688 602 620.109375 689 433.109375 689 c 0
 308.109375 689 204.55078125 618.359375 203.493164062 620 c 4
 198.54296875 627.676757812 210.794921875 661.780273438 220.427734375 676 c 5
 266.895507812 704 340.1484375 747 462.1484375 747 c 0
 647.1484375 747 783.59765625 622 772.225585938 405 c 0
 758.196289062 137.303710938 582.162109375 -44.908203125 330.431640625 -49 c 0
 329.431640625 -49 328.431640625 -49 327.431640625 -49 c 0
 160.431640625 -49 67.1484375 41 73.17578125 156 c 0
EndSplineSet
Colour: ff00
EndChar

StartChar: si_Pa
Encoding: 46 3508 1
GlifName: si_P_a
Width: 778
Flags: HMW
LayerCount: 2
Back
SplineSet
500 352 m 1
 452 333 l 1
 444 358 437 384 437 426 c 0
 438 512 519 556 580 556 c 0
 663 556 715 507 715 427 c 0
 715 349 618 309 618 309 c 1
 602 326 l 1
 636.051288152 347.130311028 650.883587155 377.105818001 651 417 c 0
 651.13422914 462.999749757 617 494 558 494 c 0
 511 494 475 462 475 419 c 0
 475 367 500 352 500 352 c 1
119 209 m 0
 118 124 203 45 388 45 c 0
 563 45 663.451154009 127.008854445 665 216 c 0
 666.775330903 318.004157759 549 348 452 333 c 1
 472 373 l 1
 617 402 740 331 736 193 c 0
 731 29 564 -59 383 -59 c 0
 189 -59 38 33 40 180 c 0
 42 339 208 394 316 384 c 1
 292 345 l 1
 299 365 312.3731417 386.33162663 308 415 c 0
 299 474 239 505 171 490 c 0
 204 511 l 1
 149 409 l 1
 108 411 81.6005478023 436.013695057 83 471 c 0
 85 521 142 557 202 557 c 0
 272 557 344 517 346 439 c 0
 347 402 341 370 332 333 c 1
 208 351 120 287 119 209 c 0
EndSplineSet
Fore
SplineSet
28.7041015625 150 m 4
 31.2417401233 311.502396085 185.665844996 401 357.858398438 401 c 5
 345.939040542 454.668078083 325.067756267 476 280.3125 476 c 4
 235.288752524 476 195.263529645 442 177.749023438 408 c 5
 132.04406056 405.966903208 107.700612285 434.109465196 109.421875 469 c 4
 112.319354139 527.732810413 174.50312387 565 230.453125 565 c 4
 338.172983617 565 395.560596646 485 390.75390625 399 c 4
 389.915039062 386.333333333 387.076171875 373.666666667 383.23828125 361 c 5
 271.903410407 364.772727273 106.359339433 331.584939303 98.013671875 195 c 4
 92.7476715374 101.10459713 178.695772439 56.3227769222 337.725585938 59 c 4
 515.928681696 62 661.17656829 140.261780105 666.735351562 246 c 4
 670.008024437 325.128712871 607.14627993 357 536.028320312 357 c 4
 500.564729163 357 463.558204292 348.428571429 426.294921875 333 c 5
 438.845703125 458 531.243164062 561 649.243164062 561 c 6
 653.243164062 561 l 5
 725.19140625 560 769.3046875 524 765.741210938 456 c 4
 765.227539062 395.009765625 718.475585938 359.365234375 675.137695312 330 c 5
 659.452148438 336 664.818359375 343 669.1328125 349 c 4
 681.12890625 368 688.072265625 386 688.911132812 402 c 4
 691.741210938 456 638.522460938 490 600.522460938 490 c 4
 529.522460938 490 477.955078125 441.445454545 471.7578125 381 c 5
 502.101766005 393.272727273 532.967575519 399 559.911132812 399 c 4
 647.361193825 399 726.012925527 338.141104294 720.368164062 239 c 4
 707.055158837 38.5673828125 486.699534418 -53.1982421875 307.908203125 -56 c 4
 136.084121714 -58.6925772015 26.7986180427 22.8410048325 28.7041015625 150 c 4
EndSplineSet
Colour: ff00
EndChar

StartChar: si_Va
Encoding: 55 3520 2
GlifName: si_V_a
Width: 800
Flags: HMW
LayerCount: 2
Back
SplineSet
386 284 m 5
 250.50390625 301.37890625 123.465820312 252.458984375 128 158 c 4
 131.069335938 87.791015625 219.271484375 45.1572265625 365 46 c 4
 559 47.1220703125 667 174.791015625 667 339 c 4
 667 547.71875 557.94140625 679.712890625 342 677 c 4
 219.063476562 675.456054688 132.310546875 606 129 606 c 5
 97 660 l 5
 139.236328125 688.125 219.37890625 735.633789062 358 735 c 4
 565.81640625 734.018554688 730 582.319335938 730 331 c 4
 730 111.353515625 598.415039062 -48.5791015625 375 -58 c 4
 192.556640625 -65.2548828125 49.349609375 8.0341796875 46 137 c 4
 42.244140625 299.32421875 239.439453125 339.377929688 354 332 c 5
 354 402 304 438 212 438 c 5
 186 357 l 5
 135 350 100.760742188 378.857421875 109 425 c 4
 119 481 177 500 224 500 c 4
 300 500 389.999023438 463 394 359 c 4
 395.383789062 323.026367188 386 284 386 284 c 5
EndSplineSet
Fore
SplineSet
40.3896484375 141 m 0
 48.8262163532 302.176222867 234.449653622 363 340.024414062 363 c 0
 352.029696786 362 369.37066072 362 379.971679688 362 c 1
 380.49609375 372 l 2
 384.018191455 432 338.735171922 462 287.211914062 462 c 0
 225.211914062 462 195.225585938 405 193.6484375 394 c 1
 188.596679688 393 184.596679688 393 179.596679688 393 c 0
 140.596679688 393 120.697265625 414 122.216796875 443 c 2
 122.478515625 448 l 1
 130.413085938 504 189.142578125 537 247.142578125 537 c 0
 374.142578125 537 421.086629554 451.317359423 418.342773438 375 c 0
 417.473054847 348.649882092 412.881337691 326.759576613 407.717773438 314 c 1
 376.462359849 318 343.81316536 320 311.032226562 320 c 0
 208.403831114 320 96.0241210484 248.04999914 92.013671875 172 c 0
 88.974609375 114 162.297851562 82 277.297851562 82 c 0
 511.707223855 83.2437779018 666.974276655 217.783984375 678.640625 472 c 0
 686.820601528 613.530685921 575.049672774 716.487900688 414.157226562 714 c 0
 329.095560717 712.241175416 252.943231121 682 205.169921875 642 c 1
 197.96484375 660.758789062 235.1484375 695.573242188 255.947265625 711 c 0
 291 737 350.128462483 762 428.672851562 762 c 0
 604.672851562 762 754.173828125 650.69005848 742.749023438 455 c 0
 728.724609375 163.814831704 550.536132812 -36.6197687225 300.956054688 -39 c 0
 157.956054687 -39 34.3623046875 26 40.3896484375 141 c 0
EndSplineSet
Colour: ff00
EndChar

StartChar: si_Ra
Encoding: 53 3515 4
GlifName: si_R_a
Width: 779
Flags: HMW
LayerCount: 2
Back
SplineSet
603 785 m 1
 603 707.080078125 536.435546875 660.377929688 428 594 c 0
 300 516 125 415 125 245 c 0
 125 138 214 48 360 48 c 4
 537.439453125 48 602.853515625 143 606 242 c 4
 610.389648438 379.393554688 502.021484375 481 377 481 c 0
 208.249023438 481 137 339 137 339 c 1
 165 428 l 0
 164 431 253.985351562 531.200195312 386 532 c 0
 536.497072311 532.911779604 688.461914062 424.852539062 685 245 c 0
 681.881835938 83.00390625 550.1171875 -52 356 -52 c 0
 153 -52 47.3366726873 93.98512553 55 252 c 0
 67.9033203125 518.061523438 406 604 504 736 c 1
 544 834 l 1
 586.75390625 835.307617188 603 811.384765625 603 785 c 1
EndSplineSet
Fore
SplineSet
75.529296875 220 m 0
 88.9228515625 490.4453125 400.094726562 645.775390625 597.764648438 816 c 0
 631.232421875 844 653.376953125 904 653.376953125 904 c 1
 654.376953125 904 l 2
 690.376953125 904 693.4375 867 692.494140625 849 c 0
 686.676757812 738 457.016601562 630 342.928710938 552 c 1
 206.116210938 422 l 1
 156.799804688 364.38671875 123.813476562 320.819335938 119.892578125 246 c 0
 114.965820312 152 202.301757812 63 335.301757812 63 c 0
 525.05078125 63 622.83984375 206.837890625 629.661132812 337 c 0
 634.797851562 435 571.465820312 505 439.465820312 505 c 0
 318.959960938 505 173.844726562 422.345703125 118.037109375 306 c 1
 116.23828125 348 157.333984375 396.482421875 197.745117188 434 c 0
 244.579101562 477.482421875 357.557617188 564 468.557617188 564 c 0
 628.557617188 564 704.741210938 453 697.456054688 314 c 0
 686.672851562 108.252929688 526.805664062 -52 334.274414062 -52 c 0
 127.274414062 -52 69.1416015625 91.0009765625 75.529296875 220 c 0
EndSplineSet
Colour: ffff00
EndChar

StartChar: si_Ca
Encoding: 27 3488 5
GlifName: si_C_a
Width: 819
Flags: HMW
LayerCount: 2
Back
SplineSet
53 327 m 5
 474 333 l 1
 469 283 l 1
 146 283 l 1
 52 271 l 5
 53 327 l 5
EndSplineSet
Refer: 2 3520 N 1 0 0 1 83 0 2
Fore
SplineSet
30.3115234375 264 m 5
 31.0463038043 284.399227031 38.5824981674 305.934001096 55.2900390625 329 c 5
 72.3619740321 333.851364279 255.798192018 374.652816352 412 366 c 1
 411.709960938 360 l 1
 232.986062869 354.93997334 94.9306985786 284.955752212 41.787109375 254 c 5
 30.3115234375 264 l 5
EndSplineSet
Refer: 2 3520 N 1 0 0 1 50 0 2
EndChar

StartChar: si_Sa
Encoding: 58 3523 6
GlifName: si_S_a
Width: 889
Flags: HMW
LayerCount: 2
Back
SplineSet
69 379 m 1xf8
 447 381 l 1
 449 336 l 1
 153 335 l 1
 68 322 l 1
 69 379 l 1xf8
577 373 m 1
 610 384 l 1
 709.491210938 410.330078125 895 380.840820312 895 186 c 0
 895 64 820.377929688 -45 689 -45 c 0
 584 -45 517 22 502 126 c 1
 500 123 539 129 537 126 c 1
 519.119140625 25 450.748046875 -43.1982421875 334 -44 c 0
 201.470703125 -44.91015625 129.172851562 54.9951171875 131 154 c 0
 133.165039062 268 227.35546875 346 262 347 c 1
 356 338 l 1
 269.861328125 324.103515625 191.854492188 266.251953125 193 183 c 0
 193.899414062 112.950195312 245.522460938 64.845703125 334 62 c 0
 401.15625 59.83984375 499 88.2900390625 502 214 c 1
 537 215 l 1
 540 100.411132812 613.994140625 64.4326171875 694 64 c 0
 773.806640625 63.599609375 829.400390625 113.7890625 831 195 c 0xfa
 833.384765625 310.975585938 735.305664062 383.813476562 572 328 c 1
 567 350.166992188 562.391601562 374.670898438 562 398 c 0
 560 500 633 568 717 570 c 0
 783.981445312 571.594726562 860 532 860 452 c 0
 860 356 767 330 767 330 c 1
 751 337 l 1
 751 337 790 374.990234375 790 424 c 0xfc
 790 465 749.879882812 513.047851562 686 509 c 0
 649.995117188 506.71875 607 472 602 411 c 0
 598.227539062 364.98046875 618 353 618 353 c 1
 577 373 l 1
418 364 m 1
 421 398 421 417 409 445 c 0
 395 480 340 508 290 503 c 0
 239 419 l 1
 209 422 185 439 185 476 c 0
 185 543 257 568 310 568 c 0
 390 568 463.29296875 518.05078125 466 433 c 0
 467.56640625 383.791015625 458 358.083007812 449 337 c 1
 418 364 l 1
EndSplineSet
Fore
SplineSet
63.072265625 383 m 1
 126.413085938 389 272.412109375 395 374.701171875 395 c 2
 432.701171875 395 l 1
 433.27734375 406 l 2
 437.225949133 481.384900056 389.423828125 504 342.413085938 504 c 0
 341.413085938 504 340.413085938 504 339.413085938 504 c 0
 291.413085938 504 251.65625 470.46875 234.53515625 430 c 1
 229.53515625 430 l 2
 210.78515625 430 198.158205344 461.295386014 202.469726562 486 c 0
 213.66015625 550.120117188 275.209354808 596.268468208 355.763671875 587 c 0
 437.56640625 577.587890625 483.429936771 504.333045924 479.377929688 427 c 0
 477.966796875 396.659290941 470.555664062 366.318581883 451.23828125 338 c 1
 337.755622658 347.564236111 168.08176645 282.975008199 145.8046875 178 c 4
 130.839364815 114.54016644 182.730091614 76 258.983398438 76 c 0
 357.036970664 76 418.389631979 125.260742188 452.477539062 219 c 1
 487.791992188 225 l 1
 455.999428103 117.479793141 507.5703924 79.198153068 597.458984375 76 c 0
 693.859061833 72.4849377648 788.628325514 137.945065711 793.735351562 223 c 0
 799.346691552 332.7803125 711.814931017 358 596.286132812 358 c 0
 567.590591129 358 537.656783577 350.727539062 509.447265625 342 c 1
 516.627643607 492.060940927 606.608994693 580 712.396484375 580 c 0
 791.767578125 580 821.120117188 536.557617188 818.208007812 481 c 1
 813.119140625 433.515625 781.110351562 401.536132812 748.282226562 387 c 1
 793.804128138 363.021484375 833.633954918 315.173295463 836.368164062 236 c 0
 841.696289062 81.7158203125 716.514493596 -59.5291721761 558.537109375 -47 c 0
 465.53515625 -39.6240234375 405.248046875 37.716796875 450.546875 144 c 1
 450.176757812 139.778035482 450.76133366 109.7716649 449.03125 106 c 0
 414.67578125 31.1034394393 336.854492188 -45 233.641601562 -45 c 0
 116.768554688 -45 84.4150390625 33.9375 87.607421875 107 c 0
 93.1703481289 234.315965314 195.858529837 327.421197321 323.390625 370 c 0
 326.438476562 371.017578125 323.181640625 366 326.233398438 367 c 1
 210.408203125 359.491210938 80.240234375 323.018554688 42.1416015625 308 c 1
 63.072265625 383 l 1
555.701171875 395 m 1
 556.805664062 397 l 1
 579.530608282 406 609.206424909 411 639.540039062 411 c 0
 666.873046875 411 696.327148438 408 721.068359375 402 c 1
 724.565429688 408.797851562 733.397385317 427.349562159 734.741210938 453 c 0
 736.713867188 490.653320312 706.527581917 511.706589608 660.727539062 510 c 0
 612.963801034 508.05078125 563.890209343 461.271484375 555.701171875 395 c 1
EndSplineSet
Colour: ff00
EndChar

StartChar: si_Ka
Encoding: 21 3482 7
GlifName: si_K_a
Width: 1027
VWidth: -24
Flags: HMW
LayerCount: 2
Back
SplineSet
838 17 m 0xb0
 950.916015625 20.09375 972.169921875 184.509765625 948 281 c 0
 917.051757812 404.547851562 787.896484375 466.663085938 648 462 c 0
 548.9140625 458.697265625 471.959960938 431.771484375 378 374 c 1
 361 362 372 367 358 355 c 1
 261 276 179 211 79 79 c 1
 79 79 44.1279296875 98.5439453125 50 107 c 0
 150 251 240 322 338 413 c 1
 345 419 354 420 361 425 c 1
 453 505 566.087890625 556.008789062 675 561 c 0
 881.541015625 570.465820312 1034.95410156 450.18359375 1048 282 c 0
 1061.14355469 112.560546875 972.994140625 -33 825 -33 c 4
 766 -33 729 -15 729 -15 c 1
 749 46 l 1
 749 46 780.74609375 15.431640625 838 17 c 0xb0
311 377 m 1x30
 323 400 326.857421875 420.9921875 326 439 c 0
 324 481 287.760742188 505.678710938 238 501 c 0
 203.934570312 497.796875 168 470 174 426 c 1
 214 371 l 1
 200 347 177.001953125 335.022460938 155 336 c 0
 110 338 90 369 90 415 c 0
 90 495 156.983398438 563.181640625 254 559 c 0
 336.926757812 555.42578125 385.715820312 480.119140625 359 416 c 0
 344 380 359 404 346 387 c 1
 311 377 l 1x30
130 165 m 1
 138 169 147.001953125 171.854492188 154 172 c 0
 202 173 211 72 294 72 c 0
 343 72 393 101 394 197 c 1
 429 197 l 0
 430 94 489.997070312 71.1669921875 550 72 c 0
 610.002929688 72.8330078125 661 118 661 194 c 0
 661 273 589 340 475 345 c 0
 413.059570312 347.716796875 337 329 304 311 c 1
 358 364 l 1
 371 368 404.99609375 390.330078125 482 391 c 0
 597 392 719 332 719 182 c 0
 719 48 643.995117188 -34.9423828125 539 -36 c 0
 453.693359375 -36.859375 420.721679688 8.326171875 402 49 c 1
 420 49 l 1
 402.737304688 7.81640625 359.954101562 -36 295 -36 c 0
 136.997070312 -36 183 169 118 130 c 0
 130 165 l 1
EndSplineSet
Fore
SplineSet
2029.98339844 76 m 1049
31.8779296875 74 m 0,0,1
 32.087890625 78 32.2978515625 82 33.5068359375 86 c 1,2,3
 140.6953125 185 207.495874756 235.883973061 309.23828125 348 c 0,4,5
 434.469726562 486 599.928710938 552 716.928710938 552 c 0,6,7
 878.928710938 552 993.679711541 452.000459154 984.831054688 283 c 0,8,9
 976.42859776 122.521511312 873.802263513 -47.5676460505 653.065429688 -56 c 1,12,13
 633.159154865 -37.6390218034 628.032440075 -18.5566609929 629.733398438 14 c 5,18,19
 660.26171875 5 691.810474988 5.39881950778 721.576171875 11 c 0,20,21
 828.166015625 31.0576171875 915.611744277 107.095083589 922.629882812 241 c 0,22,23
 929.443359375 371 827.741086819 453.194885006 674.741210938 453 c 0,24,25
 526.772460938 452.811523438 361.37109375 364.848632812 273.521484375 258 c 1,26,27
 299.622070312 279 333.459759867 301.812783787 357.717773438 319 c 0,28,29
 388.50390625 340.8125 427.552734375 354 470.552734375 354 c 0,30,31
 556.552734375 354 633.407305536 294.00004704 628.166992188 194 c 0,32,33
 624.229492188 118.861328125 580.087890625 -39 430.956054688 -39 c 0,34,35
 387.956054688 -39 353.314453125 6 353.14453125 60 c 1,36,37
 322.418945312 8 273.060546875 -37 220.060546875 -37 c 2,38,-1
 219.060546875 -37 l 1,39,40
 119.11328125 -36 102.255353786 61.999668721 104.188476562 99 c 0,41,42
 104.29296875 101 104.179736105 103.023522192 104.502929688 105 c 0,43,44
 107.446289063 123 129.127929688 136 127.651367188 146 c 1,45,46
 130.494140625 143 133.494140625 143 136.494140625 143 c 2,47,-1
 143.494140625 143 l 2,48,49
 145.494140625 143 145.376591104 142.727609173 146.389648438 141 c 0,50,51
 147.769732718 137.175537109 128.857105426 123.5287447 128.55078125 115 c 0,52,53
 127.441853821 98.7941176471 166.925764508 57 225.987304688 57 c 0,54,55
 282.987304688 57 343.607421875 107 368.0625 192 c 1,56,-1
 393.376953125 198 l 1,57,58
 390.852539062 188 390.32807548 178.000002595 389.856445312 169 c 0,59,60
 386.764648438 110 418.03515625 77 456.983398438 76 c 1,61,-1
 457.983398438 76 l 2,62,63
 553.771903245 76 590.380545082 140.817266556 592.590820312 183 c 0,66,67
 595.629882812 241 527.250976562 291 453.250976562 291 c 0,68,69
 358.250976562 291 254.347731811 230.715720089 195.485351562 181 c 0,70,71
 150.494140625 143 74.3544921875 64 45.9912109375 38 c 1,72,73
 46.9912109375 38 48.0443348662 38.9999795332 48.0966796875 40 c 0,74,75
 48.3583984375 45 30.5656811995 49.0001404342 31.8779296875 74 c 0,0,1
84.333984375 388 m 0,76,77
 84.4912109375 391 85.4380983775 395.02542977 85.8583984375 398 c 0,78,79
 98.5751953125 488 177.771484375 549 275.771484375 549 c 0,80,81
 337.771484375 549 376.309243009 501.999965977 373.583984375 450 c 0,82,83
 373.426757812 447 372.444889389 442.979303509 372.059570312 440 c 0,84,85
 367.015625 401 327.923828125 342 300.61328125 317 c 1,86,-1
 291.084960938 326 l 1,87,88
 307.185546875 347 329.162559026 384.729076568 331.220703125 424 c 0,89,90
 331.377929688 427 331.535178384 429.99999884 331.692382812 433 c 0,91,92
 333.998046875 477 305.623046875 508 262.623046875 508 c 0,93,94
 215.623046875 508 181.494249822 467.380965549 179.063476562 421 c 0,95,96
 178.90625 418 177.697326493 413.999996809 177.540039062 411 c 0,97,98
 175.862304688 379 187.5 353 195.923828125 342 c 1,99,100
 181.556640625 335 159.346679688 331 143.346679688 331 c 0,101,102
 104.346679688 331 82.2900390625 349 84.333984375 388 c 0,76,77
EndSplineSet
Colour: ff00
EndChar

StartChar: si_Ta
Encoding: 40 3501 8
GlifName: si_T_a
Width: 1072
VWidth: -24
Flags: HMW
LayerCount: 2
Back
SplineSet
250 378 m 1x38
 262 401 265.788085938 421.989257812 265 440 c 0
 262.88671875 488.322265625 213.939453125 510.5859375 172 501 c 0
 140.6171875 493.826171875 115.75 469.586914062 112 425 c 1
 152 370 l 1
 138 346 114.997070312 333.926757812 93 335 c 0
 52 337 28 368 28 414 c 0
 28 494 94.9794921875 562.083984375 192 558 c 0
 275.716796875 554.475585938 325.256835938 480.104492188 298 417 c 0
 282.53515625 381.197265625 298 405 285 388 c 1
 250 378 l 1x38
755 7 m 0x78
 869.530273438 10.0673828125 903.213867188 168.196289062 877 279 c 0
 846.31640625 408.693359375 716.73046875 467.030273438 567 462 c 0
 475.24609375 458.91796875 404 431.771484375 317 374 c 1
 300 362 311 367 297 355 c 1
 200 276 148 211 48 79 c 1
 48 79 13.1279296875 98.5439453125 19 107 c 0
 119 251 179 322 277 413 c 1
 284 419 293 420 300 425 c 1
 394.9296875 505 511.6328125 555.721679688 624 561 c 4
 813.928710938 570.465820312 962.841796875 449.986328125 977 282 c 0
 990.724609375 112.560546875 888.547851562 -43 734 -43 c 0
 659.46875 -43 629 -22 629 -22 c 1
 653 40 l 1
 653 40 689.37109375 5.6181640625 755 7 c 0x78
78 142 m 1
 93.8271484375 148.801757812 107.977539062 157.05859375 121 157.575195312 c 0
 207.53125 161.009765625 216.237304688 64.6337890625 384 62 c 0
 515.998046875 59.927734375 593.387695312 124.006835938 592 205 c 0
 589.891601562 328.076171875 455.087890625 345.88671875 404 346 c 0
 322.086914062 346.181640625 264 328 231 310 c 1
 268 362 l 1
 281 366 344.00390625 395.240234375 416 394 c 0
 516.004882812 392.27734375 651 345 651 195 c 0
 651 89.8291015625 582 -44 384 -44 c 0xb8
 254.072265625 -44 175.453125 7.7138671875 159 67.9970703125 c 0
 143.305664062 125.500976562 101.395507812 127.443359375 56 104 c 1
 78 142 l 1
EndSplineSet
Fore
SplineSet
92.4912109375 391 m 0
 97.6341539752 489.070273195 205.035938922 557 304.19140625 557 c 0
 364.692325995 557 404.365626512 531.582315661 400.7890625 473 c 0
 398.392667954 433.748265293 335.081054688 345 307.770507812 320 c 1
 293.084960938 326 l 1
 320.604492188 355 336.319785588 387.729076568 338.377929688 427 c 0
 340.89413323 475.011039031 320.997854014 511 270.780273438 511 c 0
 221.109348494 511 188.420874733 466.033129221 185.697265625 414 c 0
 184.022258154 381.999857264 194.657226562 356 203.081054688 345 c 1
 188.713867188 338 166.50390625 334 150.50390625 334 c 0
 111.50390625 334 90.4459995755 352.000066393 92.4912109375 391 c 0
54.3984375 83 m 0
 54.712890625 89 56.0791015625 96 58.4990234375 104 c 1
 155.154248194 206.897637795 235.063464558 282.846344636 333.810546875 368 c 1
 468.994140625 513.5 621.453125 562 738.453125 562 c 0
 894.474166402 562 1008.15539109 479.996033697 999.403320312 313 c 0
 991.157915765 155.671535595 895.923407317 -37.5417247916 694.588867188 -46 c 1
 656.952148438 -29.1619047619 643.099537468 3.18382162008 644.091796875 22 c 0
 644.197265625 24 645.301757812 26 645.40625 28 c 1
 675.934570312 19 706.727938759 14.6242823193 736.725585938 15 c 0
 836.477157849 16.2493789603 928.938286454 113.313142775 937.09765625 269 c 0
 943.858398437 398 831.107421875 460 697.107421875 460 c 0
 583.461202127 460 458.559703623 420.535921328 367.818359375 345 c 0
 352.016636684 331.846153846 311.016623761 303.346153846 295.09375 288 c 1
 345.932944082 329.227583433 414.82973629 384 493.125 384 c 0
 586.03282596 384 651.258387815 324.157211203 646.629882812 231 c 0
 639.999511929 108.789003877 551.19079534 -39 343.956054688 -39 c 0
 188.258947633 -39 130.178701477 73.3163742664 130.756835938 128 c 2
 131 151 l 1
 133.945718632 161.097560976 155.643760885 168.390243902 154.166992188 174 c 1
 171.357668693 155.858550936 167.777912435 181.478676653 166.06640625 153 c 0
 164.599609375 129.912280702 215.091796875 59 351.091796875 59 c 5
 480.134023584 60.6351065096 604.529296875 121.173913043 604.529296875 241 c 0
 604.529296875 299.038972619 551.286514283 346 467.984375 346 c 0
 386.489813095 346 278.529566852 260.203325376 220.58203125 211 c 0
 173.138746507 172.601395641 90.345703125 83.7931034483 61.9833984375 56 c 1
 61.087890625 58 53.402668379 63.9999829838 54.3984375 83 c 0
EndSplineSet
EndChar

StartChar: si_Na
Encoding: 44 3505 9
GlifName: si_N_a
Width: 1043
Flags: HMW
LayerCount: 2
Back
SplineSet
74 442 m 4
 74 493 116 547 203 547 c 4
 296 547 350 481 350 413 c 4
 350 360 339 367 334 354 c 4
 289 338 l 5
 305 359 314 390 314 407 c 4
 314 472.49609375 234.733398438 497.6796875 186 471 c 5
 151 379 l 5
 109.375976562 377.819335938 74 400.032226562 74 442 c 4
67 126 m 5
 67 182 l 5
 75 166 93 160 109 160 c 4
 169 160 245 277 310 368 c 4
 332 376 l 5
 426 483 534 551 654 551 c 4
 828 551 979 435 979 236 c 4
 979 80 890 -61 717 -61 c 4
 658 -61 610 -37 610 -35 c 5
 603 -23 616 14 628 22 c 5
 641 13 673 -12 727 -12 c 4
 845 -12 906 107 906 217 c 4
 906 362 784 454 624 454 c 4
 525 454 447 430 337 319 c 5
 324 319 l 5
 262 224 196 113 119 113 c 4
 102 113 85 117 67 126 c 5
25 194 m 5
 36 200 62 196 70 193 c 5
 67 65 248 40 352 40 c 4
 461 40 557 97 557 197 c 4
 557 259 506 313 406 313 c 4
 346 313 296 290 257 268 c 5
 287 301 l 5
 300 305 357 353 439 353 c 4
 535 353 623 285 623 183 c 4
 623 78 571 -59 341 -59 c 4
 165 -59 23 54 25 194 c 5
EndSplineSet
Fore
SplineSet
105.983398438 76 m 5
 143.548828125 56.0361328125 199.803710938 50 280.620117188 50 c 4
 291.620117188 50 302.661317837 50.5118498107 314.672851562 51 c 4
 407.306640625 54.7646484375 586.65795753 108.001091803 593.47265625 238 c 4
 595.598632812 278.555664062 569.4453125 311 528.298828125 311 c 4
 328.298828125 311 236.350585938 62.3818359375 115.197265625 61 c 5
 115.301757812 63 105.877929688 74 105.983398438 76 c 5
125.338867188 369 m 4
 125.669921875 375.333007812 126.495503156 381.717584151 127.333984375 388 c 4
 140.885742187 489.538085938 246.64453125 564 350.557617188 564 c 4
 412.557617188 564 452.248829421 539.027353919 449.155273438 480 c 4
 448.998046875 477 448.018692716 472.991193089 447.631835938 470 c 4
 442.587890625 431 381.923828125 342 354.61328125 317 c 5
 345.084960938 326 l 5
 361.185546875 347 383.170719004 384.884775029 385.220703125 424 c 4
 385.377929688 427 385.535165233 429.999999529 385.692382812 433 c 4
 388.305664062 482.866210938 360.147460938 518 317.147460938 518 c 4
 264.198242188 518 225.761764718 472.485349153 223.063476562 421 c 4
 222.90625 418 221.697326493 413.999996809 221.540039062 411 c 4
 219.862304688 379 231.5 353 239.923828125 342 c 5
 223.23828125 326.727539062 197.8203125 318 179.666015625 318 c 4
 143.622070312 318 123.500210739 333.826881805 125.338867188 369 c 4
42.7568359375 148 m 5
 44.80859375 149 47.80859375 149 50.80859375 149 c 4
 62.80859375 149 78.494140625 143 83.3369140625 140 c 5
 86.974609375 114 88.2412109375 100 117.241210938 100 c 4
 183.711914062 100 303.215604554 280.261634701 373.76171875 358 c 4
 498.994140625 496 664.453125 562 781.453125 562 c 4
 926.21875 562 1028.60103393 469.434598012 1020.40332031 313 c 4
 1011.25292969 138.385742188 900.734375 -46.83203125 667.065429688 -56 c 5
 609.7734375 -41.697265625 590.347659198 -12.4952706845 591.157226562 3 c 4
 591.26171875 5 591.3671875 7 591.471679688 9 c 4
 591.576171875 11 593.62890625 12 593.733398438 14 c 5
 626.26171875 5 658.052734342 1.00253902763 690.052734375 1 c 4
 788.515625 0.9921875 953.671994935 89.1367124646 962.993164062 267 c 4
 969.858398438 398 854.834739437 459.845336128 733.264648438 463 c 4
 585.290039062 466.83984375 425.848632812 388.225585938 341.044921875 268 c 5
 390.115234375 308.260314941 455.7265625 358 535.076171875 358 c 4
 588.868164062 358 640.620400334 314.022621773 636.629882812 241 c 4
 629.942382812 113.395507812 548.927734375 -49 306.431640625 -49 c 4
 142.404296875 -49 49.8681640625 52.537109375 42.7568359375 148 c 5
EndSplineSet
Colour: ff00
EndChar

StartChar: anusvara
Encoding: 1 3458 10
GlifName: anusvara
Width: 588
VWidth: 0
Flags: HMW
LayerCount: 2
Back
SplineSet
120 225 m 0
 120 135 165.049804688 67.998046875 283 67 c 0
 373.046875 66.23828125 438.099609375 143.999023438 439 224 c 4
 440.125 323.993164062 371 393 264 387 c 0
 194.109375 383.081054688 120 318 120 225 c 0
55 194 m 0
 55 345 173 443 294 443 c 0
 445 443 523 335 523 214 c 0
 523 93 436 -25 285 -25 c 0
 134 -25 55 73 55 194 c 0
EndSplineSet
Fore
SplineSet
162.905273438 189 m 0
 159.184570312 118 195.563476562 68 297.51171875 67 c 1
 299.51171875 67 l 2
 388.51171875 67 469.599609375 145 486.739257812 224 c 4
 489.315429688 235 489.944335938 247 490.46875 257 c 0
 494.556640625 335 446.282226562 387 358.282226562 387 c 2
 345.282226562 387 l 1
 266.348632812 381.411132812 167.788085938 304.211914062 162.905273438 189 c 0
91.0703125 154 m 0
 104.704101562 330.893554688 256.711914062 441.749023438 387.216796875 443 c 0
 520.216796875 443 578.814453125 359 573.416015625 256 c 0
 572.682617188 242 570.94921875 228 568.21484375 214 c 0
 542.874023438 93 430.689453125 -25 279.689453125 -25 c 0
 145.689453125 -25 85.7255859375 52 91.0703125 154 c 0
EndSplineSet
EndChar

StartChar: si_A
Encoding: 3 3461 11
GlifName: si_A_
Width: 788
VWidth: -17
Flags: HMW
AnchorPoint: "si_hal" 464.784 492 basechar 0
LayerCount: 2
Back
SplineSet
364 -57.5380859375 m 0
 153.625 -57.1875 52.4326171875 37.0244140625 54 157 c 0
 55.8642578125 305.000976562 183.197265625 381 323 383 c 0
 356.912109375 383.546875 385.2578125 381.401367188 402.384765625 378.52734375 c 1
 403.505859375 468.180664062 340.708007812 504.435546875 271 497 c 1
 215 408 l 1
 169 411 141 448 150 484 c 0
 166 546 225 567 288 567 c 0
 360 567 432 527 446 443 c 0
 455.095703125 388.426757812 439 334 439 334 c 1
 329.883789062 352.869140625 188.782226562 312.513671875 175 179 c 0
 164.526367188 81.240234375 240.35546875 4.236328125 408 4.8173828125 c 0
 529.96875 5.240234375 602.526367188 50.912109375 665 88.599609375 c 1
 696 47 l 1
 624.354492188 -10.3515625 511.6953125 -57.7841796875 364 -57.5380859375 c 0
506 406.842773438 m 1
 507.64453125 463.158203125 496.786132812 528.805664062 565 568 c 1
 594 546.889648438 l 1
 593.51171875 491.823242188 726 455.326171875 726 386 c 0
 726 313.143554688 634 241.561523438 545 234 c 1
 536 274 l 1
 593 284 652 321.561523438 652 378 c 0
 652 426 566.39453125 468.649414062 566 507.856445312 c 1
 554.118164062 493.653320312 558.6328125 470 558.6328125 421.313476562 c 0
 556 -378 l 1
 506 -378 l 1
 506 406.842773438 l 1
438.465820312 371.448242188 m 1
 439.303710938 371.296875 440.147460938 371.146484375 441 371 c 1
 441 371.776367188 440.05859375 371.853515625 438.465820312 371.448242188 c 1
EndSplineSet
Fore
SplineSet
31.3935546875 122 m 0
 40.5126953125 295.991210938 222.303710938 377.771484375 388.176757812 385 c 0
 415.176757812 385 427.176757812 385 442.072265625 383 c 1
 444.596679688 393 446.015625 401 446.487304688 410 c 0
 449.946289062 476 379.626953125 489 343.626953125 489 c 0
 307.849609375 489 273.662109375 461.5390625 253.434570312 409 c 1
 217.540039062 411 197.26953125 444 198.68359375 471 c 0
 202.825195312 550.017578125 280.18359375 577.795898438 349.239257812 577 c 0
 421.239257812 577 492.619140625 527 489.216796875 443 c 0
 484.547851562 373 457.028320312 344 457.028320312 344 c 1
 439.1328125 346 420.185546875 347 401.185546875 347 c 0
 269.3828125 342.694335938 169.682617188 278.119140625 159.647460938 165 c 0
 155.821289062 92 188.26171875 5 381.26171875 5 c 0
 503.26171875 5 565.462890625 47 631.612304688 88 c 1
 655.462890625 47 l 1
 571.475585938 -10 449.959960938 -58 301.959960938 -58 c 0
 112.959960938 -58 25.99609375 19 31.3935546875 122 c 0
377.189453125 -378 m 1
 541.330078125 407 l 1
 555.264648438 463 558.723632812 529 634.767578125 568 c 1
 658.666992188 547 l 1
 658.5625 545 657.509765625 544 657.405273438 542 c 0
 654.784179688 492 760.845703125 455 757.6484375 394 c 2
 757.229492188 386 l 1
 742.403320312 313 634.682617188 242 543.263671875 234 c 1
 543.359375 274 l 1
 602.883789062 284 668.875 322 680.810546875 378 c 0
 680.915039062 380 682.01953125 382 682.125 384 c 0
 684.483398438 429 615.68359375 471 622.623046875 508 c 1
 607.889648438 494 606.631835938 470 597.063476562 421 c 2
 417.189453125 -378 l 1
 377.189453125 -378 l 1
465.443359375 371 m 1
 466.443359375 371 467.443359375 371 468.443359375 371 c 1
 468.49609375 372 467.443359375 371 465.443359375 371 c 1
EndSplineSet
Colour: ffff00
EndChar

StartChar: si_Ii
Encoding: 8 3466 15
GlifName: si_I_i
Width: 779
VWidth: -5
Flags: HMW
LayerCount: 2
Back
SplineSet
527 611 m 0xb0
 527 642 552 667 583 667 c 0
 614 667 639 642 639 611 c 0
 639 580 614 555 583 555 c 0
 552 555 527 580 527 611 c 0xb0
215 701 m 4
 215 733 241 759 273 759 c 4
 305 759 331 733 331 701 c 4
 331 669 305 643 273 643 c 4x70
 241 643 215 669 215 701 c 4
EndSplineSet
Refer: 4 3515 N 1 0 0 1 0 0 2
Fore
SplineSet
679.645507812 642 m 0
 679.802734375 645 680.959960938 648 681.1171875 651 c 4
 687.7421875 682 718.052734375 707 749.052734375 707 c 4
 777.052734375 707 796.00390625 687 794.588867188 660 c 0
 794.431640625 657 793.274414062 654 793.1171875 651 c 4
 786.493164062 620 756.182617188 595 725.182617188 595 c 4
 697.182617188 595 678.23046875 615 679.645507812 642 c 0
329.411132812 752 m 0
 329.568359375 755 330.724609375 758 330.881835938 761 c 0
 337.559570312 793 368.921875 819 400.921875 819 c 0
 429.921875 819 448.821289062 798 447.353515625 770 c 0
 447.196289062 767 447.0390625 764 446.881835938 761 c 0
 440.205078125 729 408.842773438 703 376.842773438 703 c 0
 347.842773438 703 327.943359375 724 329.411132812 752 c 0
EndSplineSet
Refer: 4 3515 N 1 0 0.209823 1 -40 0 2
Colour: ffff00
EndChar

StartChar: si_U
Encoding: 9 3467 16
GlifName: si_U_
Width: 765
VWidth: 13
Flags: HMW
LayerCount: 2
Back
SplineSet
153 82 m 0
 134.201906315 -47.7994601107 198.972526228 -212.974609023 382 -236.380859375 c 0
 516.911576709 -252.204891615 598.588777731 -209.567542192 672 -151 c 1
 706 -208 l 1
 656.222222222 -243.865923717 549.874452006 -301.940847466 398 -296.19140625 c 0
 120.45118203 -285.48990852 25.9167733352 -102.742418168 37 34 c 4
 59.611328125 311.194438579 311.991484908 369.895574109 467 371 c 0
 529.002929688 371.436523438 565 367.727539062 594 365 c 1
 594 370 569.833007812 346 569 351 c 1
 581.571289062 478 452.213867188 499 374 481 c 1
 318 402 l 1
 272 405 250.087119932 445.53313978 261 481 c 0
 277 533 338 561 421 561 c 0
 503.286132812 561 597.034094894 506.79393118 611 423 c 0
 620.095703125 368.426757812 608 318 608 318 c 1
 608 316 l 1
 392.633333333 336.892578125 186.468603666 299.200396191 153 82 c 0
EndSplineSet
Fore
SplineSet
35.826171875 55 m 0
 52.154296875 288.49609375 245.856445312 380.010742188 411.23046875 394 c 4
 470.336914062 399 606.079101562 403.75 648.6015625 395 c 1
 648.901367188 399.286132812 625.900390625 378.713867188 624.762695312 383 c 1
 626.112304688 388 626.461914062 393 626.811523438 398 c 0
 633.104492188 488 554.341796875 523 485.551757812 523 c 0
 471.076171875 523 464.840820312 521 453.1328125 517 c 1
 401.119140625 431 l 1
 356.94140625 433.229492188 333.53515625 465.557617188 335.874023438 499 c 0
 340.08203125 559.174804688 398.16796875 599 483.866210938 599 c 0
 594.516601562 599 677.956054688 528.779296875 669.860351562 413 c 0
 667.236328125 375.482421875 658.384765625 349 658.384765625 349 c 1
 658.245117188 347 l 1
 616.651367188 355.5 492.936523438 350.979492188 440.874023438 346 c 4
 266.068359375 329.280273438 160.641601562 238.263671875 149.084960938 73 c 0
 137.916992188 -86.71484375 226.809570312 -219 426.366210938 -219 c 0
 564.614257812 -219 656.063476562 -164.942382812 704.51953125 -131 c 1
 715.995117188 -136.326171875 723.205078125 -149.760742188 721.092773438 -170 c 1
 688.64453125 -204.9140625 573.387695312 -271 416.030273438 -271 c 0
 113.831054688 -271 25.603515625 -91.197265625 35.826171875 55 c 0
EndSplineSet
EndChar

StartChar: si_E
Encoding: 15 3473 18
GlifName: si_E_
Width: 862
Flags: HMW
LayerCount: 2
Back
SplineSet
336.81640625 669.124023438 m 1xde
 427 678 l 1
 425.842773438 653.400539719 448.363491842 575.996956623 488 559 c 0
 564.103515625 526.365234375 597.166015625 606.057617188 654 558 c 1
 683 526 l 1
 614.135742188 554.92578125 559.416287215 470.925470977 457 505.301757812 c 0
 376.956054688 532.168711285 380.421875 669.104915298 336.81640625 669.124023438 c 1xde
30 317 m 5
 419 316 l 5
 414 275 l 5
 113 270 l 5
 29 252 l 5
 30 317 l 5
415.504882812 661.212890625 m 0
 365.150223695 668.377572949 331.440007734 662.285715331 315 661 c 1
 316 741 l 1xee
 647.914375659 740.212890625 800 516.80859375 800 311 c 0
 800 91.0390625 671.749908359 -56.3568812077 449 -61 c 0
 229.623230244 -65.5728072786 126.234562254 17.8004014046 123 121 c 0
 118.597068797 261.476731369 262.522058823 302.262309365 376 306 c 1
 376 394 334.691729323 438 242 438 c 1
 216 357 l 1
 169.636363636 350 138.268483167 378.897251479 146 425 c 0
 155.391304348 481 209.860869565 500 254 500 c 0
 320 500 417.480828685 462.978771411 422 359 c 0
 423.383789062 327.161267511 414 282 414 282 c 1
 286.25 299.455610795 195.404368225 246.993333829 196 162 c 0
 196.519135843 86.054701937 304.648122074 38.9859262278 443 40 c 0
 628.478107244 41.3391927084 738 144.647971633 738 346 c 0
 738 538.33781221 549.268901917 642.180357787 415.504882812 661.212890625 c 0
EndSplineSet
Fore
SplineSet
79.9755859375 343 m 0
 80.6044921875 355 83.12890625 365 87.6005859375 374 c 1
 466.600585938 374 l 1
 469.01953125 382 469.439453125 390 469.858398438 398 c 0
 472.478515625 448 439.155273438 480 383.155273438 480 c 0
 376.155273438 480 367.103515625 479 359.05078125 478 c 1
 316.805664062 397 l 1
 311.75390625 396 306.75390625 396 302.75390625 396 c 0
 271.75390625 396 253.697265625 414 255.1640625 442 c 0
 263.659179688 514.708007812 336.125976562 540.479492188 384.299804688 540 c 0
 454.299804688 540 518.098632812 498 514.01171875 420 c 0
 514.165039062 384.815429688 484.03515625 319.126953125 483.666015625 318 c 1
 460.823242188 321 441.875 322 421.875 322 c 0
 304.416015625 311.28125 221.952148438 266.22265625 216.69921875 166 c 0
 212.559570312 87 296.782226562 34 456.782226562 34 c 0
 668.782226562 34 774.0625 192 807.1328125 346 c 0
 812.443359375 371 816.75390625 396 817.958984375 419 c 0
 819.216796875 443 817.369140625 465 813.41796875 485 c 1
 774.474609375 467 724.79296875 454 678.79296875 454 c 0
 623.79296875 454 574.7890625 473 559.56640625 526 c 0
 540.920898438 590 568.056640625 688 517.047851562 726 c 1
 515.047851562 726 l 1
 514.2578125 730 513.51953125 735 513.782226562 740 c 0
 514.620117188 756 520.720703125 777 532.087890625 784 c 1
 759.201171875 748 895.235351562 596 884.858398438 398 c 0
 883.705078125 376 881.552734375 354 876.346679688 331 c 0
 828.29296875 101 658.908203125 -59 435.908203125 -59 c 0
 218.908203125 -59 133.467773438 28 138.603515625 126 c 0
 144.03125 229.572265625 206.5546875 291.37109375 279.346679688 331 c 1
 179.346679688 331 l 1
 81.560546875 316 l 1
 80.0322265625 325 79.50390625 334 79.9755859375 343 c 0
603.895507812 704 m 1
 621.588867188 660 606.33984375 598 620.138671875 556 c 0
 630.461914062 524 661.5703125 507 706.5703125 507 c 0
 734.5703125 507 766.884765625 513 802.56640625 526 c 1
 771.3359375 617 693.270507812 673 603.895507812 704 c 1
EndSplineSet
Colour: ffff00
EndChar

StartChar: si_Ee
Encoding: 16 3474 19
GlifName: si_E_e
Width: 875
Flags: HMW
LayerCount: 2
Back
Refer: 50 3530 N 1 0 0 1 750 -106 2
Refer: 18 3473 N 1 0 0 1 0 0 2
Fore
SplineSet
935.48046875 677 m 1
 945.484375 658 968.379882812 656 981.379882812 656 c 0
 1010.609375 655.177734375 1039.52441406 676.703125 1041.57617188 717 c 0
 1044.56347656 774 975.611328125 794 964.450195312 810 c 1
 935.48046875 677 l 1
90.7138671875 338 m 0
 91.447265625 352 95.076171875 364 100.600585938 374 c 1
 479.600585938 374 l 1
 482.072265625 383 483.596679688 393 484.015625 401 c 0
 486.583984375 450 454.155273438 480 399.155273438 480 c 0
 392.155273438 480 384.103515625 479 376.05078125 478 c 1
 330.805664062 397 l 1
 325.75390625 396 320.75390625 396 316.75390625 396 c 0
 287.75390625 396 268.591796875 412 270.006835938 439 c 0
 279.471679688 512.705078125 354.087890625 541.07421875 403.299804688 540 c 0
 471.299804688 540 533.204101562 500 529.2734375 425 c 0
 529.458007812 389.44921875 495.702148438 319.678710938 494.666015625 318 c 1
 472.823242188 321 452.875 322 432.875 322 c 0
 314.061523438 311.16796875 226.908203125 265.376953125 221.541992188 163 c 0
 217.506835938 86 300.782226562 34 458.782226562 34 c 0
 670.782226562 34 780.0625 192 819.1328125 346 c 0
 826.600585938 374 831.015625 401 832.326171875 426 c 0
 833.426757812 447 831.474609375 467 829.41796875 485 c 1
 789.474609375 467 738.79296875 454 693.79296875 454 c 0
 638.79296875 454 590.7890625 473 577.56640625 526 c 0
 561.920898438 590 592.056640625 688 542.047851562 726 c 1
 540.047851562 726 l 1
 539.205078125 729 538.415039062 733 538.676757812 738 c 0
 539.515625 754 546.66796875 776 559.087890625 784 c 1
 707.830078125 760 815.952148438 686 867.500976562 582 c 1
 926.280273438 864 l 1
 931.4375 867 935.490234375 868 940.490234375 868 c 0
 947.490234375 868 955.333007812 865 960.280273438 864 c 0
 984.284179688 845 1005.76074219 835 1031.02636719 821 c 0
 1052.39746094 809 1104.13964844 785 1100.83886719 722 c 0
 1097.31640625 649.659179688 1042.57226562 617.009765625 982.3359375 617 c 0
 954.3359375 617 933.702148438 624 922.173828125 633 c 1
 922.122070312 632 921.016601562 630 920.96484375 629 c 2
 894.255859375 501 l 1
 899.7890625 473 902.216796875 443 900.591796875 412 c 0
 899.229492188 386 894.814453125 359 888.346679688 331 c 0
 832.29296875 101 656.908203125 -59 433.908203125 -59 c 0
 219.908203125 -59 137.310546875 25 142.341796875 121 c 0
 147.9453125 227.921875 216.471679688 290.631835938 291.346679688 331 c 1
 190.346679688 331 l 1
 92.560546875 316 l 1
 91.927734375 323 90.3466796875 331 90.7138671875 338 c 0
627.895507812 704 m 1
 643.588867188 660 627.33984375 598 639.138671875 556 c 0
 648.461914062 524 680.5703125 507 725.5703125 507 c 0
 753.5703125 507 785.884765625 513 821.56640625 526 c 1
 793.3359375 617 716.270507812 673 627.895507812 704 c 1
EndSplineSet
Colour: ffff00
EndChar

StartChar: si_Ai
Encoding: 17 3475 20
GlifName: si_A_i
Width: 1441
Flags: HMW
LayerCount: 2
Back
Refer: 59 3545 N 1 0 0 1 0 0 2
Refer: 18 3473 N 1 0 0 1 570 0 2
Fore
SplineSet
67.751953125 167 m 0
 87.3291015625 408.725585938 277.713867188 548.640625 458.719726562 548 c 0
 580.719726562 548 626.732421875 491 626.732421875 491 c 1
 628.365234375 484 628.736328125 472 628.002929688 458 c 0
 626.745117188 434 621.330078125 407 609.120117188 403 c 1
 609.120117188 403 558.211914062 462 422.211914062 462 c 0
 279.013671875 463.540039062 142.196289062 385.375976562 133.634765625 222 c 0
 128.431640625 122.717773438 209.916015625 63.7548828125 315.301757812 63 c 0
 418.48828125 64.787109375 534.76171875 116.771484375 544.84375 226 c 0
 547.516601562 277 514.508789062 315 474.2421875 329 c 1
 480.717773438 319 486.827148438 302 485.516601562 277 c 0
 485.150390625 270 483.73046875 262 482.258789062 253 c 0
 473.005859375 210 432.227539062 157 361.227539062 157 c 0
 304.227539062 157 279.114257812 193 281.2109375 233 c 0
 290.140625 319.048828125 370.493164062 364.041992188 445.12890625 365 c 0
 524.12890625 365 594.666015625 318 589.477539062 219 c 0
 588.900390625 208 587.271484375 196 584.590820312 183 c 0
 563.245117188 81 451.588867188 -46 290.588867188 -46 c 0
 145.413085938 -44.2177734375 57.18359375 36.5087890625 67.751953125 167 c 0
694.713867188 338 m 0
 695.447265625 352 699.076171875 364 704.600585938 374 c 1
 1083.60058594 374 l 1
 1086.07226562 383 1087.59667969 393 1088.015625 401 c 0
 1090.58398438 450 1058.15527344 480 1003.15527344 480 c 0
 996.155273438 480 988.103515625 479 980.05078125 478 c 1
 934.805664062 397 l 1
 929.75390625 396 924.75390625 396 920.75390625 396 c 0
 891.75390625 396 872.591796875 412 874.006835938 439 c 0
 883.471679688 512.705078125 958.087890625 541.07421875 1007.29980469 540 c 0
 1075.29980469 540 1137.20410156 500 1133.2734375 425 c 0
 1133.45800781 389.44921875 1099.70214844 319.678710938 1098.66601562 318 c 1
 1076.82324219 321 1056.875 322 1036.875 322 c 0
 918.061523438 311.16796875 830.908203125 265.376953125 825.541992188 163 c 0
 821.506835938 86 904.782226562 34 1062.78222656 34 c 0
 1274.78222656 34 1384.0625 192 1423.1328125 346 c 0
 1430.60058594 374 1435.015625 401 1436.32617188 426 c 0
 1437.42675781 447 1435.47460938 467 1433.41796875 485 c 1
 1393.47460938 467 1342.79296875 454 1297.79296875 454 c 0
 1242.79296875 454 1194.7890625 473 1181.56640625 526 c 0
 1165.92089844 590 1196.05664062 688 1146.04785156 726 c 1
 1144.04785156 726 l 1
 1143.20507812 729 1142.41503906 733 1142.67675781 738 c 0
 1143.515625 754 1150.66796875 776 1163.08789062 784 c 1
 1384.25390625 749 1514.6015625 603 1504.59179688 412 c 0
 1503.22949219 386 1498.81445312 359 1492.34667969 331 c 0
 1436.29296875 101 1260.90820312 -59 1037.90820312 -59 c 0
 823.908203125 -59 741.310546875 25 746.341796875 121 c 0
 751.9453125 227.921875 820.471679688 290.631835938 895.346679688 331 c 1
 794.346679688 331 l 1
 696.560546875 316 l 1
 695.927734375 323 694.346679688 331 694.713867188 338 c 0
338.416015625 256 m 0
 337.263671875 234 352.3203125 216 382.3203125 216 c 0
 426.116210938 220.545898438 449.376953125 249.13671875 450.041015625 287 c 0
 451.717773438 319 438.346679688 331 427.556640625 335 c 1
 375.399414062 332 346.565429688 297 339.8359375 264 c 0
 339.678710938 261 338.573242188 259 338.416015625 256 c 0
1231.89550781 704 m 1
 1247.58886719 660 1231.33984375 598 1243.13867188 556 c 0
 1252.46191406 524 1284.5703125 507 1329.5703125 507 c 0
 1357.5703125 507 1389.88476562 513 1425.56640625 526 c 1
 1397.3359375 617 1320.27050781 673 1231.89550781 704 c 1
EndSplineSet
Colour: ffff00
EndChar

StartChar: si_Os
Encoding: 18 3476 21
GlifName: si_O_s
Width: 808
Flags: HMW
LayerCount: 2
Back
SplineSet
539 -40 m 1xbbf0
 434 -40 390 27 375 131 c 1
 373 128 412 134 410 131 c 1
 393.096236766 30 350.368372182 -37.1982421875 237 -39 c 1
 60.6 -39 28.5610844767 115.777602197 27 196 c 0
 24.5031197567 333.395201123 99.5095736885 439.720590168 186 442 c 0xdbf0
 233.299804688 443.30859375 267.819335938 406.991210938 267.819335938 336 c 0
 267.819335938 243.576171875 312.777545532 225.267366929 381 224 c 0
 467.734444754 222.388736264 496.947175837 264.54736198 499 316 c 0
 500.790272588 360.871961805 480.006588764 431.521282459 401 432 c 0
 364.743212891 432.24859375 344.323604041 409.653417249 344 389 c 0
 343.645664062 369.029296875 354.435150052 342.292190268 391 342.561523438 c 0
 439.637695312 342.920043945 451.7578125 394.288970947 420 431.561523438 c 1
 462 430.561523438 l 1
 490.539422286 381.112720677 459.906112514 293.62788779 380 295 c 0
 342.763004955 295.744362993 304.899280322 320.27504678 304 367.856445312 c 0
 303.232680203 405.485062239 328 466 406 466 c 0xd7f0
 488.267578125 466 537.463319731 405.053884241 538 320 c 0
 538.395507812 257.319335938 499.317105711 176.136715956 380 177 c 0
 272.291015625 177.779296875 221 229.416992188 221 304 c 0
 221 348 213.053712691 393.716706242 176 393 c 0
 114.011610243 391.960477941 87.5518015862 292.796073739 91 219 c 0
 95.7634662829 110.005145734 157.148062423 60.3882137459 240 57 c 0
 306.52173913 53.8026315789 372.065217391 85.019646895 375 219 c 1
 403 220 l 1
 405.979166667 95.5458661005 481.315558839 54.34769911 546 56 c 0
 669.265683378 59.0715343602 697.240070303 208.942564204 702 304 c 0
 712.814970353 491.489726732 625.405966155 675.986566065 379 679 c 0
 234.40475591 680.790508156 146.277777778 597 143 597 c 1
 108 647 l 0
 108 647 218.187536916 733.598117483 371 733 c 0
 646.039548023 731.950124688 777.99128632 519.118245551 775 312 c 0
 773.165724298 178.163248689 732.611650485 -40 539 -40 c 1xbbf0
EndSplineSet
Fore
SplineSet
72.328125 225 m 1
 83.8782866476 364.982421875 169.791005896 476.94921875 273.836914062 493 c 1
 275.631835938 470 l 1
 271.374023438 446 268.27390975 424.999975252 267.225585938 405 c 0
 263.034375089 331.593974714 324.660609319 292.330506536 400.831054688 293 c 0
 512.883789062 293.928057554 562.548564163 376.525145197 565.116210938 422 c 0
 567.533203125 468.125 529.833007812 512 465.833007812 512 c 2
 463.833007812 512 l 1
 409.771484375 510.999881629 375.763743336 487.914225366 372.374023438 456 c 0
 370.131835938 425.334097929 402.107618257 403 435.120117188 403 c 0
 472.120117188 403 524.116210938 422 564.631835938 470 c 1
 582.421875 466 l 1
 551.390625 373.93442623 473.028320312 349 435.028320312 349 c 0
 363.028320312 349 336.329845379 390.684416189 339.006835938 439 c 0
 342.271244492 501.190778788 394.621044094 564 480.557617188 564 c 0
 553.426757812 564 617.134765625 514 615.063476562 421 c 1
 609.74958595 319.426752248 529.030031162 222 397.110351562 222 c 1
 274.272460938 223.205897177 223.319844779 297.945478044 228.858398438 398 c 0
 229.434570312 409 230.01171875 420 232.587890625 431 c 1
 201.521484375 426.880859375 122.293945312 349.065429688 116.525390625 246 c 1
 111.471508986 142.875 176.184594211 72.0416666667 266.720703125 71 c 1
 268.720703125 71 l 2
 343.720703125 71 403.184570312 121.949579832 426.95703125 200 c 1
 452.271484375 206 l 1
 449.799804688 197 449.328403254 187.999985423 448.909179688 180 c 0
 445.974609375 117.978494624 483.053213433 75.1221403353 550.03515625 77 c 0
 664.540699667 80.2101986345 738.385983686 222.060598424 745.90625 359 c 1
 754.640449543 580.764279801 630.131411389 722.620069342 410.26171875 711 c 0
 285.681640625 705.177734375 184.755859375 634 181.2265625 634 c 0
 179.2265625 634 178.121296087 632.000040525 178.331054688 636 c 0
 179.302734375 654.529296875 207.043945312 690.706054688 238.26171875 711 c 1
 280.798828125 735.23046875 346.150396682 752.319198589 429.620117188 756 c 0
 662.818638847 767.432601451 805.260685259 609.904101563 792.333984375 357 c 1
 780.89734522 156.628547794 685.889454639 -37 534.060546875 -37 c 0
 461.342218861 -37 412.931351139 22.5378151261 418.297851562 72 c 5
 417.192382812 70 430.536791379 75.9845568121 429.40234375 74 c 4
 402.291101351 28.1873686975 364.697252675 -35 246.166015625 -35 c 0
 113.736798774 -35 63.9299046218 84.8324277218 72.328125 225 c 1
EndSplineSet
EndChar

StartChar: si_Kha
Encoding: 22 3483 24
GlifName: si_K_ha
Width: 0
Flags: HM
LayerCount: 2
Back
SplineSet
275.736328125 334.590820312 m 0
 207.381835222 324.226228058 126.664703527 268.400506065 116 163 c 0
 105.682058146 61.0265799071 141.392465925 -8.16066226344 223 -8.2998046875 c 0
 264.238535109 -8.3701171875 283.265396693 24.8983315225 283.409179688 51.7451171875 c 0
 283.588867188 85.2958984375 263.164059928 111.356644344 230.8828125 110.939453125 c 0
 205.266601562 110.608398438 181.614612844 89.8516679477 182.977539062 50.763671875 c 0
 183.839912926 26.03125 200.476396582 -6.9013671875 241.888671875 -12.09375 c 0
 234.706054688 -23.3828125 l 0
 167.255115122 -21.3203125 141.325292334 15.4651987976 140.389648438 53.98828125 c 0
 139.001257764 111.152217945 178.128818539 167.074593396 241.249023438 169.60546875 c 0
 299.694209519 171.948893985 345.76615991 129.020285934 345.776367188 61.1171875 c 0
 345.784244374 8.71484375 306.063253785 -59.7658427393 224 -58.787109375 c 0
 106.223898192 -57.3824441316 61.896784615 57.9056093142 61.5234375 149.9375 c 0
 60.81640625 324.224162748 182.234830079 431.799907501 316.396484375 434.801757812 c 0
 420.31640625 437.126953125 533.740234375 372.130859375 526.779296875 234 c 1
 514.501953125 220 l 1
 487.4140625 212.859375 448.186299537 169.589865393 448.287109375 128 c 0
 448.428170155 69.8043021133 502.307204107 45.1263451332 568 51.73046875 c 0
 671.002922083 62.0436984734 732.707870738 178.150771759 725.416015625 339 c 0
 715.695837344 552.312033205 613.163082657 667.274459809 386 672.860351562 c 0
 265.927724458 675.802187471 170.387196633 609 170 609 c 2
 139 665 l 1
 139 665 244.290997216 738.885146054 394 736.09375 c 0
 620.056385242 732.014325509 791.480630741 580.630141826 796.62890625 333 c 0
 801.176619521 114.256694096 724.288504485 -51.9986914946 555 -52 c 0
 428.656767648 -52.0009583657 388.565480011 29.4714919299 388.739257812 106 c 0
 388.90234375 177.820010537 435.810546875 249.176430151 488 261 c 1
 488.30078125 264.1328125 484.762695312 233.118164062 485.032226562 236 c 1
 420.567382812 331.591907444 341.564453125 344.572339384 275.736328125 334.590820312 c 0
EndSplineSet
EndChar

StartChar: si_Ga
Encoding: 23 3484 25
GlifName: si_G_a
Width: 896
Flags: HMW
LayerCount: 2
Back
SplineSet
682.759765625 15.6123046875 m 4
 789.694335938 27.6982421875 844.623046875 96.9677734375 844.623046875 219.600585938 c 4
 844.623046875 341.538085938 777.1328125 439.272460938 641.9375 437.533203125 c 4
 548.677734375 436.399414062 462.352539062 377.801757812 436.877929688 264.823242188 c 5
 386.610351562 248.01171875 l 5
 401.196289062 440.625976562 516.974609375 535.514648438 640.6796875 542.603515625 c 4
 818.7421875 552.603515625 908.870117188 411.889648438 908.870117188 267.375 c 4
 908.870117188 101.1640625 831.431640625 -54.5166015625 652.411132812 -55.814453125 c 4
 602.002929688 -56.1796875 566.490234375 -45.9150390625 548.682617188 -36.138671875 c 5
 567.452148438 38.328125 l 5
 588.120117188 22.771484375 640.903320312 10.5341796875 682.759765625 15.6123046875 c 4
102.974609375 245.841796875 m 4
 102.147460938 150.483398438 163.654296875 56.111328125 313 50.5908203125 c 4
 398.575195312 47.0771484375 483.88671875 79.8349609375 486 150 c 4
 487.185546875 200.606445312 453.31640625 247 387 247 c 5
 428 281 l 5
 470 279.932617188 539.65234375 240.7421875 540 152 c 4
 540.506835938 44.1220703125 466.59375 -57.0576171875 301.598632812 -55.0048828125 c 4
 143.704101562 -53.0400390625 41.9951171875 61.9140625 41.9951171875 221.564453125 c 4
 41.9951171875 428.865234375 190.2890625 526 325 538 c 4
 332.879882812 461.879882812 l 4
 237.916015625 461.879882812 104.434570312 422.454101562 102.974609375 245.841796875 c 4
EndSplineSet
Fore
SplineSet
319.852539062 188 m 1
 354.540039062 411 524.509765625 544 659.5625 545 c 1
 661.5625 545 l 2
 794.759765625 545 848.377929688 427 841.827148438 302 c 0
 832.172851562 117.776367188 722.078125 -56.818359375 516.541015625 -66 c 1
 504.408203125 -57.6181640625 500.677734375 -44.310546875 502.528320312 -9 c 1
 533.056640625 -18 544.747070312 -18.5234375 574.37109375 -12 c 0
 675.3046875 10.2275390625 752.529296875 97.1240234375 761.529296875 220 c 0
 767.137695312 327 728.790039062 433 628.692382812 433 c 0
 488.692382812 433 374.87109375 341 367.32421875 197 c 0
 367.166992188 194 367.009765625 191 366.852539062 188 c 1
 357.799804688 187 349.748046875 186 340.748046875 186 c 0
 333.748046875 186 326.799804688 187 319.852539062 188 c 1
45.119140625 174 m 0
 57.90234375 417.913085938 274.755859375 554.90234375 408.0859375 555 c 1
 408.981445312 553 407.876953125 551 407.719726562 548 c 0
 406.409179688 523 396.9375 514 390.518554688 506 c 1
 304.247070312 506 147.924804688 422.659179688 119.420898438 237 c 0
 105.756835938 148 138.532226562 60.865234375 266.672851562 51 c 0
 374.829101562 41 470.810546875 129.958007812 476.2109375 233 c 0
 479.6171875 298 420.666015625 318 372.673828125 280 c 1
 369.931640625 304 l 1
 423.701171875 359.788085938 527.462890625 352.288085938 521.053710938 230 c 0
 514.088867188 97.09765625 421.8203125 -44.8701171875 258.484375 -48 c 0
 123.484375 -48 38.0966796875 40 45.119140625 174 c 0
EndSplineSet
EndChar

StartChar: si_Gha
Encoding: 24 3485 26
GlifName: si_G_ha
Width: 0
Flags: HM
LayerCount: 2
Back
SplineSet
39 379 m 1xe8
 417 381 l 1
 419 336 l 1
 123 335 l 1
 38 322 l 1
 39 379 l 1xe8
547 373 m 1
 580 384 l 1
 679.491210938 410.330078125 865 380.840820312 865 186 c 0
 865 64 790.377929688 -45 659 -45 c 0
 554 -45 521 13 506 117 c 1
 505.427734375 116.142578125 540 147 534 165 c 24
 528 183 486.626953125 183.658203125 484 184 c 1
 481.327148438 184.34765625 438 184 427 162 c 24
 419 145 461.505859375 117.758789062 461 117 c 1
 443.119140625 16 420.748046875 -43.1982421875 304 -44 c 0
 171.470703125 -44.91015625 99.1728515625 54.9951171875 101 154 c 0
 103.165039062 268 197.35546875 346 232 347 c 1
 326 338 l 1
 239.861328125 324.103515625 161.854492188 266.251953125 163 183 c 0
 163.899414062 112.950195312 215.602539062 66.7216796875 304 62 c 0
 345.575534477 59.7790143032 409.211914062 74.7744140625 415 107.828125 c 1
 414.201171875 132.467773438 370.123013369 139.845373801 371 171 c 0
 372.030155581 207.595896569 416.004882812 243.372070312 488 242 c 0
 555.00390625 240.72265625 590 210 590 174 c 0
 590 142.71560447 550.262695312 129.123046875 548 112.466796875 c 1
 551.45703125 84.8037109375 620.854500708 64.2333014695 664 64 c 0
 743.806640625 63.599609375 799.400390625 113.7890625 801 195 c 0xf2
 803.384765625 310.975585938 705.305664062 383.813476562 542 328 c 1
 537 350.166992188 532.391601562 374.670898438 532 398 c 0
 530 500 603 568 687 570 c 0
 753.981445312 571.594726562 830 532 830 452 c 0
 830 356 737 330 737 330 c 1
 721 337 l 1
 721 337 760 374.990234375 760 424 c 0xe4
 760 465 719.879882812 513.047851562 656 509 c 0
 619.995117188 506.71875 577 472 572 411 c 0
 568.227539062 364.98046875 588 353 588 353 c 1
 547 373 l 1
388 364 m 1xe8
 391 398 391 417 379 445 c 0
 365 480 310 508 260 503 c 0
 209 419 l 1
 179 422 155 439 155 476 c 0
 155 543 227 568 280 568 c 0
 360 568 433.29296875 518.05078125 436 433 c 0
 437.56640625 383.791015625 428 358.083007812 419 337 c 1
 388 364 l 1xe8
EndSplineSet
EndChar

StartChar: si_Nga
Encoding: 25 3486 27
GlifName: si_N_ga
Width: 0
Flags: HMW
LayerCount: 2
Back
SplineSet
441 474 m 25x9e
 291 490 l 17
 156 448 95.365234375 383.963867188 90 238 c 0
 87.2509765625 163.2109375 130.008789062 56.189453125 178 18.7021484375 c 0
 137 -30.3115234375 l 0
 69.341796875 20.875 22 137.236328125 28 245 c 0
 41.0634765625 479.63671875 251 599 440 539 c 1
 441 474 l 25x9e
EndSplineSet
Refer: 25 3484 N 1 0 0 1 104 0 2
EndChar

StartChar: si_Nnga
Encoding: 26 3487 28
GlifName: si_N_nga
Width: 1103
Flags: HMW
LayerCount: 2
Back
SplineSet
441 474 m 25x9e
 291 490 l 17
 156 448 95.365234375 383.963867188 90 238 c 0
 87.2509765625 163.2109375 130.008789062 56.189453125 178 18.7021484375 c 0
 137 -30.3115234375 l 0
 69.341796875 20.875 22 137.236328125 28 245 c 0
 41.0634765625 479.63671875 251 599 440 539 c 1
 441 474 l 25x9e
EndSplineSet
Refer: 25 3484 N 1 0 0 1 104 0 2
Fore
SplineSet
499.852539062 188 m 5
 534.540039062 411 704.509765625 544 839.5625 545 c 5
 841.5625 545 l 6
 974.759765625 545 1028.37792969 427 1021.82714844 302 c 4
 1012.17285156 117.776367188 902.078125 -56.818359375 696.541015625 -66 c 5
 684.408203125 -57.6181640625 680.677734375 -44.310546875 682.528320312 -9 c 5
 713.056640625 -18 724.747070312 -18.5234375 754.37109375 -12 c 4
 855.3046875 10.2275390625 932.529296875 97.1240234375 941.529296875 220 c 4
 947.137695312 327 908.790039062 433 808.692382812 433 c 4
 668.692382812 433 554.87109375 341 547.32421875 197 c 4
 547.166992188 194 547.009765625 191 546.852539062 188 c 5
 537.799804688 187 529.748046875 186 520.748046875 186 c 4
 513.748046875 186 506.799804688 187 499.852539062 188 c 5
225.119140625 174 m 4
 237.90234375 417.913085938 454.755859375 554.90234375 588.0859375 555 c 5
 588.981445312 553 587.876953125 551 587.719726562 548 c 4
 586.409179688 523 576.9375 514 570.518554688 506 c 5
 484.247070312 506 327.924804688 422.659179688 299.420898438 237 c 4
 285.756835938 148 318.532226562 60.865234375 446.672851562 51 c 4
 554.829101562 41 650.810546875 129.958007812 656.2109375 233 c 4
 659.6171875 298 600.666015625 318 552.673828125 280 c 5
 549.931640625 304 l 5
 603.701171875 359.788085938 707.462890625 352.288085938 701.053710938 230 c 4
 694.088867188 97.09765625 601.8203125 -44.8701171875 438.484375 -48 c 4
 303.484375 -48 218.096679687 40 225.119140625 174 c 4
89.9619140625 171 m 0
 105.006835938 418.245117188 346.314453125 560.767578125 510.453125 562 c 0
 539.453125 562 557.348632812 560 585.138671875 556 c 1
 585.0859375 555 l 1
 446.623046875 508 l 1
 439.623046875 508 l 1
 302.482421875 495.924804688 162.479492188 364.962890625 152.594726562 164 c 0
 148.716796875 90 159.576171875 11 185.899414062 -21 c 1
 179.689453125 -25 165.427734375 -30 141.427734375 -30 c 1
 107.471679688 9 85.6123046875 88 89.9619140625 171 c 0
EndSplineSet
Colour: ffff00
EndChar

StartChar: si_Cha
Encoding: 28 3489 29
GlifName: si_C_ha
Width: 0
Flags: HM
LayerCount: 2
Back
SplineSet
592 219 m 0xfe
 511.918945312 219.434570312 488.201116911 292.763424947 486.741210938 352 c 4
 481.936523438 546.953125 622.448767968 725.752779993 781 771 c 1
 808 688 l 17
 633.265625 660.305664062 549.120117188 507.9765625 537.295898438 414 c 0
 525.741210938 322.166992188 542.079101562 263.030273438 595 264 c 0
 639.142578125 264.80859375 660.87890625 295.380859375 661 367 c 0
 661.078125 413 628 494 549 494 c 0
 502 494 465 462 465 419 c 0
 465 367 490 352 490 352 c 1
 442 333 l 1
 434 358 427 384 427 426 c 0
 428 512 510 553 571 553 c 0
 654 553 725 477 725 397 c 0
 725 266.061523438 656.436523438 218.650390625 592 219 c 0xfe
119 209 m 0
 118 124 203 45 388 45 c 0
 563 45 663.451154009 127.008854445 665 216 c 0
 666.775330903 318.004157759 539 348 442 333 c 1
 462 373 l 1
 607 402 740 331 736 193 c 0xfd
 731 29 564 -59 383 -59 c 0
 189 -59 38 33 40 180 c 0
 42 339 208 394 316 384 c 1
 292 345 l 1
 299 365 312.3731417 386.33162663 308 415 c 0
 299 474 239 505 171 490 c 0
 204 511 l 1
 149 409 l 1
 108 411 81.6005478023 436.013695057 83 471 c 0
 85 521 142 557 202 557 c 0
 272 557 344 517 346 439 c 0
 347 402 341 370 332 333 c 1
 208 351 120 287 119 209 c 0
EndSplineSet
EndChar

StartChar: si_Ja
Encoding: 29 3490 30
GlifName: si_J_a
Width: 778
Flags: HMW
LayerCount: 2
Back
SplineSet
637 458 m 9xf8
 688 479 l 25
 688 479 689.344726562 453.623046875 690 432 c 0
 691 399 681.14316462 345.14565047 612 346 c 0
 529.8046875 347.015625 511.294642069 411.631971212 510.409179688 474 c 0
 508.469726562 610.606445312 612.135742188 725.743164062 761 771 c 1
 784 684 l 21
 669.265625 682.305664062 545.011365245 606.846052658 555.295898438 461 c 0
 558.677497152 413.045191066 581.100585938 386.447265625 614 385 c 4
 662.357421875 382.873046875 648.147857261 447.357724458 637 458 c 9xf8
497 352 m 1
 442 333 l 1
 434 358 427 384 427 426 c 0
 428 512 510 553 571 553 c 0
 654 553 715 507 715 427 c 0
 715 349 618 309 618 309 c 1
 602 326 l 1
 636.051288152 347.130311028 650.883587155 377.105818001 651 417 c 0
 651.13422914 462.999749757 608 494 549 494 c 0
 502 494 469 452 469 409 c 0
 469 357 497 352 497 352 c 1
119 209 m 0
 118 124 203 45 388 45 c 0
 563 45 663.451154009 127.008854445 665 216 c 0
 666.775330903 318.004157759 539 348 442 333 c 1
 462 373 l 1
 607 402 740 331 736 193 c 0xf4
 731 29 564 -59 383 -59 c 0
 189 -59 38 33 40 180 c 0
 42 339 208 394 316 384 c 1
 287 345 l 1
 294 365 307.373046875 386.33203125 303 415 c 0
 294 474 239 505 171 490 c 0
 204 511 l 1
 149 409 l 1
 108 411 81.6005478023 436.013695057 83 471 c 0
 85 521 142 557 202 557 c 0
 272 557 344 517 346 439 c 0
 347 402 341 370 332 333 c 1
 208 351 120 287 119 209 c 0
EndSplineSet
Fore
Refer: 1 3508 S 1 0 0.139896 1 0 0 2
Colour: ffff00
EndChar

StartChar: si_Ttha
Encoding: 35 3496 31
GlifName: si_T_tha
Width: 0
Flags: HM
LayerCount: 2
Back
SplineSet
447 305 m 1
 464.684570312 392.088867188 408.3515625 448.735351562 311 440 c 1
 261 358 l 1
 231 361 207 378 207 415 c 0
 207 482 279 507 332 507 c 0
 412 507 487.65625 457.983398438 492 373 c 0
 494.56640625 322.791015625 488 304.083007812 481 282 c 1
 447 305 l 1
479.442382812 293 m 1
 453.442382812 305 415.467773438 291.521484375 382.442382812 290 c 0
 286.631835938 285.69921875 206.629882812 248.908203125 205.442382812 161 c 0
 204.799804688 113.450195312 247.28515625 71.2998046875 325 71 c 0
 391.03125 70.7548828125 447.442382812 111.124023438 447.442382812 205 c 1
 454.446289062 205.030273438 479.297851562 205.259765625 486 205.6796875 c 1
 486 108.375 550.194335938 71.36328125 605 71 c 0
 685.8515625 70.4794921875 736.901367188 143.420898438 741.442382812 317 c 0
 747.26953125 552.506835938 598.926757812 660.170898438 454.442382812 663 c 0
 313.016601562 665.685546875 223.5625 574 220.442382812 574 c 1
 187.442382812 625 l 0
 237.416015625 663.076171875 326.6796875 712.578125 445.442382812 712 c 0
 665.841796875 710.90234375 816.264648438 549.208007812 817.442382812 312 c 0
 818.178710938 149.983398438 765.995117188 -37.759765625 609 -41 c 0
 539.114257812 -42.470703125 483.245117188 -12.5888671875 463.442382812 51 c 1
 440.416992188 -17 371.322265625 -41.2734375 313 -41 c 0
 221.05859375 -40.5693359375 138.290039062 9.8798828125 134.442382812 128 c 0
 129.907226562 267.220703125 269.413085938 328.831054688 380.442382812 332 c 0
 452.442382812 334 469.442382812 319 469.442382812 319 c 1
 479.442382812 293 l 1
EndSplineSet
EndChar

StartChar: si_Dda
Encoding: 36 3497 32
GlifName: si_D_da
Width: 873
Flags: HMW
LayerCount: 2
Back
SplineSet
182.7890625 617.07421875 m 1
 151.092773438 677.413085938 l 1
 213.742146034 708.273373392 300.795694322 736.526279832 407.442382812 736 c 0
 666.066806821 734.807105655 824.011550953 569.886773006 825.442382812 312 c 0
 826.218000843 149.983398438 771.278805969 -37.6119217922 606 -41 c 0
 534.673885055 -42.470703125 477.653259367 -12.5888671875 457.442382812 51 c 1
 433.345633629 -17 361.035964911 -41.2595697902 300 -41 c 0
 202.909179688 -40.5693359375 113.434872152 9.87236579321 111.442382812 128 c 0
 109.146944111 264.088428637 241.437663144 341.288024422 348.442382812 342 c 0
 412.352495172 342.461538462 427.442382812 339 427.442382812 339 c 1
 437.442382812 313 l 1
 414.122795183 325 380.033947874 307.885306092 350.442382812 310 c 0
 259.503558661 316.317738614 183.01505552 245.279416021 182.442382812 167 c 4
 182.021394909 106.674237477 224.634868025 61.2450768942 303 61 c 0
 374.256037929 60.7548828125 436.442382812 101.124023438 436.442382812 195 c 1
 443.446289062 195.030273438 468.297851562 195.259765625 475 195.6796875 c 1
 475 98.375 540.157859231 59.2183612945 616 61 c 0
 701.006593559 63.07551542 763.506846543 162.636115313 759.442382812 338 c 0
 753.860609073 539.378806602 647.08391055 686.296056147 384.442382812 679 c 0
 294.152055003 676.27367156 224.183070698 642.521980831 182.7890625 617.07421875 c 1
32 348 m 1
 443 353 l 1
 438 303 l 1
 135 300 l 1
 31 285 l 1
 32 348 l 1
405 325 m 1
 422.684570312 412.088867188 366.3515625 468.735351562 269 460 c 1
 219 378 l 1
 189 381 165 398 165 435 c 0
 165 502 237 527 290 527 c 0
 370 527 445.656117918 477.983391686 450 393 c 0
 452.56640625 342.791015625 446 324.083007812 439 302 c 1
 405 325 l 1
EndSplineSet
Fore
SplineSet
17.263671875 234 m 1
 35.787109375 244 l 1
 60.7666015625 339 l 1
 134.791067058 352 307.098896555 362 414.971679688 362 c 0
 419.971679688 362 424.971679688 362 429.971679688 362 c 1
 428.395507812 351 l 1
 257.263906965 342 71.0878367761 267 17.263671875 234 c 1
75.1357421875 98 m 0
 80.0151788072 266.8203125 291.000486775 341.4565802 395.5 353 c 0
 404.552734375 354 418.5 353 426.447265625 352 c 1
 426.971679688 362 l 2
 430.119826001 422.03169135 384.29845502 462 328.211914062 462 c 0
 266.211914062 462 236.225585938 405 234.6484375 394 c 1
 229.596679688 393 225.596679688 393 220.596679688 393 c 0
 181.596679688 393 161.698823856 413.999918436 163.216796875 443 c 2
 163.478515625 448 l 1
 171.413085938 504 230.142578125 537 288.142578125 537 c 0
 415.142578125 537 467.70651283 446.850522799 460.8671875 360 c 0
 459.565429688 343.469371449 456.0390625 329.039328835 450.984375 315 c 1
 424.674804688 311.017578125 394.844759037 312.463060221 351.459960938 305 c 0
 262.864257812 288.789035927 153.944335938 250.469387755 139.756835938 138 c 1
 139.336914062 130 l 2
 136.817393546 88.0761279606 175.249023438 61.8734177215 225.197265625 61 c 1
 229.197265625 61 l 2
 379.197265625 61 422.490234375 162 449.525390625 239 c 1
 474.83984375 245 l 1
 472.315429688 235 470.791992188 225 470.3203125 216 c 0
 467.17578125 156 461.51171875 67 548.51171875 67 c 0
 651.946289062 67 739.333452049 197.170875156 747.342773438 350 c 0
 756.723632812 529 706.89553365 703.999344936 453.37109375 694 c 0
 328.209960938 689.063476562 236.016601562 630 234.016601562 630 c 1
 234.55432481 650.538685738 252.107256974 673.169732011 258.899414062 685 c 1
 305.314453125 712 395.1484375 747 488.1484375 747 c 0
 733.1484375 747 833.29164668 578.000018107 822.600585938 374 c 0
 811.486328125 161.924804688 696.042453926 -47 529.537109375 -47 c 0
 450.537109375 -47 406.943359375 18 412.7734375 72 c 1
 411.668945312 70 425.041395887 75.9691024526 423.877929688 74 c 0
 394.31640625 23.96875 322.641601562 -45 224.641601562 -45 c 0
 111.641601562 -45 72.7634239669 15.9217736484 75.1357421875 98 c 0
EndSplineSet
Colour: ffff00
EndChar

StartChar: si_Nna
Encoding: 38 3499 33
GlifName: si_N_na
Width: 1371
Flags: HMW
LayerCount: 2
Back
SplineSet
727 288 m 17x0ded
 724 392 784.025390625 450.725585938 856 453 c 0x0ded
 903.05859375 454.487304688 976.844726562 431.032226562 982 314 c 9
 967 308 l 0
 969 444 1067.06640625 484.982421875 1121 484 c 0
 1222.99902344 482.142578125 1288.26855469 407.076171875 1293 232 c 0
 1296 121 1249.10839844 -70.416015625 1103 -70 c 0
 976.787109375 -69.640625 939.198242188 10.25 942 161 c 1
 984 163 l 1
 985.353515625 54.419921875 1021.96191406 8.7109375 1091 9 c 0
 1159.08105469 9.28515625 1193.40429688 115.823242188 1192 212 c 0
 1190 349 1162.10644531 424.998046875 1092 426 c 0x8beb
 1045.96484375 426.658203125 998 354 1001 258 c 0
 941 258 l 0
 936 362 891.969726562 398.633789062 849 398 c 0
 812.415039062 397.459960938 757 370 757 269 c 1
 727 288 l 17x0ded
533.83984375 236.740234375 m 256
 533.83984375 277.330078125 505.860351562 310.540039062 465.26953125 310.540039062 c 256
 424.6796875 310.540039062 397.469726562 277.330078125 397.469726562 236.740234375 c 256
 397.469726562 196.150390625 426.6796875 165.940429688 457.26953125 165.940429688 c 256
 441.26953125 130.26953125 l 256
 392.23046875 130.26953125 353.030273438 178.76953125 353.030273438 237.809570312 c 256
 353.030273438 306.849609375 414.23046875 365.75 483.26953125 365.75 c 256
 558.309570312 365.75 599.509765625 311.549804688 599.509765625 252.509765625 c 256
 599.509765625 180.440429688 547.5390625 118.66015625 438.990234375 118.66015625 c 256x59f1
 291.98046875 118.66015625 175.1796875 199.690429688 175.1796875 339.48046875 c 256
 175.1796875 508.790039062 314.41015625 599.049804688 466.1796875 599.049804688 c 256
 663.349609375 599.049804688 756.700195312 458.629882812 756.700195312 265.83984375 c 256
 756.700195312 146.530273438 678.240234375 -58 442.509765625 -58 c 256
 229.719726562 -58 222.080078125 103.91015625 94.91015625 103.91015625 c 256
 61.7001953125 103.91015625 43.08984375 84.919921875 27.259765625 70.7001953125 c 257
 1.4296875 100.219726562 l 257
 220.334960938 287.590820312 576.352539062 566.549804688 819.969726562 739.549804688 c 256
 854.5703125 692.969726562 l 256
 669.614257812 572.169921875 297.568359375 289.106445312 133.360351562 145.889648438 c 257
 207.16015625 145.889648438 258.700195312 39.330078125 445.66015625 39.330078125 c 256
 613.580078125 39.330078125 690.280273438 148.669921875 690.280273438 274.129882812 c 256x69f1
 690.280273438 441.059570312 605.780273438 538.299804688 465.719726562 538.299804688 c 256
 339.940429688 538.299804688 229.620117188 451.73046875 229.620117188 345.629882812 c 256
 229.620117188 183.500976562 397.005859375 169.310546875 463 168 c 256
 495.0546875 167.36328125 533.83984375 182.913085938 533.83984375 236.740234375 c 256
EndSplineSet
Fore
SplineSet
16.3017578125 63 m 261
 299.887538947 264.984375 882.63067309 679.534179688 1102.921875 819 c 261
 1106.05273438 813.54296875 1110.86914062 779.647460938 1108.88183594 761 c 261
 937.067057594 651.348632812 328.863493015 247.262695312 117.083984375 97 c 261
 278.079429463 147 276.784284383 44.4086407924 432.987304688 57 c 260
 626.909179688 72.6318359375 720.29966144 234.70020282 727.390625 370 c 4
 732.322265625 464.098632812 658.956246097 537.578429453 523.985351562 534 c 260
 386.373899537 530.3515625 298.993284659 419.908583253 293.35546875 293 c 4
 288.201954555 176.993164063 359.752491084 162.539567231 404.594726562 164 c 4
 472.173086189 166.200908358 528.729063816 232.073695485 534.198242188 310 c 4
 536.837015497 327.5 518.288612354 338.605111582 484.713867188 338 c 260
 454.794766973 336.844726563 435.388788133 293.478475412 432.315429688 235 c 4
 430.271484375 196 440.490234375 162 457.490234375 162 c 261
 454.442382812 142 l 261
 408.69140625 141.65234375 374.057046254 194.962637756 380.573242188 259 c 260
 387.713420035 329.169491525 457.036591192 397.565834373 522.7578125 397 c 260
 573.686523438 396.561523438 604.009269577 357.305768002 598.250976562 311 c 260
 586.327316066 215.114942529 502.807697252 117 394.131835938 117 c 260
 287.313826297 117 211.809786297 165.10396112 217.883789062 264 c 4
 229.502509963 453.174341575 393.165973631 576.735435313 562.134765625 575 c 260
 712.364257812 573.45703125 814.635642752 459.916844998 784.779296875 282 c 260
 768.783203125 186.677734375 675.798828125 -42 388.798828125 -42 c 260
 227.908715971 -42 205.238393449 63 112.301757812 63 c 260
 84.3017578125 63 66.3056640625 44 50.572265625 30 c 261
 32.9912109375 38 22.7255859375 52 16.3017578125 63 c 261
746.666015625 318 m 5
 763.584960938 387 839.21462619 487.827277441 946.469726562 486 c 4
 1010.15332031 484.915039062 1054.04199219 423.828125 1042.60449219 355 c 5
 1008.92773438 323 l 5
 1039.43066406 428 1129.46972656 486 1197.46972656 486 c 4
 1273.46972656 486 1328.58789062 431 1321.66992188 299 c 4
 1320.56933594 278 1317.36746193 253.99328674 1313.00097656 229 c 4
 1288.71679688 90 1213.06149711 -53.4095322711 1056.85546875 -60 c 4
 972.556640625 -63.556640625 912.5625 10.345703125 930.91796875 132 c 5
 940.91796875 132 963.6953125 132 980.91796875 132 c 5
 979.341796875 121 977.813290587 109.99733523 977.241210938 100 c 4
 973.083007813 27.3336314995 1019.00390625 -9 1065.00390625 -9 c 4
 1177.72265625 -9 1222.60197631 105.831796693 1233.21972656 195 c 4
 1235.00585938 210 1236.84439926 225.999965958 1237.578125 240 c 4
 1243.08105469 345 1217.65820312 415 1166.74902344 415 c 4
 1075.21875 415 1026.69140625 322 1018.84375 226 c 5
 998.77734375 221.775390625 959.622070312 220.981445312 933.686523438 223 c 5
 975.725585938 319.959960938 986.44921875 444 908.26953125 444 c 4
 872.146484375 444 801.994140625 415 780.521484375 258 c 5
 750.1484375 258 749.043945312 258 746.666015625 318 c 5
EndSplineSet
Colour: ffff00
EndChar

StartChar: si_Tha
Encoding: 41 3502 34
GlifName: si_T_ha
Width: 770
Flags: HMW
LayerCount: 2
Back
SplineSet
432.442382812 53 m 0
 606.903057197 53.3704637965 698 160.372262774 698 346 c 0
 698 548.711039482 539.286272538 641.901776851 405.504882812 668.212890625 c 0
 359.70476176 677.881634396 356.819335938 669.996182698 315 663 c 1
 316 731 l 1
 641.057046308 730.21331936 760 516.808403201 760 311 c 0
 760 91.0389972145 629.969726562 -56.3818359375 431.442382812 -59 c 0
 238.44921875 -60.677734375 128.573242188 38.0029296875 125.442382812 176 c 0
 122.153320312 320.966796875 244.427734375 394.418945312 355.442382812 398 c 0
 417.442382812 400 457.442382812 379 457.442382812 379 c 1
 443.442382812 334 l 1
 417.442382812 346 383.442382812 352 350.442382812 350 c 0
 280.369140625 345.8515625 207.5546875 302.787109375 206.442382812 218 c 0
 205.442382812 140.005859375 269.440429688 52.2841796875 432.442382812 53 c 0
336.81640625 671.124023438 m 1
 408 680 l 1
 406.842411748 652.9199701 442.176652403 567.054609442 482 549 c 0
 558.103687328 516.365234375 597.165650755 581.057617188 654 533 c 1
 671 500 l 1
 602.136145356 518.925781249 551.493716699 455.291092093 460 485.301757812 c 0
 369.477344724 516.791841306 390.422138226 651.103124612 336.81640625 671.124023438 c 1
EndSplineSet
Fore
SplineSet
506.213867188 513.681640625 m 4
 409.147460938 539.439453125 353.200195312 649.467773438 362.78125 730.90625 c 0
 372.063476562 809.805664062 414.348632812 818.330078125 414.348632812 818.330078125 c 1
 463.21484375 788.64453125 l 2
 463.21484375 788.64453125 420.931640625 763.020507812 414.973632812 712.3828125 c 0
 409.131835938 662.725585938 438.678710938 580.38671875 528.39453125 567.890625 c 4
 587.833984375 559.611328125 622.977539062 612.74609375 622.977539062 612.74609375 c 5
 613.095703125 545.068359375 597.373046875 489.491210938 506.213867188 513.681640625 c 4
33.17578125 156 m 0
 47.7021484375 348.98046875 251.775251306 437 360.90234375 437 c 0
 369.90234375 437 379.90234375 437 387.849609375 436 c 1
 401.004882812 422.372070312 406.736328125 394.943359375 396.443359375 371 c 1
 371.653320312 375 346.810546875 378 320.810546875 378 c 0
 222.374023438 378 102.408998692 313.123107539 96.7431640625 205 c 0
 91.974609375 114 171.168943501 60.4545034316 292.197265625 61 c 0
 514.065429688 62 668.999496015 228.951147108 680.112304688 441 c 0
 687.7686008 587.093472495 589.1875 742.255859375 433 756.772460938 c 1
 417.063476562 758.25390625 400.422851562 759 383.109375 759 c 0
 412.1484375 817 l 0
 419.51171875 817 426.796875 816.801757812 434 816.408203125 c 1
 607.775390625 806.904296875 743.145402505 613.363569347 732.225585938 405 c 0
 718.196289062 137.303710938 542.195362592 -49 290.431640625 -49 c 0
 289.431640625 -49 288.431640625 -49 287.431640625 -49 c 0
 120.431640625 -49 24.5318705921 41.1670270296 33.17578125 156 c 0
EndSplineSet
EndChar

StartChar: si_Da
Encoding: 42 3503 35
GlifName: si_D_a
Width: 581
Flags: HMW
LayerCount: 2
Back
SplineSet
522.090820312 -389.28125 m 1
 378.530373101 -403.743447527 319.747727744 -298.663764651 316 -231 c 0
 313.306446925 -146.36113579 369.129126603 -34.4345549738 509 16 c 1
 521 18.3333333333 529 -0.333333333333 493 2 c 1
 253.507047455 -90.266304348 38.8990241606 -4.33743479325 41 165 c 0
 42.920134029 319.761689701 205.887780243 393.121276769 397 394 c 0
 456.002656031 394.271290892 499 385 499 385 c 1
 499 387.5 488.35483871 375.5 488 378 c 1
 491.6 475 373 506 318 498 c 1
 262 409 l 1
 216 412 195.556400279 452.11432106 205 488 c 0
 220 545 273 571 336 571 c 0
 408 571 505.999756248 527.999959374 520 444 c 0
 529.095703125 389.426757812 513 345 513 345 c 1
 513 343 l 1
 273.457943925 364.492537313 162.53640311 306.422797877 152 199 c 0
 138.348469327 59.8172442854 303.229691877 -31.3035254506 549 57 c 1
 565 23 l 1
 471.777773007 -18.2758620689 425.560782656 -95.5255334909 414 -148 c 0
 398.929426609 -208.849269955 393.438884232 -324.783592054 545.358398438 -359.80859375 c 1
 522.090820312 -389.28125 l 1
EndSplineSet
Fore
SplineSet
221.841796875 -232 m 0
 230.159179688 -108.799804688 376.360351562 -12.62109375 450.043945312 39 c 1
 459.991210938 38 469.678710938 47.6181640625 479.358398438 45 c 0
 484.469726562 43.6181640625 488.1484375 41 493.043945312 39 c 1
 448.256835938 22.7626953125 313.05859375 -113.362304688 308.465820312 -201 c 0
 304.797851562 -271 321.653320312 -331 396.653320312 -331 c 0
 381.395507812 -355 l 0
 262.395507812 -355 218.64453125 -293 221.841796875 -232 c 0
68.5029296875 105 m 4
 78.8904148022 303.266067909 260.17629025 372.140241416 503.38671875 399 c 4
 507.972290519 399.506422983 504.858398438 408 505.068359375 412 c 0
 508.526367188 478 468.990234375 515 419.990234375 515 c 2
 415.990234375 515 l 1
 372.884765625 513 322.526367188 468 306.377929688 427 c 1
 302.326171875 426 297.326171875 426 292.326171875 426 c 0
 261.326171875 426 224.1640625 442 226.155273438 480 c 0
 229.614257812 546 305.763671875 587 362.763671875 587 c 0
 513.563476562 587 573.47265625 495.66015625 528.290039062 359 c 1
 528.23828125 358 l 1
 342.885302013 346.637177733 180.00260188 332.99684366 169.65625 137 c 0
 166.176713149 58.2710280374 217.04512857 20 288.047851562 20 c 0
 370.047851562 20 465.8828125 55 531.188476562 99 c 1
 528.987304688 57 530.877929688 74 518.568359375 49 c 1
 474.572265625 30 384.588867188 -46 289.588867188 -46 c 0
 161.588867188 -46 62.530276976 -9.00010252965 68.5029296875 105 c 4
EndSplineSet
Colour: ff00
EndChar

StartChar: si_Dha
Encoding: 43 3504 36
GlifName: si_D_ha
Width: 883
Flags: HMW
LayerCount: 2
Back
SplineSet
386 284 m 5
 250.503597122 301.379310345 123.466247874 252.459206919 128 158 c 4
 131.068944452 87.7909007353 219.271735546 45.1571471554 365 46 c 4
 558.999747213 47.1220420377 667 174.791108795 667 339 c 4
 667 547.71874417 557.941173041 679.712552472 342 677 c 4
 219.063691057 675.455731327 132.310705627 606 129 606 c 5
 97 660 l 5
 139.236417611 688.125 219.378877917 735.634192064 358 735 c 4
 565.816845959 734.018099283 730 582.319357855 730 331 c 4
 730 111.353515625 598.414766771 -48.5793000132 375 -58 c 4
 192.556677605 -65.2548684968 49.349757601 8.03433236137 46 137 c 4
 42.243902439 299.324324324 239.43902439 339.378378378 354 332 c 5
 354 402 304 438 212 438 c 5
 186 357 l 5
 135 350 100.76031191 378.857746694 109 425 c 4
 119 481 177 500 224 500 c 4
 300 500 389.99945787 462.999979147 394 359 c 4
 395.383789062 323.026367188 386 284 386 284 c 5
EndSplineSet
Fore
SplineSet
55.1357421875 148 m 0
 60.3197968475 369.783547794 284.47669327 467.835115165 395.5 483 c 0
 425.960550694 486.364790066 429.546175482 491.848092213 460.8671875 490 c 1
 459.565429688 473.469371449 456.0390625 459.039328835 450.984375 445 c 1
 424.674804688 434.645703125 394.844759037 438.403956576 351.459960938 419 c 0
 254.494451923 396.576450893 135.284656256 343.571428571 119.756835938 188 c 0
 115.990060467 106.216037544 164.913448235 61 249.197265625 61 c 0
 371.965154427 61 407.398396917 162 429.525390625 239 c 1
 454.83984375 245 l 1
 452.315429688 235 450.791992188 225 450.3203125 216 c 0
 446.371464919 156 439.258633872 67 548.51171875 67 c 0
 657.148422626 67 748.930631604 197.170875156 757.342773438 350 c 0
 767.361847989 529 714.143755667 703.999344936 443.37109375 694 c 0
 318.209960938 689.063476562 226.016601562 630 224.016601562 630 c 1
 224.55432481 650.538685738 242.107256974 673.169732011 248.899414062 685 c 1
 295.314453125 712 385.1484375 747 478.1484375 747 c 0
 737.799262806 747 843.930964489 578.000018107 832.600585938 374 c 0
 821.107084081 161.924804688 701.723999321 -47 529.537109375 -47 c 0
 437.0055034 -47 385.94474773 18 392.7734375 72 c 1
 391.668945312 70 405.041395887 75.9691024526 403.877929688 74 c 0
 380.251372773 23.96875 322.966474858 -45 244.641601562 -45 c 0
 101.408672774 -45 52.1287148711 37.2230931059 55.1357421875 148 c 0
EndSplineSet
EndChar

StartChar: si_Nda
Encoding: 45 3507 37
GlifName: si_N_da
Width: 692
Flags: HMW
LayerCount: 2
Fore
SplineSet
58.8046875 159 m 4
 70.5686857512 379.246053145 230.251879123 589 472.33984375 589 c 4
 517.503105818 589 557.509339534 574.206896552 580.8203125 556 c 5
 568.513671875 525 l 5
 565.467537 533.273851755 508.021677396 531.795346706 489.3046875 531 c 4
 292.81898956 536.799679101 111.222443674 364.693044966 101.32421875 168 c 5
 98.0742015567 21 145.104492188 -27 145.104492188 -27 c 5
 129.48828125 -56 l 5
 99.3833215794 -32.2127659574 52.540394401 44.7550372152 58.8046875 159 c 4
EndSplineSet
Refer: 35 3503 S 1 0 0 1 100 0 2
EndChar

StartChar: si_Pha
Encoding: 47 3509 38
GlifName: si_P_ha
Width: 0
Flags: HM
LayerCount: 2
Back
SplineSet
336.81640625 671.124023438 m 1
 408 680 l 1
 406.842411748 652.9199701 442.176652403 567.054609442 482 549 c 0
 558.103687328 516.365234375 597.165650755 581.057617188 654 533 c 1
 671 500 l 1
 602.136145356 518.925781249 551.493716699 455.291092093 460 485.301757812 c 0
 369.477344724 516.791841306 390.422138226 651.103124612 336.81640625 671.124023438 c 1
405.504882812 668.212890625 m 0
 359.70476176 677.881634396 356.819335938 669.996182698 315 663 c 1
 316 731 l 1
 641.057046308 730.21331936 760 516.808403201 760 311 c 0
 760 91.0389972145 639.969813788 -50.3820154111 450 -58 c 0
 241.291028787 -65.8599509371 126.364332992 17.8013347216 123 121 c 0
 118.614471687 269.0700682 271.970703125 309.060546875 385 303 c 5
 378 375.333007812 330 419 262 408 c 5
 236 327 l 1
 189.63671875 320 158.509765625 348.857421875 166 395 c 0
 175.391601562 451 229.861328125 470 274 470 c 0
 340 470 419.999023438 443 424 339 c 0
 425.383789062 303.026367188 416 252 416 252 c 1
 288.25 268.000976562 195.34375 233.91015625 196 156 c 4
 196.540039062 85.6572265625 290.048202864 50.9382715874 434 52 c 0
 606.9035995 53.3002457237 698 160.372262774 698 346 c 0
 698 548.711039482 539.286272538 641.901776851 405.504882812 668.212890625 c 0
EndSplineSet
EndChar

StartChar: si_Ba
Encoding: 48 3510 39
GlifName: si_B_a
Width: 808
Flags: HMW
LayerCount: 2
Back
SplineSet
518.849609375 48.986328125 m 4
 622.232421875 83.3623046875 689.341796875 189.591796875 695.22265625 348 c 4
 702.947265625 556.064453125 550.6953125 639.040039062 351.584960938 639.040039062 c 4
 226.989257812 639.040039062 143.92578125 580 141.952148438 580 c 4
 131.401367188 587.749023438 141.803710938 646.360351562 156.536132812 675 c 5
 199.16015625 703.311523438 269.126953125 727.006835938 361.013671875 727.006835938 c 4
 563.500976562 727.006835938 747.381835938 581.2890625 749.663085938 324 c 4
 751.688476562 95.6103515625 676.025390625 -54.0009765625 499.931640625 -59.4921875 c 4
 389.778320312 -62.9267578125 356.350585938 7.5888671875 359.072265625 85.505859375 c 4
 361.594726562 157.729492188 407.6328125 252.04296875 484.565429688 282.615234375 c 5
 465.30078125 314.365234375 384.03125 344.3125 300.508789062 337.40234375 c 4
 194.69921875 328.647460938 126.611328125 289.654296875 114.803710938 188.993164062 c 4
 109.081054688 140.208984375 115.118164062 58.3369140625 149.205078125 41.556640625 c 5
 144.091796875 51.6796875 136.036132812 14.0947265625 131.9921875 26.935546875 c 4
 113.98828125 84.0986328125 148.8203125 161.697265625 229.0859375 161.697265625 c 4
 275.365234375 161.697265625 316.87109375 117.247070312 314.560546875 51.1015625 c 4
 312.744140625 -0.927734375 281.561523438 -58.7978515625 200.681640625 -58.7978515625 c 4
 101.057617188 -58.7978515625 65.9287109375 28.3408203125 62.8095703125 121.451171875 c 4
 57.90234375 267.930664062 156.170898438 424.862304688 343.969726562 434.862304688 c 4
 514.483398438 443.94140625 575.474609375 319.762695312 569.184570312 220 c 5
 561 210 l 5
 481.80859375 198.239257812 415.869140625 156.321289062 406.8671875 101.16015625 c 4
 393.624023438 20.0087890625 491.495117188 39.890625 518.849609375 48.986328125 c 4
201.8203125 1.7373046875 m 5
 241.54296875 2.9658203125 260.951171875 35.5673828125 261.880859375 62.185546875 c 4
 263.036132812 95.2607421875 243.869140625 120.946289062 212.168945312 120.946289062 c 4
 186.655273438 120.946289062 161.754882812 101.223632812 160.454101562 63.958984375 c 4
 159.638671875 40.59375 171.802734375 12.5498046875 201.8203125 1.7373046875 c 5
EndSplineSet
Fore
SplineSet
57.6513671875 146 m 0
 73.0947265625 343.836914062 208.126953125 479.301757812 366.260742188 482 c 1
 371.260742188 482 l 2
 496.260742188 482 558.120117188 403 553.3515625 312 c 0
 552.984375 305 551.6171875 298 550.250976562 291 c 5
 502.573242188 288.805664062 436.530273438 242.935546875 428.280273438 158 c 0
 425.921875 113 456.983398438 76 529.983398438 76 c 2
 531.983398438 76 l 5
 668.03515625 77 753.892578125 246 766.971679688 362 c 0
 768.443359375 371 768.862304688 379 769.333984375 388 c 0
 779.134765625 575 653.008789062 668 447.008789062 668 c 0
 322.008789062 668 229.811523438 607 226.811523438 607 c 0
 223.811523438 607 223.283203125 616 223.544921875 621 c 0
 224.698242188 643 239.846679688 684 256 706 c 1
 302.467773438 734 374.724609375 758 466.724609375 758 c 0
 668.724609375 758 833.493164062 620 820.7578125 377 c 0
 809.041015625 153.439453125 697.2421875 -30.763671875 527.323242188 -32 c 5
 523.323242188 -32 l 2
 400.323242188 -32 364.515625 48 368.184570312 118 c 0
 378.084960938 236.196289062 453.623046875 303.01171875 515.508789062 315 c 5
 520.818359375 340 451.705078125 376 336.7578125 377 c 1
 334.7578125 377 l 2
 227.7578125 377 120.61328125 317 107.009765625 191 c 0
 106.852539062 188 105.6953125 185 105.538085938 182 c 0
 101.450195312 104 156.830078125 54 189.462890625 47 c 1
 161.676757812 32 l 1
 158.462890625 47 157.197265625 61 157.983398438 76 c 0
 161.232421875 138 198.32421875 197 267.32421875 197 c 0
 309.32421875 197 343.751953125 167 340.817382812 111 c 0
 334.326171875 31.94921875 280.036132812 -37.0107421875 217.008789062 -38 c 0
 93.0087890625 -38 52.568359375 49 57.6513671875 146 c 0
193.6640625 89 m 0
 192.51171875 67 202.568359375 49 231.568359375 49 c 2
 233.568359375 49 l 1
 263.620117188 50 282.7734375 72 287.188476562 99 c 1
 287.607421875 107 l 2
 289.022460938 134 270.651367188 146 248.651367188 146 c 0
 222.651367188 146 200.813476562 130 195.188476562 99 c 0
 195.03125 96 193.821289062 92 193.6640625 89 c 0
EndSplineSet
Colour: ffff00
EndChar

StartChar: si_Bha
Encoding: 49 3511 40
GlifName: si_B_ha
Width: 993
Flags: HMW
LayerCount: 2
Back
SplineSet
23 373 m 5
 402 372 l 5
 397 331 l 5
 106 326 l 5
 22 308 l 5
 23 373 l 5
EndSplineSet
Refer: 47 3524 S 1 0 0 1 58 0 2
Fore
SplineSet
41.416015625 254 m 5
 66.3955078125 349 l 5
 138.68444513 367.652173913 291.900608869 382 395.600585938 382 c 2
 411.600585938 382 l 1
 400.814453125 367 l 1
 233.030133509 357.126213592 107.103491991 290.203883495 54.416015625 254 c 5
 41.416015625 254 l 5
EndSplineSet
Refer: 47 3524 N 1 0 0 1 20 0 2
EndChar

StartChar: si_Ma
Encoding: 50 3512 41
GlifName: si_M_a
Width: 808
Flags: HMW
LayerCount: 2
Back
SplineSet
524.891601562 359.010742188 m 4
 456.94921875 290.022460938 321.486328125 335.688476562 321.29296875 432 c 4
 321.17578125 490.227539062 366.112304688 554 455.599609375 554 c 4
 523.33984375 554 582.448242188 500.404296875 581.577148438 401.115234375 c 4
 580.694335938 300.477539062 498.490234375 211.73046875 376.015625 208.986328125 c 4
 261.750976562 206.426757812 206.807617188 281.86328125 200.357421875 347.005859375 c 5
 168.408203125 334.094726562 130.31640625 285.344726562 130.407226562 213.059570312 c 4
 130.5703125 123.931640625 220.201171875 80.4755859375 360.849609375 80.986328125 c 4
 567.772460938 81.7490234375 701.379882812 203.502929688 707.22265625 368 c 4
 715.336914062 589.1484375 573.952148438 669.040039062 373.584960938 669.040039062 c 4
 248.989257812 669.040039062 165.54296875 608.83203125 163.952148438 610 c 4
 153.401367188 617.749023438 163.803710938 676.360351562 178.536132812 705 c 5
 221.16015625 733.311523438 291.126953125 757.006835938 383.013671875 757.006835938 c 4
 596.002929688 757.006835938 781.587890625 609.374023438 771.663085938 354 c 4
 763.022460938 125.610351562 634.04296875 -39.4921875 381.931640625 -39.4921875 c 4
 159.048828125 -39.4921875 72.701171875 75.2392578125 72.8330078125 181 c 4
 72.9697265625 311.447265625 153.61328125 421.848632812 268 458 c 5
 283 445 l 5
 248.681640625 289.020507812 318.494140625 252.758789062 364.834960938 252.998046875 c 4
 482.995117188 253.607421875 521.721679688 376.596679688 520.569335938 438.48046875 c 4
 519.911132812 474.965820312 492.274414062 510.469726562 450.817382812 510.001953125 c 4
 416.831054688 509.619140625 395.14453125 479.884765625 398 445 c 4
 401.815429688 398.392578125 466.814453125 376.388671875 522.03125 382.051757812 c 5
 524.891601562 359.010742188 l 4
EndSplineSet
Fore
SplineSet
42.7392578125 224 m 4
 53.5087890625 364.982421875 144.111328125 476.94921875 253.836914062 493 c 5
 255.631835938 470 l 5
 251.374023438 446 248.2734375 425 247.225585938 405 c 4
 243.096679688 326.228515625 303.3984375 283 377.831054688 283 c 4
 378.831054688 283 379.831054688 283 380.831054688 283 c 4
 492.883789062 284 542.547851562 373 545.116210938 422 c 4
 547.533203125 468.125 509.833007812 512 445.833007812 512 c 6
 443.833007812 512 l 5
 389.771484375 510.821289062 354.350585938 483.713867188 352.374023438 446 c 4
 350.131835938 421.120117188 382.110351562 403.424804688 415.120117188 403 c 4
 452.120117188 403 504.116210938 422 544.631835938 470 c 5
 562.421875 466 l 5
 531.390625 370 453.028320312 344 415.028320312 344 c 4
 343.028320312 344 316.333984375 388 319.006835938 439 c 4
 319.216796875 443 319.426757812 447 319.635742188 451 c 4
 327.813476562 504 378.477539062 564 460.557617188 564 c 4
 533.426757812 564 597.134765625 514 595.063476562 421 c 5
 594.697265625 414 l 6
 589.403320312 313 505.110351562 212 378.110351562 212 c 6
 377.110351562 212 l 5
 254.272460938 213.274414062 203.31640625 292.260742188 208.858398438 398 c 4
 209.434570312 409 210.01171875 420 212.587890625 431 c 5
 181.521484375 426.880859375 102.293945312 349.065429688 96.9443359375 247 c 4
 91.044921875 134.43359375 195.369140625 72 330.7734375 72 c 6
 332.7734375 72 l 5
 564.896484375 73.125 734.974609375 209.416992188 745.3828125 408 c 4
 755.40625 599.263671875 634.234375 721 420.26171875 711 c 4
 295.681640625 705.177734375 194.755859375 634 191.2265625 634 c 4
 189.2265625 634 188.122070312 632 188.331054688 636 c 4
 189.302734375 654.529296875 217.043945312 690.706054688 248.26171875 711 c 5
 290.798828125 735.23046875 356.150390625 752.319335938 439.620117188 756 c 4
 666.390625 766 804.904296875 627.845703125 793.330078125 407 c 4
 779.14453125 138.846679688 586.810546875 -43 332.74609375 -43 c 4
 117.534179688 -43 36.369140625 102.447265625 42.7392578125 224 c 4
EndSplineSet
EndChar

StartChar: si_Mba
Encoding: 51 3513 42
GlifName: si_M_ba
Width: 0
Flags: HM
LayerCount: 2
Back
SplineSet
597 -43 m 0xff60
 761.851485149 -41 817.880749716 187.713671898 819 312 c 0
 821.054551587 534.413860369 692.178998331 742.052103559 421 743 c 0
 250.756276646 743.595080815 128 657 128 657 c 0
 163 600 l 1
 166.27734375 600 258.401202386 680.519648197 399 682 c 0
 673.923632715 684.894645633 753.829143728 523.159785502 748 304 c 0
 745.170304818 197.611237256 692.625991829 64.2781202206 599 56 c 0
 536.401869691 50.465267196 492.691975121 77.6491730976 489 124.466796875 c 1
 501.262695312 146.536790725 531 164.547593046 531 206 c 0
 531 242 491.504254388 271.467014931 418 273 c 0
 352.211358432 274.372070312 312.843299123 239.598097303 312 203 c 0xff60
 311.123046875 164.941362289 335.201171875 139.362866282 356 125.828125 c 1
 340.003334389 74.0218143353 303.868193132 53.3975098481 241 54 c 0
 155.410986713 54.8202325381 109.31206938 135.806800311 109 224 c 0
 108.632970801 327.725266016 149.483604132 407.180774664 217 408 c 0
 254.053710938 408.716796875 261 372 261 328 c 0
 261 285.50031031 304.366310436 225.834038474 428 226 c 0
 534.698830726 226.143228765 583.729416607 293.74091511 587 354 c 0
 591.743667368 441.400020205 525.270718149 503 448 503 c 0
 362.710280374 503 330.349131127 438.459651638 331 402.856445312 c 0
 332.15625 339.608364103 375.82141263 312.761478916 416 312 c 0
 500.056640625 310.406928571 518.451171875 406.666173549 492 458.561523438 c 1
 450 463.561523438 l 1
 481.7578125 423.357421875 465.637222213 363.992928269 419 363.561523438 c 0
 384.101856843 363.238707736 370.623148272 390.029294961 371 410 c 0xfee0
 371.453125 434.012695312 393.834825975 463.27065728 432 463 c 0
 514.059258643 462.418057528 538.923665324 395.857075413 536 349 c 0
 534.071958188 318.099609375 507.94894985 271.489735219 418 273 c 0
 349.775390625 274.145507812 307.819335938 297.576171875 307.819335938 350 c 0
 307.819335938 420.991210938 269.293034769 457.533885084 222 456 c 0
 125.485582854 453.467874461 37.7833728699 346.631898067 41 194 c 4
 42.8230803571 99.0185546873 84.5977425573 -40.3914984207 235 -42 c 0
 336.57584059 -43.2231276495 391.121398891 19.1801242236 402 149 c 1
 402.505859375 149.758789062 367.355038303 167.224177936 368 196 c 0
 368.675659226 226.145433074 424.233364173 225.386744585 427 225 c 1
 429.521875 224.618200231 474.328082939 218.845180075 475 196 c 0
 476 162 442.427734375 148.142578125 443 149 c 1
 438 15.7407407407 510.234365621 -44.0526521408 597 -43 c 0xff60
EndSplineSet
EndChar

StartChar: si_Ya
Encoding: 52 3514 43
GlifName: si_Y_a
Width: 855
Flags: HMW
LayerCount: 2
Back
SplineSet
468 366 m 1xfe
 600.233398438 410.743164062 765 353.65625 765 178 c 0
 765 41.892578125 684.30859375 -53 556 -53 c 0
 447.377929688 -53 382.90234375 13 381 108 c 1
 379 105 414 111 412 108 c 1
 405.076171875 27 349.11328125 -51.3505859375 230 -52 c 0
 83.0166015625 -52.837890625 1.7109375 49.0859375 1 178 c 0
 0.2578125 339.895507812 112.061523438 459.76953125 244 464 c 0
 270.005859375 464.833984375 297 463 321 453 c 1
 312 388 l 5
 279.174804688 402.400390625 253.995117188 404.036132812 211 401 c 4
 142.515625 396.028320312 61.4423828125 344.875976562 63 219 c 0
 64.1357421875 124.959960938 128.778320312 62.5048828125 226 61 c 0
 305.499023438 59.796875 373.727539062 93 376 197 c 1
 412 197 l 1
 412 100 482.93359375 56 564 56 c 0
 668.220703125 56 703.889648438 116.850585938 705 188 c 0xfd
 706.196289062 267.428710938 645.7734375 384.211914062 448 321 c 1
 443 349.743164062 440.703125 349.853515625 439 380 c 0
 429.584960938 484.619140625 513.388671875 548.891601562 600 549 c 0
 671.205078125 549.086914062 737 514 737 434 c 0
 737 338 644 312 644 312 c 1
 618 329 l 1
 618 329 669.208984375 342.997070312 670 402 c 0
 670.643554688 449.994140625 619.1015625 479.125 575 479 c 0
 524.106445312 478.870117188 478.543945312 453 473 401 c 0
 469 355 486 339 486 339 c 1
 468 366 l 1xfe
EndSplineSet
Fore
SplineSet
787.41796875 485 m 0
 784.829101562 435.600585938 747.4296875 404.465820312 708.439453125 390 c 1
 755.12890625 365 778.577148438 319 774.944335938 247 c 0
 765.791992188 65.29296875 639.295898438 -10 522.475585938 -10 c 0
 456.841796875 -10 423.510742188 56.0068359375 430.075195312 135 c 1
 388.236328125 56.69140625 314.952148438 -25.73828125 206.37109375 -12 c 0
 100.98828125 -0.6298828125 54.955078125 75.466796875 61.271484375 196 c 0
 69.9853515625 362.256835938 209.4296875 515.887695312 422.094726562 517 c 1
 426.916992188 508.59375 429.169921875 499.34765625 428.575195312 488 c 0
 428.3125 483 427.05078125 478 425.736328125 472 c 1
 266.966796875 472 137.873046875 398.286132812 119.053710938 230 c 0
 110.588867188 145.524414062 160.020507812 95.6533203125 243.821289062 92 c 0
 328.33203125 88.806640625 402.275390625 146.521484375 433.46875 257 c 1
 459.783203125 263 l 1
 458.364257812 255 455.997070312 248 455.629882812 241 c 0
 451.0078125 152.799804688 492.955078125 107.231445312 550.29296875 101 c 0
 650.000976562 91 727.749023438 147.854492188 733.1015625 250 c 0
 737.4921875 333.767578125 673.700195312 373 601.547851562 373 c 0
 556.680664062 373 511.458984375 366.25 467.604492188 355 c 1
 474.146484375 479.819335938 567.239257812 577 678.239257812 577 c 0
 746.239257812 577 790.038085938 535 787.41796875 485 c 0
642.623046875 508 m 0
 583.43359375 508 523.047851562 458.319335938 513.439453125 390 c 1
 505.543945312 392 l 1
 531.434570312 409 567.854492188 417 604.854492188 417 c 0
 631.854492188 417 657.64453125 413 680.225585938 405 c 1
 698.90625 418 703.112304688 441 703.741210938 453 c 0
 705.41796875 485 678.623046875 508 642.623046875 508 c 0
EndSplineSet
Colour: ff00
EndChar

StartChar: si_La
Encoding: 54 3517 44
GlifName: si_L_a
Width: 852
Flags: HMW
LayerCount: 2
Back
SplineSet
293 341 m 1
 381.666992188 336.596679688 470.333007812 339.290039062 559 341 c 1
 559 294 l 1
 293 294 l 1
 293 341 l 1
558 295 m 1
 485.709960938 295 475 262 475 239 c 0
 475 191.264648438 533.000976562 166.736328125 583 168 c 0
 668.5859375 170.1640625 719 218.852539062 719 300 c 0
 719 409.952148438 618.522460938 509.96875 444 510 c 0
 247.467773438 510.034179688 122.024414062 333.000976562 115 145 c 0
 107.534179688 -54.8193359375 218.090820312 -214.833984375 420 -232 c 4
 576.39453125 -245.295898438 682.364257812 -168.98046875 728 -115 c 0
 774 -172 l 0
 731.173828125 -220.060546875 603.452148438 -297.584960938 427 -294 c 0
 176.676757812 -288.915039062 4.7578125 -139.141601562 4 89 c 0
 3.064453125 370.686523438 201.869140625 564 451 564 c 0
 670.543945312 564 787 422 787 296 c 0
 787 155.9453125 700 83 580 83 c 0
 452.512695312 83 405.00390625 152.776367188 404 213 c 0
 403 273 446 323 486 327 c 1
 558 295 l 1
EndSplineSet
Fore
SplineSet
36.51171875 67 m 0
 49.51171875 315.061523438 258.887695312 562.979492188 533.557617188 564 c 0
 727.997070312 564 817.225585938 443.177734375 810.24609375 310 c 0
 803.236328125 176.237304688 697.72265625 83.4765625 565.140625 79 c 0
 564.140625 79 563.140625 79 562.140625 79 c 0
 454.907226562 79 408.865234375 131 411.905273438 189 c 0
 414.94140625 246.9375 463.819335938 300.696289062 533.927734375 323 c 1
 532.770507812 320 530.61328125 317 529.456054688 314 c 1
 348.456054688 314 l 1
 353.20703125 328.333007812 357.7578125 338.844726562 368.709960938 357 c 1
 600.709960938 357 l 1
 591.456054688 314 l 1
 557.396484375 314 472.802734375 263.369140625 469.743164062 205 c 0
 467.909179688 170 504.0703125 154 553.123046875 155 c 0
 639.153320312 157.129882812 715.703125 223.303710938 720.508789062 315 c 0
 725.794921875 415.86328125 662.02734375 514 507.9375 514 c 0
 321.508789062 514 156.03125 329.923828125 141.3984375 103 c 0
 130.942382812 -96.501953125 233.60546875 -204 428.30859375 -204 c 0
 568.012695312 -204 639.706054688 -160.268554688 706.658203125 -121 c 1
 713.391601562 -137.25 705.8515625 -152.256835938 696.248046875 -167 c 1
 620.421875 -240 499.90625 -288 375.90625 -288 c 0
 132.90625 -288 26.8681640625 -117 36.51171875 67 c 0
EndSplineSet
Colour: ff00
EndChar

StartChar: si_Sha
Encoding: 56 3521 45
GlifName: si_S_ha
Width: 896
Flags: HMW
LayerCount: 2
Back
SplineSet
873.330078125 287.131835938 m 5x9c
 870.3828125 202.45703125 l 5
 843.862304688 208.05078125 753.356445312 180.313476562 729 144 c 0
 684.297851562 74.296875 741.688476562 25.1318359375 684.94140625 -23.029296875 c 1
 639.595703125 -14.3720703125 l 1
 679.584960938 40.443359375 625.141601562 100.857421875 669.78515625 176.172851562 c 0
 718.65634084 258.620458894 844.76953125 237.546875 873.330078125 287.131835938 c 5x9c
700.759765625 17.6123046875 m 0
 803.730012091 29.5855891603 856.623046875 108.114257812 856.623046875 229.600585938 c 0
 856.623046875 353.83984375 776.359375 445.533203125 636.9375 445.533203125 c 0
 556.0703125 445.533203125 445.365531913 397.33234502 438.877929688 254.823242188 c 1
 388.610351562 238.01171875 l 1
 384.657226562 437.1640625 515.451171875 542.603515625 655.6796875 542.603515625 c 0xdc
 827.643554688 542.603515625 920.870117188 411.889648438 920.870117188 267.375 c 0
 920.870117188 101.1640625 836.109375 -54.5166015625 664.411132812 -55.814453125 c 0
 613.534972106 -56.1990214457 573.655273438 -45.9150390625 555.682617188 -36.138671875 c 1
 580.452148438 40.328125 l 1
 602.016601562 24.771484375 657.087890625 12.5341796875 700.759765625 17.6123046875 c 0
111.974609375 245.841796875 m 0
 111.224947768 128.711194652 180.21484375 50.8837890625 308 47.5908203125 c 0
 414.426757812 44.8486328125 485.633025268 87.9111518545 488 160 c 0
 489.319040698 200.172851562 462.767578125 237 389 237 c 1
 440 291 l 1
 489 290 551.65234375 244.21484375 552 160 c 0
 552.451171875 47.953125 473.594726562 -55.0048828125 308.598632812 -55.0048828125 c 0
 140.69140625 -55.0048828125 53.9951171875 61.9140625 53.9951171875 221.564453125 c 0
 53.9951171875 428.865278548 210.2890625 536 337 538 c 0
 344.879882812 462.879882812 l 0xbc
 249.916015625 462.879882812 113.059980801 415.425256344 111.974609375 245.841796875 c 0
EndSplineSet
Fore
SplineSet
513.25390625 24 m 0
 527.494140625 123.411764706 610.163085938 233 692.163085938 233 c 4
 771.607421875 233 775.013671875 172 775.013671875 172 c 1
 761.241210938 150 l 2
 761.220703125 150.010742188 720.8515625 178 669.865234375 169 c 4
 620.626455243 160.308473693 579.618164062 117.5546875 577.415039062 27 c 0
 576.137695312 -33 620.74609375 -43 620.74609375 -43 c 1
 552.376953125 -41.0927734375 494.122371681 -68.3530746548 513.25390625 24 c 0
EndSplineSet
Refer: 25 3484 N 1 0 0 1 10 0 2
Colour: ffff00
EndChar

StartChar: si_Ssa
Encoding: 57 3522 46
GlifName: si_S_sa
Width: 800
Flags: HMW
LayerCount: 2
Back
SplineSet
502 352 m 1xff80
 452 333 l 1
 444 358 436.51166092 375.002839085 437 417 c 0
 438 503 509 556 580 556 c 0
 653 556 705 507 705 427 c 0
 705 359 618 309 618 309 c 1
 582 326 l 1
 616.051757812 347.129882812 650.883968435 377.105468228 651 417 c 0
 651.133789062 463 617 494 568 494 c 0
 519.967032967 494 475 452 475 409 c 0
 475 357 502 352 502 352 c 1xff80
119 209 m 0
 118 124 203 45 388 45 c 0
 563 45 663.451096972 127.008790366 665 216 c 0
 666.775390625 318.00390625 549 348 452 333 c 1
 472 373 l 1
 617 402 740.207129289 330.993840671 736 193 c 0xff40
 731 29 564 -59 383 -59 c 0
 189 -59 38.141811219 32.9981390102 40 180 c 0
 42 330.426470588 197 399.460784314 316 373 c 1
 292 345 l 1
 299 365 312.373079226 386.332036185 308 415 c 0
 299 474 239 505 171 490 c 0
 204 511 l 1
 149 409 l 1
 108 411 81.6005469374 436.013673435 83 471 c 0
 85 521 142 557 202 557 c 0
 272 557 343.891968781 516.997155104 346 439 c 0
 347 402 341 370 332 333 c 1
 208 359 119.917658967 287.001012186 119 209 c 0
643 323 m 5
 552.790039062 270.456054688 517.493868182 251.752985038 394 246 c 4
 363.142552198 244.5625 312.134256665 242.7040476 311 200 c 4
 310.303710938 173.78515625 347.396615788 147.779209587 414 148 c 4
 452.711833742 148.128329842 494.205646484 171.149443457 494.284179688 212 c 4
 494.347656249 245.018554688 465.28515625 262.201171875 453 270 c 5
 487 290 l 5
 486.64453125 268.418945312 533.721679688 261.372070312 534.859375 195 c 4
 535.775855403 141.533398617 478.859285171 95.910077431 384 94 c 4
 279.781839008 91.9014731467 228.94056545 135.838864532 230 190 c 4
 231.369140625 259.994140625 314.1836086 277.727222259 384 281 c 4
 542.53515625 288.431640625 569.885742188 327.166015625 616 345.561523438 c 5
 643 323 l 5
EndSplineSet
Fore
SplineSet
207.114257812 183 m 0
 211.135506906 259.660408252 302.578474261 277.521486514 373.250976562 281 c 0
 547.073076782 289.555555556 578.559312467 314 631.609375 336 c 1
 666.927734375 323 l 1
 557.826366678 270 516.666617683 250.329553851 377.892578125 246 c 0
 348.093947177 245.163934426 249.97697828 235.001323654 245.6953125 195 c 0
 244.216544328 172 276.448657396 158 353.756835938 158 c 0
 408.911676923 158 471.2615015 176.722562784 473.267578125 215 c 0
 474.682617188 242 445.1015625 250 424.1015625 250 c 2
 417.1015625 250 l 1
 442.625976562 260 l 1
 461.521484375 258 515.632793707 259.9996423 513.005859375 210 c 0
 509.59515456 152.473756848 443.038417363 102.56186213 337.345703125 102 c 4
 243.326881665 101.349360686 204.956375978 135.544910601 207.114257812 183 c 0
EndSplineSet
Refer: 1 3508 N 1 0 0 1 -8 0 2
EndChar

StartChar: si_Ha
Encoding: 59 3524 47
GlifName: si_H_a
Width: 977
Flags: HMW
LayerCount: 2
Back
SplineSet
311 336 m 1
 328.684322621 423.088989699 272.3515625 479.735351562 175 471 c 1
 125 389 l 1
 95 392 71 409 71 446 c 0
 71 513 143 538 196 538 c 0
 276 538 351.656131768 488.983120729 356 404 c 0
 358.56640625 353.791015625 349 331.083007812 342 309 c 1
 311 336 l 1
684.759765625 3.6123046875 m 0
 791.777535116 12.496327719 847.623046875 99.1903866115 847.623046875 236.600585938 c 0
 847.623046875 356.830880893 786.524414062 434.868164062 654.9375 436.533203125 c 0
 573.991210974 437.557459482 435.365234374 390.266996464 448.877929688 254.823242188 c 1
 401.610351562 244.01171875 l 1
 387.657226563 427.034530035 516.451171875 542.603515625 656.6796875 542.603515625 c 0
 831.67250544 542.603515625 911.870117188 412.364576942 911.870117188 268.375 c 0
 911.870117188 76.2184300516 815.321887545 -52.9340033687 641.411132812 -54.814453125 c 0
 600.536132812 -55.275390625 570.655273438 -45.9150390625 552.682617188 -36.138671875 c 1
 578.452148438 29.328125 l 1
 600.016601562 13.771484375 631.103784096 -0.669857815781 684.759765625 3.6123046875 c 0
103.974609375 186.841796875 m 0
 102.698242188 90.696222408 181.2734375 50.7744140625 299 46.5908203125 c 0
 364.454142977 44.2648070691 472.266990439 73.1355346326 474 155 c 0
 475.319335938 217.323217147 447.767578125 238.487179487 402 243 c 1
 445 291 l 1
 486 281.302325581 536.65234375 242.743126211 537 152 c 0
 537.451171875 37.1520215113 459.594726562 -53.0048828125 294.598632812 -53.0048828125 c 0
 136.69140625 -53.0048828125 46.9951171875 28.9163476942 46.9951171875 151.564453125 c 0
 46.9951171875 318.865234375 190.2890625 380 337 372 c 0
 340.879882812 309.879882812 l 0
 215.916015625 329.879882812 105.43359375 286.419921875 103.974609375 186.841796875 c 0
EndSplineSet
Fore
SplineSet
351.653320312 375 m 1
 352.229492188 386 l 2
 355.758789062 453.346679688 307.8515625 474 260.840820312 474 c 0
 259.840820312 474 258.840820312 474 257.840820312 474 c 0
 209.840820312 474 170.083984375 440.46875 152.962890625 400 c 1
 147.962890625 400 l 2
 129.212890625 400 116.575195312 431.23046875 120.897460938 456 c 0
 132.087890625 520.120117188 193.723632812 566.840820312 274.19140625 557 c 0
 350.9453125 546.412109375 393.317382812 464 388.7578125 377 c 0
 388.721679688 376.318359375 379.436523438 375.63671875 351.653320312 375 c 1
61.974609375 114 m 0
 71.06640625 287.4921875 267.508789062 384.930664062 389.176757812 385 c 1
 390.072265625 383 388.967773438 381 388.810546875 378 c 0
 387.811523438 358.952148438 384.452148438 352.095703125 382.1328125 346 c 1
 302.575195312 346 159.787109375 293.57421875 136.276367188 177 c 0
 124.116210938 116.709960938 158.75390625 60.84765625 286.672851562 51 c 0
 416.565429688 41 530.810546875 129.958007812 536.2109375 233 c 0
 539.6171875 298 480.666015625 318 432.673828125 280 c 1
 429.931640625 304 l 1
 483.701171875 359.788085938 587.462890625 352.288085938 581.053710938 230 c 0
 574.088867188 97.09765625 468.000976562 -48 278.484375 -48 c 0
 143.484375 -48 56.849609375 16.2158203125 61.974609375 114 c 0
379.852539062 188 m 1
 414.540039062 411 584.509765625 544 719.5625 545 c 1
 721.5625 545 l 2
 868.5625 545 929.141601562 441.568359375 923.399414062 332 c 0
 912.958007812 132.758789062 795.51953125 -56.0703125 576.541015625 -66 c 1
 564.408203125 -57.6181640625 560.677734375 -44.310546875 562.528320312 -9 c 1
 593.056640625 -18 604.76171875 -18.607421875 634.37109375 -12 c 0
 746.857421875 13.1015625 835.828125 111.205078125 843.1015625 250 c 0
 847.919921875 341.9296875 802.692382812 433 688.692382812 433 c 0
 548.692382812 433 434.87109375 341 427.32421875 197 c 0
 427.166992188 194 427.009765625 191 426.852539062 188 c 1
 417.799804688 187 409.748046875 186 400.748046875 186 c 0
 393.748046875 186 386.799804688 187 379.852539062 188 c 1
EndSplineSet
EndChar

StartChar: si_Lla
Encoding: 60 3525 48
GlifName: si_L_la
Width: 0
Flags: HM
LayerCount: 2
Back
SplineSet
737.662109375 313.857421875 m 1
 681.569335938 331.685546875 506.564453125 358.256835938 391 330 c 0
 297.720703125 307.192382812 165.706054688 248.069335938 167 55 c 0
 167.911132812 -80.93359375 275.409179688 -220.403320312 464 -229 c 0
 612.965820312 -235.790039062 719.771484375 -152.744140625 766 -84 c 0
 815 -139 l 0
 770.939453125 -200.060546875 638.8046875 -292.85546875 458 -294 c 0
 211.450195312 -295.479492188 67.529296875 -165.423828125 67 24 c 0
 66.359375 253.140625 236.697265625 342.377929688 383 376 c 0
 522.771484375 408.12109375 659.041015625 392.354492188 712 375 c 1
 695 369 l 1
 698.79296875 444.918945312 681.073242188 507.33984375 603 500 c 4
 560.47265625 496.001953125 513.913085938 456.166992188 505 356 c 1
 465 356 l 1
 456.25 451.360351562 398.995117188 506.1640625 342 500 c 0
 287.829101562 494.141601562 248.33203125 444.888671875 248 361 c 0
 247.422810077 215.171268371 362.854492188 101.72265625 494 101.3359375 c 0
 598.236406879 101.028567666 660.125976562 132.650390625 717 184 c 1
 741 153 l 1
 681.848632812 71.1279296875 585.524244428 25.4060840538 489 25.9765625 c 0
 302.782226562 27.0771484375 199.740234375 140.541992188 196 326 c 0
 193.739257812 438.076171875 244.391601562 545.588867188 341 560 c 0
 457.916992188 577.44140625 502.899414062 431.340820312 482 399 c 1
 483 416 l 1
 484.694335938 470.4453125 535.126953125 559.370117188 618 560 c 0
 683.361328125 560.497070312 737.0989706 519.587484908 742 405 c 0
 743.823242188 362.372070312 740.545898438 343.486328125 737.662109375 313.857421875 c 1
EndSplineSet
EndChar

StartChar: si_Fa
Encoding: 61 3526 49
GlifName: si_F_a
Width: 0
Flags: HM
LayerCount: 2
Back
SplineSet
363 -13 m 1
 333.881835938 -25.3193359375 298.634765625 -34.6181640625 248 -33.93359375 c 0
 107.943359375 -32.0400390625 34 85.7525887482 34 228 c 0
 34 384 121.999997703 520.000156233 258 522 c 0
 382.986328125 523.837890625 431 437 433 362 c 1
 435 365 400 359 402 362 c 1
 409 443 482.002929688 521.33203125 583 522 c 0
 734.000976562 522.999023438 796.434570312 373.00390625 797 254 c 0
 797.831054688 78.9990234375 708.955078125 -30.02734375 592 -33 c 0
 555.997070312 -33.9150390625 510 -27 486 -17 c 1
 505 45 l 1
 531 23 570 17 604 20 c 0
 664.065429688 25.2998046875 727.599609375 89.994140625 726 224 c 0
 724.805664062 323.990234375 678.046875 407.399414062 580 409 c 0
 510.039535505 410.142083678 450 357 448 273 c 1
 392 273 l 1
 392 370 321.948278846 416.881019058 252 414 c 0
 141.022045076 409.429056892 106.696289062 303.002929688 104 219 c 0
 100.829101562 120.224609375 142.603515625 20.6630859375 259 20 c 0
 285.412109375 19.849609375 311.651367188 22.8125 344 45 c 1
 363 -13 l 1
EndSplineSet
EndChar

StartChar: si_Halant
Encoding: 62 3530 50
GlifName: si_H_alant
Width: 1
Flags: HMW
LayerCount: 2
Back
SplineSet
28 866 m 1
 28 820.333007812 28 774.666992188 28 729 c 1
 44 708 62.9814453125 706.276367188 76 707 c 0
 94 708 109 727 106 767 c 0
 103 806 75 850 28 866 c 1
6 685 m 1
 5.828125 683.069335938 25.6865234375 688.06640625 25.572265625 686 c 1
 23.0244140625 639.911132812 34.3857421875 532.184570312 43 514 c 1
 -16 514 l 1
 -23 565 -21 670 -21 737 c 1
 -22 920 l 1
 54 911 169 868 165 743 c 0
 163 689 125.046875 657 82 657 c 0
 41 657 15 679 6 685 c 1
EndSplineSet
Fore
SplineSet
121.625 737 m 6
 125.979999081 688.900410771 148.573088257 651 196.1171875 651 c 4
 219.1171875 651 238.759577839 666.007869143 240.528320312 697 c 4
 243.922023602 759 167.776379826 780 123.245117188 787 c 5
 120.991210938 744 l 5
 121.625 737 l 6
63.732421875 491 m 5
 83.9658203125 868 l 5
 119.647460938 871 l 5
 147.280273438 864 278.260841741 822.832321126 272.209960938 710 c 4
 268.762344616 649.66611658 250.484662524 595.119602265 182.129882812 594 c 5
 180.129882812 594 l 6
 143.514587188 594 121.153869299 624 115.22265625 653 c 5
 106.732421875 491 l 5
 63.732421875 491 l 5
EndSplineSet
Colour: ff00
EndChar

StartChar: si_MatraAa
Encoding: 63 3535 51
GlifName: si_M_atraA_a
Width: 390
Flags: HMW
LayerCount: 2
Back
SplineSet
51 440 m 1
 77 419 l 1
 94.2333984375 430.538085938 128.473632812 450.502929688 175 444 c 0
 253.008789062 431.5859375 288.154296875 350.3984375 285 231 c 0
 281.97265625 124.423828125 240.96484375 26.69140625 164 17 c 0
 124.201171875 12.62109375 82.9521484375 26.9599609375 72 33 c 1
 50 7 l 1
 62.796875 -10.5 108.87109375 -35.92578125 167 -33 c 0
 304.93359375 -26.056640625 371.788085938 122.322265625 375 234 c 0
 379.069335938 378.272460938 311.327148438 493.89453125 185 499 c 0
 134.083984375 501.081054688 79.7236328125 474.416992188 51 440 c 1
EndSplineSet
Fore
SplineSet
-3.794921875 23 m 0
 -3.07779618275 31.0276692708 2.02860462816 37.3333333333 9.349609375 43 c 1
 30.9833984375 36 47.3017578125 23 115.301757812 23 c 0
 205.84974936 23 280.141791542 127.995708155 286.512695312 301 c 4
 290.525615325 392.298550335 253.102816713 438.328947368 181.430664062 448 c 0
 148.014646914 454.274535677 108.749023438 439.642857143 80.962890625 430 c 1
 81.5400390625 441 l 2
 82.326171875 449.877929688 85.216796875 459.938476562 92.107421875 470 c 1
 121.266427948 492.64516129 159.167969181 522 221.356445312 522 c 0
 329.696757411 522 383.503970141 420.979171236 377.154296875 271 c 0
 372.895109156 137.60924496 286.270507812 -33 131.270507812 -33 c 0
 58.9133119697 -33 -4.87593466854 3.8955078125 -3.794921875 23 c 0
EndSplineSet
Colour: ff00
EndChar

StartChar: si_MatraAe
Encoding: 64 3536 52
GlifName: si_M_atraA_e
Width: 378
Flags: HMW
LayerCount: 2
Back
SplineSet
159 96 m 0x40
 143.75390625 7.5224609375 152.063476562 -89.5732421875 254 -97 c 0
 317.692382812 -101.640625 349 -71.2119140625 372 -51 c 1
 393 -73 l 1
 378.114257812 -116.75 305.828125 -174.841796875 225 -173 c 0
 88.068359375 -169.87890625 59.5498046875 -73.234375 74 40 c 0
 89.9677734375 174.331054688 186.349609375 293.0390625 224.163085938 332 c 1x40
 177.428710938 329.587890625 87.0732421875 326.22265625 29 323.856445312 c 1
 30 388.116210938 l 5x80
 52.9091796875 388.107421875 241.430664062 387.998046875 275 388 c 5
 275 323 l 1
 225.875976562 285.021484375 173.067382812 177.639648438 159 96 c 0x40
EndSplineSet
Fore
SplineSet
24.943359375 18 m 2
 25.939453125 37 l 1
 47.3720703125 217 233.705078125 376 322.915039062 380 c 1
 73.294921875 330 l 1
 76.3427734375 350 81.6484375 394 88.01171875 420 c 1
 385.01171875 420 l 1
 381.770507812 350 l 1
 368.141601562 338 l 1
 261.72265625 329.677419355 102.219726562 220.443548387 82.14453125 80 c 5
 81.462890625 67 l 6
 75.5746615355 -45.2981456155 152.279296875 -71 239.279296875 -71 c 0
 286.279296875 -71 360.694335938 -44 383.109375 -17 c 1
 399.967430183 -33.8204042918 393.452252933 -53.6162214661 390.173828125 -73 c 1
 366.444335938 -106 288.93359375 -173 199.93359375 -173 c 0
 66.93359375 -173 19.8076171875 -80 24.943359375 18 c 2
EndSplineSet
Colour: ff00
EndChar

StartChar: si_MatraAae
Encoding: 65 3537 53
GlifName: si_M_atraA_ae
Width: 417
Flags: HMW
LayerCount: 2
Back
SplineSet
75 412 m 1xc0
 309 412 l 1xc0
 309 358 l 1
 216 324.43359375 l 5
 127 303 l 1
 65 309 l 1
 189 355.081054688 l 1
 273 372 l 1xa0
 243 364 l 1
 75 364 l 1
 75 412 l 1xc0
206 88 m 0
 187.103515625 4.6083984375 191.1640625 -90.5087890625 289 -97 c 0
 352.720703125 -101.227539062 384 -71.2119140625 407 -51 c 1
 428 -73 l 1
 413.114257812 -116.75 340.828125 -174.842773438 260 -173 c 0
 123.068359375 -169.87890625 89.22265625 -72.42578125 109 40 c 0
 128.04296875 148.252929688 227.811523438 232.37890625 279.163085938 262 c 1
 227.614257812 261.661132812 129.0546875 261.188476562 65 260.856445312 c 1
 65 309.116210938 l 1
 87.9091796875 309.107421875 285.431640625 308.998046875 319 309 c 1
 319 253 l 1
 273.961914062 225.39453125 221.813476562 157.787109375 206 88 c 0
EndSplineSet
Fore
SplineSet
33.7861328125 15 m 0
 33.99609375 19 34.205078125 23 34.4150390625 27 c 0
 46.7041015625 147 179.412109375 275 311.35546875 293 c 1
 340.420898438 237 l 1
 332.106445312 231 l 1
 217.791992188 225 98.9091796875 170 81.830078125 54 c 0
 81.568359375 49 80.3583984375 45 80.0966796875 40 c 0
 75.74609375 -43 149.544921875 -85 227.544921875 -85 c 0
 288.544921875 -85 345.065429688 -56 381.584960938 -27 c 1
 385.166015625 -35 391.379882812 -50 390.59375 -65 c 0
 390.436523438 -68 391.331054688 -70 390.173828125 -73 c 0
 367.444335938 -106 302.93359375 -173 209.93359375 -173 c 0
 85.93359375 -173 28.544921875 -85 33.7861328125 15 c 0
114.552734375 354 m 1
 126.116210938 422 l 1
 335.116210938 422 l 1
 323.338867188 369 l 1
 199.984375 305 l 1
 254.72265625 300 326.302734375 292 349.198242188 290 c 1
 346.09765625 269 344.311523438 254 341.47265625 238 c 1
 221.993164062 267 l 1
 196.150390625 270 163.46484375 276 130.622070312 279 c 5
 136.508789062 315 l 5
 254.443359375 371 l 1
 114.552734375 354 l 1
EndSplineSet
Colour: ff00
EndChar

StartChar: si_MatraI
Encoding: 66 3538 54
GlifName: si_M_atraI_
Width: 0
VWidth: -28
Flags: HM
AnchorPoint: "si_MaI" 117.296 559 mark 0
LayerCount: 2
Back
Refer: 51 3535 N 1 0 0 1 0 0 2
Fore
SplineSet
-154.245117188 625 m 0
 -139.94921875 756.767578125 11.8955078125 796.161132812 160.92578125 800 c 0
 163.92578125 800 166.92578125 800 169.92578125 800 c 4
 273.874023438 799 410.091796875 765 404.537109375 659 c 0
 401.129882812 594 344.45703125 543 306.723632812 529 c 13
 293.034179688 554 l 21
 317.977539062 572 335.97265625 591 337.754882812 625 c 2
 338.279296875 635 l 5
 336.318359375 693 215.790039062 702 147.842773438 703 c 5
 107.842773438 703 l 1
 13.056640625 701 -86.2294921875 699.86328125 -93.6123046875 618 c 0
 -95.3935546875 584 -65.91796875 574 -48.3369140625 566 c 13
 -74.171875 531 l 21
 -123.280273438 548 -156.760742188 577 -154.245117188 625 c 0
EndSplineSet
EndChar

StartChar: si_MatraIi
Encoding: 67 3539 55
GlifName: si_M_atraI_i
Width: 0
VWidth: -28
Flags: HM
AnchorPoint: "si_MaI" 117.296 559 mark 0
LayerCount: 2
Back
SplineSet
-185 531 m 21
 -248 551 -291.833007812 588.24609375 -286 655 c 4
 -277 758 -139 802 2 800 c 4
 106 799 249.903320312 764.702148438 266 659 c 4
 275.955078125 593.627929688 231 543 196 529 c 13
 177 554 l 21
 200 574 214.749023438 594.73046875 205 635 c 4
 190.84375 693.477539062 68 701.96875 0 703 c 4
 -94.994140625 704.44140625 -214 706 -223 641 c 4
 -230.40625 587.510742188 -191 576 -168 566 c 13
 -185 531 l 21
EndSplineSet
Fore
SplineSet
-154.245117188 625 m 0
 -139.94921875 756.767578125 11.8955078125 796.161132812 160.92578125 800 c 0
 163.92578125 800 166.92578125 800 169.92578125 800 c 4
 273.874023438 799 410.091796875 765 404.537109375 659 c 0
 401.129882812 594 344.45703125 543 306.723632812 529 c 13
 293.034179688 554 l 21
 317.977539062 572 335.97265625 591 337.754882812 625 c 2
 338.279296875 635 l 5
 336.318359375 693 215.790039062 702 147.842773438 703 c 5
 107.842773438 703 l 1
 13.056640625 701 -86.2294921875 699.86328125 -93.6123046875 618 c 0
 -95.3935546875 584 -65.91796875 574 -48.3369140625 566 c 13
 -74.171875 531 l 21
 -123.280273438 548 -156.760742188 577 -154.245117188 625 c 0
EndSplineSet
EndChar

StartChar: si_MatraU
Encoding: 68 3540 56
GlifName: si_M_atraU_
Width: 0
VWidth: 0
Flags: HM
AnchorPoint: "si_MaU" 67.8564 169 mark 0
LayerCount: 2
Back
SplineSet
-388 -115 m 17
 -361.227539062 -160 l 1
 -361.23046875 -152.99609375 -427.812711241 -191.887525396 -427.809570312 -226 c 0
 -427.80528394 -272.552734178 -403.698875123 -285.247071992 -352 -285.247070312 c 1
 -35 -287 l 9
 -35 169 l 25
 22 169 l 25
 28 -367 l 17
 28 -367 -247.995117188 -369.6796875 -424 -370.586914062 c 0
 -504 -371 -545.244140625 -321.6015625 -546 -271 c 0
 -547.62890625 -161.938476562 -388 -115 -388 -115 c 17
EndSplineSet
Fore
SplineSet
-666.936523438 -285 m 0
 -659.176757812 -167.400390625 -474.02734375 -115 -474.02734375 -115 c 17
 -456.384765625 -160 l 2
 -456.333007812 -159 -456.333007812 -159 -457.333007812 -159 c 0
 -468.568359375 -161.936523438 -537.331054688 -197.131835938 -539.682617188 -242 c 0
 -541.46484375 -276 -519.936523438 -285 -473.936523438 -285 c 2
 -78.041015625 -287 l 9
 17.8564453125 169 l 25
 67.8564453125 169 l 25
 -39.2333984375 -367 l 17
 -39.2333984375 -367 -387.390625 -370 -563.443359375 -371 c 0
 -636.443359375 -371 -669.346679688 -331 -666.936523438 -285 c 0
EndSplineSet
EndChar

StartChar: si_MatraUu
Encoding: 69 3542 57
GlifName: si_M_atraU_u
Width: 0
VWidth: 0
Flags: HM
AnchorPoint: "si_MaU" 57.8564 169 mark 0
LayerCount: 2
Back
SplineSet
-448 -165 m 25
 -436 -251 l 25
 88 -247 l 25
 82 129 l 25
 -5 129 l 25
 -5 -167 l 25
 -448 -165 l 25
EndSplineSet
Fore
SplineSet
-607.565429688 -297 m 0
 -603.176757812 -196.288085938 -461.55078125 -125 -461.55078125 -125 c 17
 -435.333007812 -159 l 1
 -442.951171875 -160.19921875 -506.544921875 -206.370117188 -506.154296875 -251 c 0
 -507.622070312 -279 -489.565429688 -297 -458.565429688 -297 c 0
 -456.565429688 -297 -454.565429688 -297 -452.565429688 -297 c 0
 -395.35546875 -293 -330.525390625 -239 -254.368164062 -236 c 1
 -244.368164062 -236 l 2
 -167.368164062 -236 -122.150390625 -270 -87.5654296875 -297 c 1
 10.8564453125 169 l 25
 57.8564453125 169 l 25
 -50.7578125 -377 l 1
 -112.705078125 -376 l 1
 -157.87109375 -341 -211.24609375 -310 -265.24609375 -310 c 0
 -268.24609375 -310 -271.24609375 -310 -274.24609375 -310 c 0
 -362.508789062 -315 -429.967773438 -381 -519.967773438 -381 c 0
 -582.967773438 -381 -609.923828125 -342 -607.565429688 -297 c 0
EndSplineSet
EndChar

StartChar: si_MatraR
Encoding: 70 3544 58
GlifName: si_M_atraR_
Width: 377
VWidth: -11
Flags: HMW
LayerCount: 2
Back
SplineSet
17 449 m 1
 37 419 l 1
 54.2334365325 430.538461539 88.4282279166 450.171453115 135 444 c 0
 206.044410511 434.585557969 240.953858779 350.39868523 238 231 c 0
 235.673454122 126.415584854 209.685365321 33.540720618 145 21 c 0
 99.8863052159 13.532603167 60.0982142857 27.0795774275 34 43 c 1
 11 13 l 1
 26.5941190945 -5.285 71.3400420364 -35.6498516338 144 -33 c 0
 286.939560226 -27.7871064363 343.865398935 122.321918812 347 234 c 0
 351.326443431 378.272912215 294.556180949 498.894728402 145 499 c 0
 96.3287827409 499.034259345 44.4375244811 473.166666667 17 449 c 1
EndSplineSet
Fore
SplineSet
43.3544921875 64 m 0
 39.4755859375 -10 104.270507812 -33 168.270507812 -33 c 2
 170.270507812 -33 l 2
 325.270507812 -33 394.708007812 128 415.154296875 251 c 0
 418.150390625 270 420.041015625 287 420.931640625 304 c 0
 428.845703125 455 354.356445312 522 279.356445312 522 c 0
 212.356445312 522 171.522460938 487 140.107421875 460 c 1
 133.216796875 443 130.326171875 426 129.540039062 411 c 2
 128.962890625 400 l 1
 156.749023438 415 195.430664062 428 229.430664062 428 c 0
 330.430664062 428 381.810546875 378 377.512695312 296 c 0
 369.9140625 151 260.411132812 46 173.411132812 46 c 0
 136.411132812 46 119.249023438 62 120.76953125 91 c 0
 125.854492188 157.859375 185.254882812 197.4453125 217.795898438 206 c 4
 227.900390625 208 237.953125 209 246.953125 209 c 0
 292.953125 209 331.642578125 184 362.227539062 157 c 1
 378.47265625 238 l 5
 357.997070312 248 319.258789062 253 283.258789062 253 c 0
 259.258789062 253 237.154296875 251 220.944335938 247 c 0
 144.9765625 229.404296875 54.125 173.885742188 43.3544921875 64 c 0
EndSplineSet
EndChar

StartChar: si_MatraE
Encoding: 71 3545 59
GlifName: si_M_atraE_
Width: 643
VWidth: -10
Flags: HMW
LayerCount: 2
Back
SplineSet
313 157 m 4
 255.081054688 160.048828125 225 204 225 247 c 4
 225 321 295.996232903 364.285672889 366 365 c 0
 457.000756775 365.928582995 551.537146707 304.978720126 546 172 c 0
 541.655737705 72 461.286885246 -44 281 -44 c 0
 106.011363636 -44 5.04488585503 78.4458592855 20 244 c 0
 36.1881188119 424.993150685 166.769115485 546 347 546 c 0
 469.480446927 546 536 489 536 489 c 0
 497 427 l 1
 495 427 444.751953125 479.645507812 338 487 c 0
 209.078125 495.052734375 87.5294756928 413.662785823 78 284 c 0
 66.9070806138 133.064221695 179.333007812 55.640625 275 48 c 0
 379.729492188 39.6357421875 470.897630752 65.0259085152 487 174 c 0
 499.953781854 266.2671434 431.995346331 330.335991006 363 329 c 0
 306.949367089 328 281 297 281 263 c 0
 281 239 302.145114339 216.832389055 335 216 c 0
 371.235294118 215.2 391 236 391 256 c 0
 391 323.307692308 343.52173913 331 335 331 c 1
 362 337 394.527617292 334.682723095 396 333 c 0
 405 322.714285714 429 306.714285714 429 253 c 0
 429 208 389 153 313 157 c 4
EndSplineSet
Fore
SplineSet
57.6953125 185 m 4
 69.7666015625 415.325195312 265.126953125 559.565429688 462.400390625 561 c 4
 592.505859375 561 651.5703125 507 651.5703125 507 c 5
 667.713867188 486.397460938 670.803710938 459.704101562 674.745117188 434 c 5
 674.745117188 434 586.125976562 505 430.465820312 505 c 4
 282.9375 504.376953125 138.78125 410.9921875 127.368164062 236 c 4
 120.4765625 104.497070312 214.739257812 54 320.830078125 54 c 4
 416.883789062 54 517.68359375 106.76953125 532.634765625 222 c 4
 532.84375 226 534.053710938 230 534.263671875 234 c 4
 537.72265625 300 492.028320312 344 435.028320312 344 c 4
 384.028320312 344 348.560546875 316 346.779296875 282 c 4
 345.625976562 260 363.629882812 241 394.629882812 241 c 4
 427.629882812 241 443.521484375 258 446.673828125 280 c 4
 446.831054688 283 448.041015625 287 448.198242188 290 c 4
 450.818359375 340 413.1328125 346 405.1328125 346 c 5
 418.290039062 349 433.342773438 350 445.342773438 350 c 4
 457.342773438 350 465.290039062 349 466.23828125 348 c 4
 471.766601562 339 488.137695312 327 486.250976562 291 c 4
 486.041015625 287 484.831054688 283 484.622070312 279 c 4
 477.796875 231.859375 437.731445312 182 371.538085938 182 c 4
 319.538085938 182 290.477539062 219 292.573242188 259 c 6
 292.940429688 266 l 5
 303.107421875 339.548828125 380.982421875 380 445.915039062 380 c 4
 519.717773438 380 585.35546875 331.1640625 579.791992188 225 c 4
 566.409179688 78.8896484375 467.192382812 -36.4990234375 292.956054688 -39 c 4
 142.956054688 -39 50.77734375 53 57.6953125 185 c 4
EndSplineSet
Colour: ff00
EndChar

StartChar: si_MatraLs
Encoding: 77 3551 65
GlifName: si_M_atraL_s
Width: 580
VWidth: -11
Flags: HMW
LayerCount: 2
Back
Refer: 51 3535 N 1 0 0 1 77 0 2
Fore
SplineSet
103.24609375 310 m 0
 98.044921875 217.874023438 145.486328125 154.163085938 251.0703125 154 c 0
 331.47265625 153.908203125 416.993164062 200.431640625 428.879882812 303 c 0
 431.23828125 348 402.439453125 390 342.439453125 390 c 0
 325.439453125 390 306.229492188 386 306.229492188 386 c 1
 296.818359375 340 l 1
 340.818359375 340 357.508789062 315 355.936523438 285 c 0
 355.831054688 283 354.673828125 280 354.569335938 278 c 0
 349.892578125 246 313.057617188 211 262.057617188 211 c 0
 200.422851562 213.287109375 164.774414062 244.206054688 166.294921875 330 c 0
 170.877929688 405.912109375 204.086914062 463.529296875 252.776367188 530 c 1
 197.248046875 539 l 1
 154.606445312 484.87890625 108.669921875 399 103.24609375 310 c 0
144.939453125 37 m 1
 148.217773438 -34 224.750976562 -62 291.698242188 -63 c 0
 294.698242188 -63 297.698242188 -63 300.698242188 -63 c 0
 494.698242188 -63 581.192382812 80 618.258789062 253 c 0
 626.041015625 287 629.666015625 318 631.081054688 345 c 0
 639.833007812 512 544.299804688 540 486.45703125 543 c 0
 483.45703125 543 480.45703125 543 477.45703125 543 c 0
 360.45703125 543 283.955078125 438 272.766601562 339 c 1
 324.818359375 340 l 1
 325.75390625 396 369.946289062 476 438.946289062 476 c 2
 443.946289062 476 l 1
 514.736328125 472 533.487304688 410 529.713867188 338 c 0
 528.24609375 310 522.673828125 280 516.154296875 251 c 0
 492.018554688 153 441.6328125 -7 319.6328125 -7 c 0
 235.6328125 -7 212.047851562 20 192.301757812 63 c 1
 144.939453125 37 l 1
EndSplineSet
EndChar

StartChar: si_VI
Encoding: 387 -1 67
GlifName: si_V_I_
Width: 774
VWidth: -14
Flags: HMW
LayerCount: 2
Back
SplineSet
376 274 m 1
 230 290 125 245 129 158 c 0
 131.939453125 94.0595703125 204.999023438 55.1953125 345 56 c 0
 519 57 618 173 618 326 c 0
 680 321 l 0
 680 107 571.001953125 -56.423828125 335 -58 c 0
 179 -59.0419921875 49.349609375 8.0439453125 46 137 c 0
 42 291 219 325 341 318 c 1
 351 378 304 428 212 428 c 1
 186 347 l 1
 135 340 100 369 109 415 c 0
 119 471 177 490 224 490 c 0
 300 490 380 453 384 349 c 0
 385.383789062 313.026367188 376 274 376 274 c 1
EndSplineSet
Refer: 356 -1 S 1 0 0 1 0 0 2
Fore
SplineSet
723.749023438 415 m 4
 723.749023438 192 531.545719043 -39 281.956054688 -39 c 4
 138.956054687 -39 15.370095827 25.9995919179 21.3896484375 141 c 4
 29.8222680579 301.375113501 216.004354646 360.753461039 321.024414062 362 c 4
 333.070416904 362 350.37066072 362 360.971679688 362 c 5
 361.49609375 372 l 6
 364.643608267 432.019643669 319.735171922 462 268.211914062 462 c 4
 206.211914062 462 176.225585938 405 174.6484375 394 c 5
 169.596679688 393 165.596679688 393 160.596679688 393 c 4
 121.596679688 393 101.698823856 413.999918436 103.216796875 443 c 6
 103.478515625 448 l 5
 111.413085938 504 170.142578125 537 228.142578125 537 c 4
 355.142578125 537 402.086629554 451.317359423 399.342773438 375 c 4
 398.473054847 350.809727823 393.881337691 330.713709677 388.717773438 319 c 5
 357.462359849 317.666666667 324.81316536 320 292.032226562 317 c 4
 185.288673249 307.231193136 76.8757062962 246.737138687 73.013671875 172 c 4
 69.974609375 114 143.298838919 81.5234593924 258.297851562 82 c 4
 503.8044165 83.0173465402 668.467744761 215.016024058 678.640625 401 c 4
 684.644586542 510.76641942 616.841594952 616 487.810546875 616 c 4
 402.433796249 616 329.94926919 587 265.88671875 587 c 4
 201.017946179 587 181.572629432 629.887205147 186.109375 671 c 4
 200.794760676 805.226863712 359.960477744 891 534.70703125 891 c 4
 655.263434252 891 735.121563327 825.845273976 731.833984375 731 c 4
 729.359474291 658.508196721 666.632093224 599 594.16015625 599 c 4
 585.16015625 599 576.16015625 599 567.334960938 601 c 5
 537.884765625 660 l 5
 556.686187298 656.666666667 578.015619508 655 599.534179688 655 c 4
 638.039229247 655 683.764686476 677.78016794 686.87109375 710 c 4
 692.487903893 768.257872702 599.636436398 809.502093011 478.232421875 807 c 4
 352.737528431 804.413595448 241.668107638 761.610218765 234.172851562 676 c 4
 232.159179688 653 244.422940388 629.128555207 285.322265625 632 c 4
 347.809042416 636.387048656 425.442448249 669.041776569 520.372070312 664 c 4
 662.442457313 656.454545455 723.749023438 540.623011882 723.749023438 415 c 4
EndSplineSet
Ligature2: "si_abvs_1 subtable" si_Va si_MatraI
LCarets2: 1 0
Ligature2: "'abvs' Above Base Substitutions in Sinhala lookup 0-1" si_Va si_MatraI
EndChar

StartChar: si_SI
Encoding: 417 -1 68
GlifName: si_S_I_
Width: 889
Flags: HMW
LayerCount: 2
Back
Refer: 358 -1 N 1 0 0 1 31 0 2
Refer: 6 3523 N 1 0 0 1 0 0 2
Fore
SplineSet
260.912109375 609 m 4
 259.51290605 766.038671875 453.80282447 869 608.541992188 869 c 0
 767.3671875 869 808.7421875 766.0625 796.169921875 682 c 0
 784.487304688 612.541992188 738.043945312 542.396484375 624.3046875 538 c 1
 639.19140625 574 l 1
 702.254383563 584.065429688 744.775937705 639.651367188 746.008789062 688 c 0
 749.9140625 761.375 619.083007812 780 539.091796875 775 c 0
 451.793945312 768.393624898 306.564973616 732.383143565 304.069335938 632 c 0
 303.200904568 595.535275829 339.653476726 587.202705187 372.409179688 575 c 1
 367.461914062 534 l 1
 316.888097076 525.176470588 261.340398361 565.637542837 260.912109375 609 c 4
EndSplineSet
Refer: 6 3523 N 1 0 0 1 -26 0 2
Ligature2: "si_abvs_1 subtable" si_Sa si_MatraI
LCarets2: 1 0
Ligature2: "'abvs' Above Base Substitutions in Sinhala lookup 0-1" si_Sa si_MatraI
EndChar

StartChar: si_MatraU.alt
Encoding: 85 -1 70
GlifName: si_M_atraU_.alt
Width: 780
VWidth: 0
Flags: HMW
LayerCount: 2
Back
SplineSet
248 -115 m 17
 274.772460938 -160 l 1
 274.76953125 -152.99609375 208.1875 -191.887695312 208.190429688 -226 c 0
 208.194335938 -272.552734375 232.30078125 -285.247070312 284 -285.247070312 c 1
 601 -287 l 9
 601 169 l 25
 658 169 l 25
 664 -367 l 17
 664 -367 388.004882812 -369.6796875 212 -370.586914062 c 0
 132 -371 90.755859375 -321.6015625 90 -271 c 0
 88.37109375 -161.938476562 248 -115 248 -115 c 17
EndSplineSet
Fore
SplineSet
36.3046875 -185 m 0
 36.5146484375 -181 37.7763671875 -176 37.986328125 -172 c 0
 45.6064453125 -122 96.1171875 -55 176.169921875 -54 c 0
 222.169921875 -54 257.59765625 -84 257.59765625 -84 c 1
 248.287109375 -109 l 1
 234.497070312 -105 221.549804688 -104 209.549804688 -104 c 0
 152.549804688 -104 113.767578125 -138 109.1953125 -168 c 4
 109.090820312 -170 108.986328125 -172 108.880859375 -174 c 0
 107.256835938 -205 127.05078125 -228 171.05078125 -228 c 2
 176.05078125 -228 l 1
 613.728515625 -196 l 1
 679.953125 209 l 1
 716.953125 209 l 1
 649.854492188 -289 l 1
 186.854492188 -289 l 2
 64.8544921875 -289 33.6318359375 -236 36.3046875 -185 c 0
EndSplineSet
EndChar

StartChar: si_MatraUu.alt
Encoding: 86 -1 71
GlifName: si_M_atraU_u.alt
Width: 0
VWidth: 0
Flags: HM
AnchorPoint: "si_MaU" 67.9531 209 mark 0
LayerCount: 2
Fore
SplineSet
-629.521484375 -258 m 1
 -616.328125 -178 -533.974609375 -114 -472.555664062 -106 c 1
 -455.9140625 -151 l 1
 -505.647460938 -165 -531.376953125 -198 -535.634765625 -222 c 0
 -535.791992188 -225 -537.000976562 -229 -537.158203125 -232 c 0
 -538.8359375 -264 -514.622070312 -279 -471.622070312 -279 c 2
 -467.622070312 -279 l 5
 -393.516601562 -277 -317.053710938 -230 -245.84375 -226 c 0
 -239.84375 -226 -233.791992188 -225 -227.791992188 -225 c 0
 -173.791992188 -225 -131.682617188 -242 -97.044921875 -268 c 9
 0.953125 209 l 25
 67.953125 209 l 25
 -55.3388671875 -369 l 17
 -117.713867188 -338 -155.669921875 -299 -254.669921875 -299 c 2
 -265.669921875 -299 l 1
 -330.774414062 -301 -422.076171875 -364 -517.076171875 -364 c 0
 -608.076171875 -364 -632.717773438 -319 -630.254882812 -272 c 2
 -629.521484375 -258 l 1
EndSplineSet
EndChar

StartChar: si_Rakar.alt
Encoding: 65536 -1 72
GlifName: si_R_akar
Width: 776
VWidth: -24
Flags: HMW
LayerCount: 2
Back
SplineSet
710 217 m 13
 736 210 l 29
 736 210 737.791460669 163.739318268 733 103 c 4
 717.53805264 -88.9552825327 623.783678929 -308.121598998 361 -309 c 4
 140.07699775 -309.663443429 32.9088980374 -199.176818848 27 -179 c 13
 64 -158 l 29
 64 -158 152.41243175 -207.191959404 362 -203 c 4
 650.485866987 -194.912482782 700.90024363 43.6137537122 710 217 c 13
EndSplineSet
Fore
SplineSet
26.71484375 -139 m 9
 68.8154296875 -118 l 17
 68.8154296875 -118 126.7890625 -233 340.7890625 -233 c 0
 346.7890625 -233 352.7890625 -233 358.7890625 -233 c 0
 626.15625 -226 700.563476562 68 735.634765625 222 c 9
 761.005859375 210 l 25
 761.005859375 210 752.336914062 140 732.140625 79 c 0
 672.70703125 -101 574.805664062 -309 319.805664062 -309 c 2
 311.805664062 -309 l 1
 84.015625 -305 28.3525390625 -165 26.71484375 -139 c 9
EndSplineSet
EndChar

StartChar: si_KU
Encoding: 92 -1 76
GlifName: si_K_U_
Width: 1085
VWidth: -24
Flags: HMW
LayerCount: 2
Back
SplineSet
796 9 m 0xbe
 905.836914062 22.0703125 941.120117188 174.231445312 915 279 c 0
 885.174804688 398.631835938 760.228515625 466.868164062 625 462 c 0
 525.9140625 458.697265625 448.959960938 431.771484375 355 374 c 1
 338 362 349 367 335 355 c 1
 238 276 156 211 56 79 c 1
 56 79 21.126953125 98.5439453125 27 107 c 0
 127 251 217 322 315 413 c 1
 322 419 331 420 338 425 c 1
 435.860351562 505 556.172851562 555.573242188 672 561 c 0
 861.928710938 570.465820312 1001 450 1015 282 c 0
 1028.55566406 112.560546875 927.639648438 -33 775 -33 c 0
 796 9 l 0xbe
288 377 m 1
 300 400 304 421 303 439 c 0
 301 481 264.760742188 505.678710938 215 501 c 0
 180.934570312 497.796875 145 470 151 426 c 1
 191 371 l 1
 177 347 154.001953125 335.022460938 132 336 c 0
 87 338 67 369 67 415 c 0
 67 495 133.983398438 563.181640625 231 559 c 0
 313.926757812 555.42578125 363 480 336 416 c 0
 321 380 336 404 323 387 c 1
 288 377 l 1
107 165 m 1
 115 169 124 172 131 172 c 0
 179 173 188 72 271 72 c 0
 320 72 370 101 371 197 c 1
 406 197 l 0
 407 94 466.997070312 71.1669921875 527 72 c 0
 587.002929688 72.8330078125 638 118 638 194 c 0
 638 273 566 340 452 345 c 0
 390.059570312 347.716796875 314 329 281 311 c 1
 335 364 l 1
 348 368 381.99609375 390.330078125 459 391 c 0
 574 392 696 332 696 182 c 0
 696 48 620.995117188 -34.9423828125 516 -36 c 0
 430.693359375 -36.859375 397.721679688 8.326171875 379 49 c 1
 397 49 l 1
 379.737304688 7.81640625 336.954101562 -36 272 -36 c 0xde
 113.997070312 -36 160 169 95 130 c 0
 107 165 l 1
EndSplineSet
Refer: 364 -1 S 1 0 0 1 795 1 2
Fore
SplineSet
29.4970703125 105 m 0
 29.4443359375 106 30.4443359375 106 30.392578125 107 c 0
 135.845703125 251 228.125 322 329.35546875 413 c 0
 337.041015625 419 345.98828125 420 352.7265625 425 c 0
 453.534179688 505 575.861328125 556 691.599609375 561 c 0
 698.599609375 561 705.546875 562 712.546875 562 c 0
 889.546875 562 1015.46875 449 1024.16894531 283 c 0
 1031.59960938 106.646484375 924.580078125 -30.587890625 773.729492188 -33 c 1
 796.528320312 9 l 1
 890.634765625 22.5625 933.803710938 127.23046875 929.684570312 235 c 0
 922.872070312 386.842773438 798.852539062 458.663085938 654.788085938 462 c 0
 546.788085938 462 467.202148438 435 368.399414062 374 c 0
 349.975585938 363 361.766601562 367 347.395507812 355 c 0
 247.53515625 276 163.942382812 211 58.859375 79 c 1
 58.859375 79 29.96875 96 29.4970703125 105 c 0
81.931640625 402 m 2
 81.2509765625 415 l 1
 84.1630859375 493 150.704101562 559 242.704101562 559 c 0
 311.704101562 559 356.0625 514 358.788085938 462 c 0
 358.9453125 459 359.102539062 456 359.258789062 453 c 0
 361.758789062 438.995117188 343.846679688 403.30078125 343.298828125 395 c 0
 343.403320312 393 345.194335938 397 336.717773438 387 c 1
 301.2421875 377 l 1
 313.141601562 398 318.145507812 417 318.254882812 434 c 1
 317.8359375 442 l 2
 315.844726562 480 287.69140625 502 244.69140625 502 c 0
 205.69140625 502 163.053710938 476 161.307617188 433 c 1
 203.556640625 371 l 1
 189.76171875 348 166.390625 336 145.390625 336 c 0
 102.390625 336 83.9755859375 363 81.931640625 402 c 2
99.1865234375 130 m 1
 112.352539062 165 l 1
 120.143554688 169 129.986328125 172 136.986328125 172 c 2
 137.986328125 172 l 2
 184.986328125 172 190.2265625 72 273.2265625 72 c 0
 322.2265625 72 373.70703125 101 377.67578125 197 c 1
 412.67578125 197 l 1
 412.990234375 191 412.3046875 185 412.619140625 179 c 0
 417.125976562 93 471.2265625 72 526.2265625 72 c 0
 588.2265625 72 641.868164062 117 644.833007812 194 c 1
 644.256835938 205 l 2
 640.220703125 282 566.918945312 345 451.918945312 345 c 0
 392.918945312 345 322.810546875 328 291.701171875 311 c 1
 347.923828125 364 l 1
 359.713867188 368 398.508789062 391 475.508789062 391 c 0
 583.508789062 391 695.338867188 337 702.256835938 205 c 0
 706.795898438 57.7822265625 625.77734375 -36.5205078125 512.88671875 -36 c 0
 428.88671875 -36 398.528320312 9 380.431640625 49 c 1
 398.431640625 49 l 1
 379.581054688 8 335.88671875 -36 270.88671875 -36 c 0
 126.88671875 -36 158.924804688 135 114.924804688 135 c 0
 110.924804688 135 105.029296875 133 99.1865234375 130 c 1
EndSplineSet
Refer: 364 -1 N 1 0 0.0350809 1 794.948 1 2
LCarets2: 1 0
Ligature2: "si_blws_1 subtable" si_Ka si_MatraU
EndChar

StartChar: si_GU
Encoding: 111 -1 95
GlifName: si_G_U_
Width: 959
VWidth: -24
Flags: HMW
LayerCount: 2
Back
SplineSet
665.759765625 8.6123046875 m 0xee
 798.73046875 0.5859375 856.623046875 108.114257812 856.623046875 229.600585938 c 0
 856.623046875 353.83984375 776.359375 445.533203125 636.9375 445.533203125 c 0
 556.0703125 445.533203125 445.365234375 397.33203125 438.877929688 254.823242188 c 1
 388.610351562 238.01171875 l 1
 384.657226562 437.1640625 515.451171875 542.603515625 655.6796875 542.603515625 c 0
 827.643554688 542.603515625 920.870117188 411.889648438 920.870117188 267.375 c 0
 920.870117188 101.1640625 847.109375 -54.5166015625 664.411132812 -45.814453125 c 4
 665.759765625 8.6123046875 l 0xee
111.974609375 245.841796875 m 0
 111.224609375 128.7109375 180.21484375 50.8837890625 308 47.5908203125 c 0
 414.426757812 44.8486328125 485.6328125 87.9111328125 488 160 c 0
 489.319335938 200.172851562 462.767578125 237 389 237 c 1
 440 291 l 1
 489 290 551.65234375 244.21484375 552 160 c 0
 552.451171875 47.953125 473.594726562 -55.0048828125 308.598632812 -55.0048828125 c 0
 140.69140625 -55.0048828125 53.9951171875 61.9140625 53.9951171875 221.564453125 c 0
 53.9951171875 428.865234375 210.2890625 536 337 538 c 0
 344.879882812 462.879882812 l 0xde
 249.916015625 462.879882812 113.059570312 415.424804688 111.974609375 245.841796875 c 0
EndSplineSet
Refer: 364 -1 N 1 0 0 1 665 1 2
Fore
SplineSet
81.748046875 186 m 0
 92.14453125 413.700195312 278.061523438 537.05859375 412.1953125 538 c 1
 402.264648438 463 l 1
 302.5390625 466.083984375 154.015625 403.478515625 143.529296875 220 c 0
 138.02734375 115 200.462890625 47 324.462890625 47 c 0
 425.462890625 47 500.76953125 91 510.541992188 163 c 0
 510.647460938 165 511.8046875 168 511.909179688 170 c 0
 513.795898438 206 490.420898438 237 422.420898438 237 c 1
 480.250976562 291 l 1
 526.198242188 290 580.049804688 249 576.06640625 173 c 0
 575.8046875 168 574.594726562 164 574.333007812 159 c 0
 558.462890625 47 466.1171875 -55 301.1171875 -55 c 0
 146.1171875 -55 74.3583984375 45 81.748046875 186 c 0
424.525390625 239 m 1
 451.640625 432 594.45703125 543 732.45703125 543 c 0
 892.45703125 543 968.483398438 429 961.512695312 296 c 0
 952.142578125 117.21484375 854.084960938 -43.8994140625 672.588867188 -46 c 0
 667.588867188 -46 662.588867188 -46 657.588867188 -46 c 5
 665.471679688 9 l 1
 670.471679688 9 676.418945312 8 681.418945312 8 c 0
 811.727539062 9.87109375 881.01953125 122.153320312 891.311523438 254 c 0
 897.181640625 366 829.374023438 446 699.374023438 446 c 0
 618.374023438 446 500.858398438 398 474.364257812 255 c 1
 424.525390625 239 l 1
EndSplineSet
Refer: 364 -1 N 1 0 0.139896 1 665.052 1 2
LCarets2: 1 0
Ligature2: "si_blws_1 subtable" si_Ga si_MatraU
EndChar

StartChar: si_GRa
Encoding: 114 -1 98
GlifName: si_G_R_a
Width: 956
VWidth: -24
Flags: HMW
LayerCount: 2
Back
Refer: 25 3484 N 1 0 0 1 0 0 2
Fore
SplineSet
47.9638671875 -139 m 5
 80.8017578125 -118 l 5
 83.0917117016 -127.55972178 196.739586688 -225.683105909 374.127929688 -223 c 4
 631.036302541 -219.055359097 834.024414062 57.3294117647 885.747070312 260 c 5
 912.697265625 248 l 5
 912.697265625 248 895.750825625 176.132542162 872.1484375 116 c 4
 784.744897244 -91.3406593407 620.792457831 -329.58010875 362.341796875 -329 c 4
 157.460502574 -328.494784565 48.9479593489 -170.888605497 47.9638671875 -139 c 5
EndSplineSet
Refer: 25 3484 S 1 0 0 1 77 0 2
LCarets2: 3 0 0 0
Ligature2: "si_rakaar subtable" si_Ga si_Halant zwj si_Ra
EndChar

StartChar: si_CI
Encoding: 137 -1 120
GlifName: si_C_I_
Width: 811
VWidth: -14
Flags: HMW
LayerCount: 2
Back
Refer: 5 3488 N 1 0 0 1 0 0 2
Fore
SplineSet
23.212890625 244 m 1
 38.2333984375 339 l 1
 113.552734375 352 291.028320312 362 403.028320312 362 c 2
 419.028320312 362 l 1
 411.814453125 347 l 1
 235.286132812 338 88.0068359375 267 35.736328125 234 c 1
 23.212890625 244 l 1
105.186523438 130 m 0
 104.924804688 135 105.663085938 140 105.400390625 145 c 0
 110.487304688 296 276.5 353 381.5 353 c 0
 390.5 353 400.5 353 408.552734375 352 c 1
 408.028320312 362 l 2
 404.98828125 420 364.8359375 442 318.8359375 442 c 0
 266.8359375 442 233.298828125 395 232.875 384 c 1
 227.927734375 383 222.927734375 383 217.927734375 383 c 0
 178.927734375 383 156.827148438 404 155.307617188 433 c 2
 155.044921875 438 l 1
 157.110351562 494 212.380859375 527 270.380859375 527 c 0
 397.380859375 527 456.569335938 428 461.181640625 340 c 0
 461.998046875 319.795898438 460.319335938 302.159179688 457.063476562 285 c 1
 436.90234375 269 l 1
 411.692382812 273 384.587890625 275 358.587890625 275 c 0
 255.587890625 275 156.317382812 242 154.1953125 168 c 0
 154.30078125 166 153.458007812 163 153.5625 161 c 0
 156.549804688 104 223.702148438 82 338.702148438 82 c 0
 568.702148438 82 699.623046875 198 706.774414062 405 c 1
 769.452148438 373 l 1
 761.029296875 133 612.043945312 -39 375.043945312 -39 c 0
 232.043945312 -39 111.161132812 16 105.186523438 130 c 0
EndSplineSet
Refer: 356 -1 N 1 0 0.0350809 1 40 0 2
LCarets2: 1 0
Ligature2: "si_abvs_1 subtable" si_Ca si_MatraI
Colour: ff0000
EndChar

StartChar: si_Tt.halant
Encoding: 206 -1 144
GlifName: si_T_t.halant
Width: 760
Flags: HMW
LayerCount: 2
Back
SplineSet
353.442382812 334 m 1xfa
 327.442382812 346 293.442382812 352 260.442382812 350 c 0
 190.369140625 345.8515625 117.5546875 302.787109375 116.442382812 218 c 0
 115.442382812 140.005859375 171.440018336 54.38494186 334.442382812 55 c 0
 547.44140625 55.8037109375 618.874023438 215.23046875 627.442382812 340 c 0
 690.442382812 332 l 0
 691.631835938 137.185546875 601.442382812 -57 341.442382812 -59 c 0
 148.44763624 -60.4845749736 38.5732421875 38.0029296875 35.4423828125 176 c 0
 32.1533203125 320.966796875 154.427734375 394.418945312 265.442382812 398 c 0
 327.442382812 400 367.442382812 379 367.442382812 379 c 1
 353.442382812 334 l 1xfa
EndSplineSet
Refer: 365 -1 N 1 0 0 1 -20 0 2
Fore
SplineSet
166.379882812 756 m 1
 168.698242188 769 173.96875 802 192.291992188 834 c 1
 192.291992188 834 261.776367188 882 381.776367188 882 c 2
 385.776367188 882 l 1
 635.93359375 879 718.249023438 644 727.735351562 463 c 0
 728.8359375 442 728.883789062 422 727.879882812 403 c 1
 681.6875 483 l 5
 682.3203125 490 682.901367188 498 682.32421875 509 c 0
 677.712890625 597 626.96875 802 359.811523438 805 c 1
 351.811523438 805 l 2
 277.811523438 805 250.440429688 793 250.440429688 793 c 1
 277.33984375 814 301.182617188 817 324.182617188 817 c 2
 343.182617188 817 l 1
 298.549804688 810 242.641601562 751 215.943359375 688 c 1
 177.62890625 694 l 1
 225.912109375 784 256.078125 819 274.396484375 832 c 1
 244.440429688 793 l 1
 209.069335938 781 196.383789062 775 166.379882812 756 c 1
EndSplineSet
Refer: 0 3495 N 1 0 0.0350809 1 0 0 2
LCarets2: 1 0
Ligature2: "si_halant_1 subtable" si_Tta si_Halant
EndChar

StartChar: si_TtI
Encoding: 207 -1 145
GlifName: si_T_tI_
Width: 755
VWidth: -14
Flags: HMW
LayerCount: 2
Back
SplineSet
366 329 m 1xfc
 343 338 300 345 273 343 c 0
 202 338 115.5149564 300.478264259 117 198 c 0
 118.4140625 100.419921875 217 45 350 44 c 4
 544.997070312 42.5341796875 612.875976562 198.346679688 616 323 c 0
 682 322 l 0
 680.189453125 113.185546875 570 -59 330 -59 c 4
 147 -59 40.7906648242 50.1077332517 46 176 c 0
 52 321 165 394 276 398 c 0
 338 400 378 379 378 379 c 1
 366 329 l 1xfc
EndSplineSet
Refer: 356 -1 N 1 0 0 1 0 0 2
Fore
SplineSet
65.82421875 156 m 0
 60.1240234375 348.98046875 254.90234375 437.67578125 364.09765625 437 c 0
 373.09765625 437 383.09765625 437 391.150390625 436 c 1
 421.5 353 l 1
 408.443359375 335 l 1
 383.233398438 339 358.076171875 342 332.076171875 342 c 0
 231.076171875 342 130.962890625 306 125.30859375 204 c 0
 125.465820312 201 124.623046875 198 124.780273438 195 c 0
 128.500976562 124 224.279296875 71 345.279296875 71 c 0
 348.279296875 71 351.279296875 71 354.279296875 71 c 0
 541.069335938 75 642.04296875 190 663.23828125 358 c 1
 727.971679688 344 l 1
 711.920898438 116 571.515625 -48 344.568359375 -49 c 0
 343.568359375 -49 342.568359375 -49 341.568359375 -49 c 0
 174.568359375 -49 71.8515625 41 65.82421875 156 c 0
EndSplineSet
Refer: 356 -1 S 1 0 0.0350809 1 0 0 2
LCarets2: 1 0
Ligature2: "si_abvs_1 subtable" si_Tta si_MatraI
Ligature2: "'abvs' Above Base Substitutions in Sinhala lookup 0-1" si_Tta si_MatraI
EndChar

StartChar: si_TtIi
Encoding: 208 -1 146
GlifName: si_T_tI_i
Width: 745
VWidth: -14
Flags: HMW
LayerCount: 2
Back
SplineSet
366 329 m 1xfd
 343 338 300 345 273 343 c 0
 202 338 115.5149564 300.478264259 117 198 c 0
 118.4140625 100.419921875 207 45 340 44 c 0
 534.997070312 42.5341796875 603.875976562 198.346679688 607 323 c 0
 682 322 l 0
 680.189453125 113.185546875 560 -59 320 -59 c 0
 137 -59 40.7906648242 50.1077332517 46 176 c 0
 52 321 165 394 276 398 c 0
 338 400 378 379 378 379 c 1
 366 329 l 1xfd
EndSplineSet
Refer: 357 -1 S 1 0 0 1 0 0 2
Fore
SplineSet
41.615234375 160 m 0
 34.5634765625 318.672851562 167.631835938 397.528320312 288.141601562 398 c 0
 345.141601562 398 380.137695312 379 380.137695312 379 c 1
 364.49609375 334 l 1
 341.971679688 344 314.657226562 350 285.657226562 350 c 0
 206.657226562 350 126.487304688 296 123.204101562 206 c 0
 123.465820312 201 122.67578125 197 122.9375 192 c 0
 127.654296875 102 209.74609375 43 366.74609375 43 c 0
 558.74609375 43 657.3046875 185 667.862304688 327 c 1
 729.862304688 327 l 1
 721.811523438 99 582.091796875 -59 354.091796875 -59 c 0
 161.091796875 -59 48.427734375 30 41.615234375 160 c 0
EndSplineSet
Refer: 357 -1 S 1 0 0.0350809 1 50 0 2
LCarets2: 1 0
Ligature2: "si_abvs_2 subtable" si_Tta si_MatraIi
EndChar

StartChar: si_TtU
Encoding: 209 -1 147
GlifName: si_T_tU_
Width: 781
VWidth: -14
Flags: HMW
LayerCount: 2
Back
SplineSet
212 -117 m 1
 228.772460938 -152 l 1
 228.76953125 -143.934570312 162.1875 -188.71875 162.190429688 -228 c 0
 162.1953125 -274.552734375 189.481445312 -288 248 -288 c 1
 615 -288 l 1
 615 167 l 5
 662 167 l 5
 668 -369 l 1
 668 -369 387.048828125 -371.4765625 176 -372.586914062 c 0
 96 -373 54.755859375 -323.6015625 54 -273 c 0
 52.37109375 -163.938476562 212 -117 212 -117 c 1
EndSplineSet
Refer: 0 3495 N 1 0 0 1 0 0 2
Fore
Refer: 70 -1 S 1 0 0.0350809 1 4 0 2
Refer: 0 3495 N 1 0 0.0350809 1 0 0 2
LCarets2: 1 0
Ligature2: "si_blws_1 subtable" si_Tta si_MatraU
EndChar

StartChar: si_DdI
Encoding: 222 -1 159
GlifName: si_D_dI_
Width: 873
VWidth: -14
Flags: HMW
LayerCount: 2
Back
Refer: 32 3497 N 1 0 0 1 0 0 2
Fore
SplineSet
758.342773438 401 m 4
 761.425028479 525.186229197 700.080027313 616 577.810546875 616 c 4
 492.433796249 616 419.94926919 587 355.88671875 587 c 4
 291.017946179 587 268.311601352 630.379331774 276.109375 671 c 4
 296.921141781 805.226863712 451.456624659 891 627.70703125 891 c 4
 746.428732283 891 825.541179942 825.828078142 821.833984375 731 c 4
 819.359474291 658.508196721 756.632093224 599 684.16015625 599 c 4
 675.16015625 599 666.16015625 599 657.334960938 601 c 5
 627.884765625 660 l 5
 646.686187298 656.666666667 668.015619508 655 689.534179688 655 c 4
 728.039229247 655 773.849442838 677.77210882 776.87109375 710 c 4
 782.487903893 768.257872702 689.64413958 809.095236429 568.232421875 807 c 4
 442.737528431 804.413595448 331.09982057 761.658073297 324.172851562 676 c 4
 322.159179688 653 334.339230752 630.82065586 375.322265625 632 c 4
 437.809042416 636.387048656 516.130456063 676.472802402 610.372070312 664 c 4
 758.399292677 655.212121212 827.103103788 518.464487657 822.276367188 374 c 4
 815 175 696.042453926 -47 529.537109375 -47 c 0
 450.537109375 -47 406.943359375 18 412.7734375 72 c 1
 411.668945312 70 425.041395887 75.9691024526 423.877929688 74 c 0
 394.31640625 23.96875 322.641601562 -45 224.641601562 -45 c 0
 111.641601562 -45 72.7634239669 15.9217736484 75.1357421875 98 c 0
 80.0151788072 266.8203125 291.000486775 341.4565802 395.5 353 c 0
 404.552734375 354 418.5 353 426.447265625 352 c 1
 426.971679688 362 l 2
 430.119826001 422.03169135 384.29845502 462 328.211914062 462 c 0
 266.211914062 462 236.225585938 405 234.6484375 394 c 1
 229.596679688 393 225.596679688 393 220.596679688 393 c 0
 181.596679688 393 161.698823856 413.999918436 163.216796875 443 c 2
 163.478515625 448 l 1
 171.413085938 504 230.142578125 537 288.142578125 537 c 0
 415.142578125 537 466.468708248 446.939131849 460.8671875 360 c 0
 459.565429688 343.469371449 456.0390625 329.039328835 450.984375 315 c 1
 424.674804688 311.017578125 394.92185512 312.00012343 351.459960938 305 c 0
 262.864257812 289.759752338 153.944335938 233.734693878 139.756835938 148 c 1
 139.336914062 140 l 2
 136.817393546 92.0002044766 175.249023438 62 225.197265625 61 c 1
 229.197265625 61 l 2
 379.197265625 61 422.490234375 162 449.525390625 239 c 1
 474.83984375 245 l 1
 472.315429688 235 470.791992188 225 470.3203125 216 c 0
 467.17578125 156 461.51171875 67 548.51171875 67 c 0
 657.668635983 67 754 248 758.342773438 401 c 4
17.263671875 234 m 1
 35.787109375 244 l 1
 60.7666015625 339 l 1
 134.791067058 352 307.098896555 362 414.971679688 362 c 0
 419.971679688 362 424.971679688 362 429.971679688 362 c 1
 428.395507812 351 l 1
 257.263906965 342 71.0878367761 267 17.263671875 234 c 1
EndSplineSet
Ligature2: "si_abvs_1 subtable" si_Dda si_MatraI
EndChar

StartChar: si_DdIi
Encoding: 223 -1 160
GlifName: si_D_dI_i
Width: 873
VWidth: -14
Flags: HMW
LayerCount: 2
Back
Refer: 32 3497 N 1 0 0 1 0 0 2
Fore
SplineSet
116.129882812 112 m 0
 107.724609375 259.84765625 243.192382812 340.1484375 353.076171875 342 c 1
 342.75390625 310 l 1
 256.75390625 310 191.317382812 242 188.30078125 166 c 0
 188.458007812 163 187.666992188 159 187.82421875 156 c 0
 190.70703125 101 232.802734375 61 305.802734375 61 c 0
 376.802734375 61 439.70703125 101 442.780273438 195 c 1
 449.780273438 195 474.728515625 196 481.728515625 196 c 1
 481.04296875 190 481.357421875 184 481.671875 178 c 0
 485.96875 96 543.802734375 61 612.802734375 61 c 0
 699.802734375 61 763.9296875 154 770.125 322 c 5
 833.125 322 l 5
 827.666992188 159 787.201171875 -42 599.201171875 -42 c 4
 530.201171875 -42 476.576171875 -11 458.327148438 51 c 1
 431.890625 -17 360.1484375 -41 299.1484375 -41 c 0
 206.1484375 -41 121.73828125 5 116.129882812 112 c 0
41.0634765625 285 m 1
 42.76171875 348 l 1
 454.918945312 345 l 1
 449.120117188 303 l 1
 146.120117188 303 l 1
 41.0634765625 285 l 1
180.569335938 428 m 2
 180.202148438 435 l 1
 182.69140625 502 255.380859375 527 308.380859375 527 c 0
 393.380859375 527 458.94921875 478 463.61328125 389 c 0
 467.185546875 351.260742188 457.10546875 322.764648438 449.120117188 303 c 1
 415.967773438 325 l 1
 418.390625 336 419.8671875 346 420.342773438 356 c 0
 420.1328125 360 420.975585938 363 420.766601562 367 c 0
 417.7265625 425 373.83984375 461 303.83984375 461 c 0
 297.83984375 461 291.83984375 461 284.892578125 460 c 1
 232.189453125 378 l 1
 204.032226562 381 182.24609375 396 180.569335938 428 c 2
EndSplineSet
Refer: 357 -1 N 1 0 0.0350809 1 141 0 2
Ligature2: "si_abvs_2 subtable" si_Dda si_MatraIi
EndChar

StartChar: si_DdU
Encoding: 224 -1 161
GlifName: si_D_dU_
Width: 824
VWidth: -14
Flags: HMW
LayerCount: 2
Back
SplineSet
257 -115 m 17xf7
 283.772460938 -160 l 1
 283.76953125 -152.99609375 217.1875 -191.887695312 217.190429688 -226 c 0
 217.194335938 -272.552734375 241.30078125 -285.247070312 293 -285.247070312 c 1
 680 -287 l 9
 680 89 l 25
 737 149 l 25
 743 -367 l 17
 743 -367 397.004882812 -369.6796875 221 -370.586914062 c 0
 141 -371 99.755859375 -321.6015625 99 -271 c 0
 97.37109375 -161.938476562 257 -115 257 -115 c 17xf7
EndSplineSet
Refer: 32 3497 N 1 0 0 1 -40 0 2
Fore
SplineSet
89.09765625 -269 m 0
 92.4375 -161 253.02734375 -115 253.02734375 -115 c 1
 277.333007812 -159 l 1
 268.333007812 -159 210.219726562 -195 208.84375 -226 c 1
 209.368164062 -236 l 2
 211.412109375 -275 234.936523438 -285 282.936523438 -285 c 2
 669.936523438 -285 l 9
 683.3359375 89 l 25
 742.19140625 149 l 25
 724.233398438 -367 l 17
 724.233398438 -367 383.443359375 -371 207.443359375 -371 c 0
 131.443359375 -371 92.1376953125 -327 89.5693359375 -278 c 0
 89.412109375 -275 89.2548828125 -272 89.09765625 -269 c 0
EndSplineSet
Refer: 32 3497 N 1 0 0.0350809 1 -40 0 2
LCarets2: 1 0
Ligature2: "si_blws_1 subtable" si_Dda si_MatraU
EndChar

StartChar: si_NnI
Encoding: 237 -1 173
GlifName: si_N_nI_
Width: 1371
VWidth: 0
Flags: HMW
LayerCount: 2
Back
Refer: 33 3499 N 1 0 0 1 0 0 2
Fore
SplineSet
541.77734375 640 m 0
 542.95986005 801.246616623 714.800901957 868 833.3046875 868 c 0
 920.3046875 868 1008.08947053 834.000133877 1011.80761719 763 c 2
 1012.2265625 755 l 1
 1010.53222656 711 986.733398438 669 986.733398438 669 c 1
 952.733398438 669 l 1
 954.26171875 678 954.790319675 687.0000147 954.37109375 695 c 0
 951.279296875 754 895.70703125 784 817.70703125 784 c 0
 724.621453369 784 592.400056071 755.22419729 588.8828125 638 c 0
 587.369102504 587.550426177 636.305009811 570.588628763 670.079101562 559 c 1
 670.599609375 538 l 1
 657.861328125 533 648.018554688 530 636.018554688 530 c 0
 580.018554688 530 541.362283085 575.012497421 541.77734375 640 c 0
EndSplineSet
Refer: 33 3499 S 1 0 0 1 0 0 2
Ligature2: "si_abvs_1 subtable" si_Nna si_MatraI
EndChar

StartChar: si_NnU
Encoding: 239 -1 175
GlifName: si_N_nU_
Width: 1371
Flags: HMW
LayerCount: 2
Back
Refer: 33 3499 N 1 0 0 1 0 0 2
Fore
SplineSet
318.065429688 -246 m 0
 326.962898106 -150.536787684 466.938476562 -108 466.938476562 -108 c 1
 469.418337732 -113.315285898 479.490469911 -134.896096822 479.088867188 -135 c 1
 468.148971446 -137.936523438 401.044379962 -173.17014071 396.828125 -218 c 0
 393.853515625 -249.627906977 415.088890768 -258.66843348 461.065429688 -258 c 2
 1168.890625 -248 l 5
 1244.78515625 209 l 1
 1288.78515625 209 l 1
 1198.89160156 -328 l 5
 1198.89160156 -328 680.603927823 -332 418.541992188 -332 c 0
 345.541992188 -332 313.780282037 -291.976444166 318.065429688 -246 c 0
EndSplineSet
Refer: 33 3499 N 1 0 0 1 0 0 2
LCarets2: 1 0
Ligature2: "si_blws_1 subtable" si_Nna si_MatraU
EndChar

StartChar: si_TIi
Encoding: 249 -1 180
GlifName: si_T_I_i
Width: 1072
VWidth: -24
Flags: HMW
LayerCount: 2
Back
SplineSet
317 427 m 1x2d80
 319.586914062 689.754882812 480.518547864 816.205147793 652 833 c 0
 786.000976562 846.124023438 920.791692129 777.673684576 916 642 c 0
 913.940185547 583.67767693 881.333333333 492 786 492 c 1
 676.076686501 492.000002228 633.558376437 552.792051998 636 619 c 0
 637.942019745 679.022037163 687.117908899 724.326048316 740 743 c 1
 760.968082501 734.068306627 781.218291421 724.317699544 800 714 c 1
 754 714 716.37918509 680.631318228 712 629 c 0
 710.627174559 594.718865376 732.490804277 555 775 555 c 0
 806.914762406 555 825.445623509 579.684590917 825 608 c 0
 823.291521193 716.558627094 717.885723905 746.201365225 610 736 c 0
 485.984375 724.2734375 365.77734375 641.188476562 364 427 c 1
 317 427 l 1x2d80
EndSplineSet
Refer: 8 3501 N 1 0 0 1 0 0 2
Fore
Refer: 363 -1 N 1 0 0.0350809 1 385.686 6 2
Refer: 8 3501 S 1 0 0.0350809 1 0 0 2
LCarets2: 1 0
Ligature2: "si_abvs_2 subtable" si_Ta si_MatraIi
EndChar

StartChar: si_TU
Encoding: 250 -1 181
GlifName: si_T_U_
Width: 1085
VWidth: -24
Flags: HMW
LayerCount: 2
Back
SplineSet
758 8 m 13
 788 -22 l 21
 775 -40 735.653320312 -70.2509765625 742 -124 c 4
 747.765148819 -172.824130769 798 -203 867 -202 c 4
 929.642578125 -201.091796875 975 -174 1010 -139 c 13
 1054 -228 l 4
 1001 -278 921.443359375 -295.733398438 857 -294 c 4
 765.02734375 -291.526367188 683.208984375 -256.041015625 683 -140 c 4
 682.877929688 -71.982421875 733.476258379 -13.4625335028 758 8 c 13
278 378 m 1
 290 401 293.788085938 421.989257812 293 440 c 0
 290.88671875 488.322265625 241.939453125 510.5859375 200 501 c 0
 168.6171875 493.826171875 143.75 469.586914062 140 425 c 1
 180 370 l 1
 166 346 142.997070312 333.926757812 121 335 c 0
 80 337 56 368 56 414 c 0
 56 494 122.979492188 562.083984375 220 558 c 0
 303.716796875 554.475585938 353.256835938 480.104492188 326 417 c 0
 310.53515625 381.197265625 326 405 313 388 c 1
 278 378 l 1
758 8 m 0
 781.990234375 8.53125 802.926757812 13.7314453125 821 22.541015625 c 1
 906.891601562 64.4072265625 928.108269354 187.794867069 905 279 c 0
 872.266601562 408.19140625 734.73046875 467.030273438 595 462 c 0
 503.25390625 458.697265625 432 431.771484375 345 374 c 1
 328 362 339 367 325 355 c 1
 228 276 176 211 76 79 c 1
 76 79 41.1279296875 98.5439453125 47 107 c 0
 147 251 207 322 305 413 c 1
 312 419 321 420 328 425 c 1
 420 505 533.100585938 555.721679688 642 561 c 0
 837.309570312 570.465820312 990.44140625 449.986328125 1005 282 c 0
 1016.22873366 152.436080151 954.948242188 30.9873046875 851.549804688 -19 c 1
 819.727539062 -34.384765625 783.916015625 -43 745 -43 c 0
 758 8 l 0
106 142 m 1
 121.827148438 148.801757812 135.977539062 157.05859375 149 157.575195312 c 0
 235.53125 161.009765625 244.237304688 64.6337890625 412 62 c 0
 543.998046875 59.927734375 621.387695312 124.006835938 620 205 c 0
 617.891601562 328.076171875 483.087890625 345.88671875 432 346 c 0
 350.086914062 346.181640625 292 328 259 310 c 1
 296 362 l 1
 309 366 372.00390625 395.240234375 444 394 c 0
 544.004882812 392.27734375 679 345 679 195 c 0
 679 89.8291015625 610 -44 412 -44 c 0
 282.072265625 -44 203.453125 7.7138671875 187 67.9970703125 c 0
 171.305664062 125.500976562 129.395507812 127.443359375 84 104 c 1
 106 142 l 1
EndSplineSet
Fore
SplineSet
61.5087890625 391 m 2
 60.984375 401 l 1
 64.267578125 491 157.80859375 557 255.80859375 557 c 0
 317.80859375 557 358.961914062 535 361.6875 483 c 0
 361.844726562 480 361.053710938 476 361.2109375 473 c 0
 360.254882812 434 308.918945312 345 284.229492188 320 c 1
 268.915039062 326 l 1
 293.395507812 355 302.666015625 388 303.622070312 427 c 0
 303.46484375 430 304.307617188 433 304.150390625 436 c 0
 301.844726562 480 270.219726562 511 227.219726562 511 c 0
 180.219726562 511 153.368164062 470 151.779296875 424 c 1
 152.302734375 414 l 2
 153.98046875 382 167.342773438 356 176.918945312 345 c 1
 163.286132812 338 141.49609375 334 125.49609375 334 c 0
 86.49609375 334 63.552734375 352 61.5087890625 391 c 2
43.6015625 103 m 0
 43.287109375 109 43.9208984375 116 45.5009765625 124 c 1
 142.313476562 223 231.854492188 289 324.189453125 378 c 0
 447.005859375 496 592.546875 562 709.546875 562 c 0
 871.546875 562 997.844726562 480 1006.59667969 313 c 0
 1007.22558594 301 1006.95898438 287 1006.640625 274 c 0
 999.663085938 140 917.991210938 -38 709.411132812 -46 c 1
 740.85546875 60 l 1
 855.034179688 60.6708984375 953.877929688 135.341796875 949.006835938 267 c 0
 942.24609375 396 807.783203125 443 672.783203125 443 c 0
 548.783203125 443 428.883789062 422 342.181640625 340 c 0
 329.810546875 328 297.172851562 302 284.90625 288 c 1
 308.805664062 309 344.172851562 326.983398438 365.076171875 342 c 0
 394.286132812 362.983398438 451.98046875 382 494.98046875 382 c 0
 574.98046875 382 634.653320312 331 639.264648438 243 c 0
 639.579101562 237 640.946289062 230 640.260742188 224 c 0
 636.078125 113 560.043945312 -39 358.043945312 -39 c 0
 195.043945312 -39 118.493164062 86 115.243164062 148 c 2
 114.981445312 153 l 1
 116.038085938 171 136.357421875 184 133.833007812 194 c 1
 136.990234375 191 139.990234375 191 142.990234375 191 c 2
 149.990234375 191 l 2
 151.990234375 191 152.990234375 191 153.094726562 189 c 0
 154.333007812 186.228515625 147.8515625 178.23828125 147.93359375 173 c 0
 149.400390625 145 208.908203125 59 344.908203125 59 c 2
 345.908203125 59 l 1
 477.85546875 60 596.497070312 105 600.575195312 218 c 0
 600.470703125 220 600.365234375 222 600.260742188 224 c 0
 597.745117188 272 542.015625 305 477.015625 305 c 0
 382.015625 305 250.745117188 272 197.41796875 221 c 0
 156.409179688 183 79.654296875 102 54.0166015625 76 c 1
 52.912109375 78 44.59765625 84 43.6015625 103 c 0
EndSplineSet
Refer: 364 -1 N 1 0 0.0350809 1 738.38 50 2
LCarets2: 1 0
Ligature2: "si_blws_1 subtable" si_Ta si_MatraU
EndChar

StartChar: si_DI
Encoding: 267 -1 189
GlifName: si_D_I_
Width: 581
Flags: HMW
LayerCount: 2
Back
SplineSet
207 451 m 17
 144 471 106.650390625 537.995117188 106 605 c 0
 105 708 213 812 354 810 c 0
 458 809 555.903320312 734.702148438 558 629 c 0
 559.311523438 562.887695312 513 513 478 499 c 9
 459 524 l 17
 482 544 498.944335938 563.61328125 497 605 c 4
 492.84375 693.477539062 390 711.96875 322 713 c 4
 227.005859375 714.44140625 168 656 169 591 c 0
 169.831054688 537.006835938 201 496 224 486 c 9
 207 451 l 17
EndSplineSet
Refer: 35 3503 N 1 0 0 1 0 0 2
Fore
Refer: 35 3503 N 1 0 0.0350809 1 0 0 2
LCarets2: 1 0
Ligature2: "si_abvs_1 subtable" si_Da si_MatraI
Ligature2: "'abvs' Above Base Substitutions in Sinhala lookup 0-1" si_Da si_MatraI
EndChar

StartChar: si_DU
Encoding: 269 -1 191
GlifName: si_D_U_
Width: 581
Flags: HMW
LayerCount: 2
Back
SplineSet
233 -117 m 1
 249.772460938 -152 l 1
 249.76953125 -143.934570312 183.1875 -188.71875 183.190429688 -228 c 0
 183.1953125 -274.552734375 210.481445312 -288 269 -288 c 1
 516 -288 l 1
 516 40 l 5
 563 40 l 5
 569 -369 l 1
 569 -369 408.048828125 -371.4765625 197 -372.586914062 c 0
 117 -373 75.755859375 -323.6015625 75 -273 c 0
 73.37109375 -163.938476562 233 -117 233 -117 c 1
152 199 m 0
 139.301757812 59.7265625 303.229492188 -21.3037109375 549 67 c 5
 563 40 l 5
 539 36 l 5
 551 38.3330078125 529 25.6669921875 493 12 c 5
 273.506835938 -100.266601562 38.8994140625 -4.337890625 41 165 c 0
 42.919921875 319.76171875 205.887695312 393.12109375 397 394 c 0
 456.002929688 394.271484375 499 385 499 385 c 1
 499 387.5 488.354492188 375.5 488 378 c 1
 491.599609375 475 373 506 318 498 c 1
 262 409 l 1
 216 412 195.556640625 452.114257812 205 488 c 0
 220 545 273 571 336 571 c 0
 408 571 506 528 520 444 c 0
 529.095703125 389.426757812 513 345 513 345 c 1
 513 343 l 1
 273.458007812 364.4921875 162.536132812 306.422851562 152 199 c 0
EndSplineSet
Fore
Refer: 35 3503 N 1 0 0.0350809 1 0 0 2
LCarets2: 1 0
Ligature2: "si_blws_1 subtable" si_Da si_MatraU
EndChar

StartChar: si_NU
Encoding: 297 -1 203
GlifName: si_N_U_
Width: 1082
VWidth: -24
Flags: HMW
LayerCount: 2
Back
SplineSet
302 -117 m 5
 318.772460938 -152 l 5
 318.76953125 -143.934570312 252.1875 -188.71875 252.190429688 -228 c 4
 252.1953125 -274.552734375 279.481445312 -288 338 -288 c 5
 915 -288 l 5
 915 127 l 5
 962 127 l 5
 968 -369 l 5
 968 -369 477.048828125 -371.4765625 266 -372.586914062 c 4
 186 -373 144.755859375 -323.6015625 144 -273 c 4
 142.37109375 -163.938476562 302 -117 302 -117 c 5
EndSplineSet
Refer: 9 3505 N 1 0 0 1 0 0 2
Fore
SplineSet
188.065429688 -246 m 4
 196.962898106 -150.536787684 336.938476562 -108 336.938476562 -108 c 5
 339.418337732 -113.315285898 349.490469911 -134.896096822 349.088867188 -135 c 5
 338.148971446 -137.936523438 270.611714039 -173.131552914 266.828125 -218 c 4
 263.853515625 -249.627906977 285.094919337 -259.083093631 331.065429688 -258 c 6
 868.890625 -248 l 5
 964.78515625 209 l 5
 1008.78515625 209 l 5
 898.891601562 -328 l 5
 898.891601562 -328 493.513453858 -332 288.541992188 -332 c 4
 215.541992188 -332 183.780282037 -291.976444166 188.065429688 -246 c 4
EndSplineSet
Refer: 9 3505 N 1 0 0.0350809 1 0 0 2
LCarets2: 1 0
Ligature2: "si_blws_1 subtable" si_Na si_MatraU
EndChar

StartChar: si_NdU
Encoding: 307 -1 208
GlifName: si_N_dU_
Width: 692
VWidth: 0
Flags: HMW
LayerCount: 2
Fore
SplineSet
118.065429688 -275 m 4
 126.962898106 -179.536787684 266.938476562 -137 266.938476562 -137 c 21
 280.001953125 -165 l 6
 280.088867188 -164 280.088867188 -164 279.088867188 -164 c 4
 268.148971446 -166.830384036 200.614830795 -200.753576807 196.828125 -244 c 4
 193.853515625 -278 215.065429688 -287 261.065429688 -287 c 6
 495.890625 -277 l 13
 571.78515625 59 l 29
 621.78515625 59 l 29
 531.891601562 -357 l 21
 531.891601562 -357 323.770955366 -360 218.541992188 -361 c 4
 145.541992188 -361 114.041015625 -321 118.065429688 -275 c 4
58.8046875 159 m 0
 70.568359375 379.24609375 230.251953125 589 472.33984375 589 c 0
 517.502929688 589 557.509765625 574.20703125 580.8203125 556 c 1
 568.513671875 525 l 1
 565.467773438 533.2734375 508.021484375 531.794921875 489.3046875 531 c 0
 292.819335938 536.799804688 111.22265625 364.693359375 101.32421875 168 c 1
 98.07421875 21 145.104492188 -27 145.104492188 -27 c 1
 129.48828125 -56 l 1
 99.3837890625 -32.212890625 52.5400390625 44.7548828125 58.8046875 159 c 0
550.043945312 39 m 1
 559.991210938 38 569.678710938 47.6181640625 579.358398438 45 c 0
 584.469726562 43.6181640625 588.1484375 41 593.043945312 39 c 1
 550.043945312 39 l 1
168.502929688 105 m 0
 176.1640625 251.18359375 303 372 495.6484375 394 c 0
 537.55078125 398.78515625 561 396 603.38671875 389 c 0
 607.938476562 388.248046875 604.858398438 398 605.068359375 402 c 0
 608.526367188 468 568.990234375 515 519.990234375 515 c 2
 515.990234375 515 l 1
 472.884765625 513 422.526367188 468 406.377929688 427 c 1
 402.326171875 426 397.326171875 426 392.326171875 426 c 0
 361.326171875 426 324.1640625 442 326.155273438 480 c 0
 329.614257812 546 405.763671875 587 462.763671875 587 c 0
 613.563476562 587 673.47265625 485.66015625 628.290039062 349 c 1
 628.23828125 348 l 1
 595.5 353 561.709960938 357 533.709960938 357 c 0
 368.262695312 357 276.174804688 260.48828125 269.65625 137 c 0
 266.176757812 58.271484375 317.044921875 20 388.047851562 20 c 0
 470.047851562 20 565.8828125 55 631.188476562 99 c 1
 628.987304688 57 630.877929688 74 618.568359375 49 c 1
 574.572265625 30 484.588867188 -46 389.588867188 -46 c 0
 261.588867188 -46 162.528320312 -9 168.502929688 105 c 0
EndSplineSet
LCarets2: 1 0
Ligature2: "si_blws_1 subtable" si_Nda si_MatraU
EndChar

StartChar: si_PU
Encoding: 313 -1 213
GlifName: si_P_U_
Width: 798
VWidth: -24
Flags: HMW
LayerCount: 2
Back
Refer: 70 -1 S 1 0 0 1 697 0 2
Refer: 1 3508 N 1 0 0 1 0 0 2
Fore
SplineSet
28.0654296875 -245 m 0
 36.9628981058 -149.536787684 176.938476562 -107 176.938476562 -107 c 17
 190.001953125 -135 l 2
 190.088867188 -134 190.088867188 -134 189.088867188 -134 c 0
 178.148971446 -136.830384036 110.614830795 -170.753576807 106.828125 -214 c 0
 103.853515625 -248 125.065429688 -257 171.065429688 -257 c 2
 579.890625 -247 l 13
 661.78515625 119 l 25
 711.78515625 119 l 25
 615.891601562 -327 l 21
 615.891601562 -327 292.20357837 -330 128.541992188 -331 c 0
 55.5419921875 -331 24.041015625 -291 28.0654296875 -245 c 0
EndSplineSet
Refer: 1 3508 N 1 0 0 1 30 0 2
LCarets2: 1 0
Ligature2: "si_blws_1 subtable" si_Pa si_MatraU
EndChar

StartChar: si_PRa
Encoding: 317 -1 217
GlifName: si_P_R_a
Width: 778
VWidth: -24
Flags: HMW
LayerCount: 2
Back
Refer: 1 3508 N 1 0 0 1 0 0 2
Fore
SplineSet
-22.1611328125 -139 m 9
 0.6767578125 -118 l 17
 2.37096812932 -119.947389836 113.129844418 -207.445352315 286.615234375 -203 c 4
 540.78125 -196.487304688 658.94921875 68 699.422851562 222 c 9
 724.373046875 210 l 25
 724.373046875 210 713.248046875 140 690.911132812 79 c 0
 623.449650795 -105.693655633 504.043945312 -314.028320312 236.965820312 -309 c 0
 59.5546875 -305.66015625 -21.435546875 -165 -22.1611328125 -139 c 9
EndSplineSet
Refer: 1 3508 N 1 0 0.0350809 1 0 0 2
LCarets2: 3 0 0 0
Ligature2: "si_rakaar subtable" si_Pa si_Halant zwj si_Ra
EndChar

StartChar: si_BI
Encoding: 327 -1 227
GlifName: si_B_I_
Width: 835
VWidth: -24
Flags: HMW
LayerCount: 2
Back
Refer: 39 3510 N 1 0 0 1 0 0 2
Fore
SplineSet
41.44921875 125 m 0
 34.4873046875 315.399414062 166.92578125 434.447265625 311.202148438 435 c 0
 405.202148438 435 503.084960938 380 509.112304688 265 c 0
 509.426757812 259 510.741210938 253 510.107421875 246 c 0
 510.317382812 242 508.52734375 238 508.736328125 234 c 1
 496.470703125 220 l 1
 468.836914062 213 428.409179688 183 426.134765625 131 c 1
 426.500976562 124 l 2
 429.016601562 76 478.327148438 51 543.327148438 51 c 0
 654.327148438 51 712.880859375 174 724.333984375 318 c 5
 788.229492188 320 l 5
 781.287109375 109 696.987304688 -57 539.987304688 -57 c 0
 419.987304688 -57 370.528320312 9 366.754882812 81 c 0
 366.493164062 86 366.23046875 91 365.96875 96 c 0
 368.671875 178 428.474609375 239 480.845703125 251 c 1
 467.631835938 236 l 1
 417.491210938 315 354.338867188 337 297.338867188 337 c 0
 186.220703125 337.76953125 85.53515625 258.046875 92.4443359375 106 c 0
 96.2177734375 34 129.943359375 -18 195.943359375 -18 c 0
 236.943359375 -18 258.213867188 15 258.798828125 42 c 1
 258.431640625 49 l 2
 256.912109375 78 239.70703125 101 209.70703125 101 c 0
 183.70703125 101 159.754882812 81 158.694335938 44 c 0
 158.798828125 42 158.903320312 40 159.008789062 38 c 0
 160.37109375 12 175.890625 -17 215.153320312 -22 c 1
 217.729492188 -33 l 1
 161.625 -31 121.3671875 -7 118.956054688 39 c 2
 118.537109375 47 l 1
 120.549804688 104 166.034179688 152 226.034179688 152 c 0
 270.034179688 152 318.7109375 120 321.802734375 61 c 0
 321.959960938 58 321.1171875 55 321.327148438 51 c 0
 319.052734375 -1 279.091796875 -59 198.091796875 -59 c 0
 89.091796875 -59 46.0087890625 38 41.44921875 125 c 0
EndSplineSet
Refer: 356 -1 N 1 0 0.0350809 1 95 0 2
Ligature2: "si_abvs_1 subtable" si_Ba si_MatraI
EndChar

StartChar: si_BhI
Encoding: 337 -1 237
GlifName: si_B_hI_
Width: 1013
VWidth: -24
Flags: HMW
LayerCount: 2
Back
Refer: 40 3511 N 1 0 0 1 0 0 2
Fore
SplineSet
499.881835938 571 m 4
 500.390671801 693.394140851 628.088518756 845.093455232 814.497070312 851 c 4
 939.90809158 854.413704715 1018 792.367345327 1018 704 c 4
 1018 607.512195122 926.183995594 490.127158717 821.036132812 489 c 5
 814.075195312 510 l 5
 812.865384305 505.349666401 941.420898438 536.535428782 941.420898438 657 c 4
 941.420898438 713.193548387 905.928821834 765.958052943 785.266601562 761 c 4
 671.507663765 756.19523738 550.341249265 696.047746328 545.766601562 594 c 4
 541.767693458 509.297710614 600.240967157 486.271175436 681.344726562 527 c 5
 679.920898438 488 l 5
 570.939652303 449.60075812 499.429028057 491.462493664 499.881835938 571 c 4
EndSplineSet
Refer: 40 3511 N 1 0 0.139896 1 -39.7904 4 2
LCarets2: 1 0
Ligature2: "si_abvs_1 subtable" si_Bha si_MatraI
EndChar

StartChar: si_M.halant
Encoding: 346 -1 246
GlifName: si_M_.halant
Width: 851
VWidth: -14
Flags: HMW
LayerCount: 2
Back
Refer: 41 3512 N 1 0 0 1 0 0 2
Fore
SplineSet
193.235351562 823 m 0
 194.180664062 832 197.3359375 843 202.700195312 856 c 1
 202.700195312 856 265.010742188 884 358.36328125 884 c 0
 749.469726562 884 776.176757812 567.278320312 755.086914062 356 c 0
 751.411132812 321 746.15625 290 741.53125 265 c 1
 728.581054688 275 l 1
 728.581054688 275 730.318359375 283.016601562 731.890625 297 c 0
 743.692382812 406.359375 759.115234375 828 349.853515625 828 c 0
 330.186523438 828 310.51953125 828 290.853515625 828 c 1
 387.373046875 846 l 1
 312.19140625 832 207.583007812 734 187.306640625 693 c 1
 148.9375 699 l 1
 193.71484375 757 271.548828125 847 326.002929688 852 c 1
 271.642578125 826 l 1
 238.380859375 819.297851562 225.98046875 814.3828125 197.344726562 805 c 1
 193.66015625 808 192.290039062 814 193.235351562 823 c 0
EndSplineSet
Refer: 41 3512 N 1 0 -0.104816 1 0 0 2
LCarets2: 1 0
Ligature2: "si_halant_1 subtable" si_Ma si_Halant
EndChar

StartChar: si_MI
Encoding: 347 -1 247
GlifName: si_M_I_
Width: 797
VWidth: -14
Flags: HMW
LayerCount: 2
Back
Refer: 41 3512 N 1 0 0 1 0 0 2
Fore
SplineSet
47.4140625 202 m 0
 43.671875 336.625976562 121.497070312 458.572265625 239.94921875 478 c 1
 244.154296875 455 l 1
 242.516601562 429 241.72265625 406 242.823242188 385 c 0
 247.330078125 299 278.741210938 253 376.741210938 253 c 2
 378.741210938 253 l 1
 478.688476562 254 516.657226562 350 513.931640625 402 c 0
 511.940429688 440 474.001953125 477 415.001953125 477 c 2
 413.001953125 477 l 2
 382.001953125 477 363.049804688 457 364.412109375 431 c 0
 364.443359375 407.693359375 387.94921875 393.8671875 416.298828125 395 c 0
 447.298828125 395 485.72265625 406 532.940429688 440 c 1
 530.24609375 396 l 1
 487.23828125 358 447.971679688 344 414.971679688 344 c 2
 407.971679688 344 l 1
 329.76171875 348 302.875 384 300.46484375 430 c 0
 297.58203125 485 346.490234375 544 420.490234375 544 c 0
 496.490234375 544 566.215820312 492 571.24609375 396 c 0
 576.90625 288 505.094726562 189 379.094726562 189 c 2
 378.094726562 189 l 1
 267.04296875 190 212.845703125 251 207.918945312 345 c 0
 207.23828125 358 207.50390625 372 208.717773438 387 c 1
 158.452148438 373 96.333984375 318 93.52734375 238 c 0
 93.736328125 234 92.8935546875 231 93.103515625 227 c 0
 97.8203125 137 201.96484375 77 335.96484375 77 c 0
 336.96484375 77 337.96484375 77 338.96484375 77 c 0
 545.912109375 78 682.465820312 201 694.713867188 368 c 1
 759.447265625 354 l 1
 742.239257812 129 587.782226562 -34 355.782226562 -34 c 0
 139.782226562 -34 53.3876953125 88 47.4140625 202 c 0
EndSplineSet
Refer: 356 -1 N 1 0 0.0350809 1 31 0 2
LCarets2: 1 0
Ligature2: "si_abvs_1 subtable" si_Ma si_MatraI
EndChar

StartChar: si_MIi
Encoding: 348 -1 248
GlifName: si_M_I_i
Width: 826
VWidth: -14
Flags: HMW
LayerCount: 2
Back
Refer: 41 3512 N 1 0 0 1 0 0 2
Fore
SplineSet
46.841796875 232 m 0
 46.3173828125 242 45.79296875 252 46.26953125 262 c 0
 51.09375 418 127.739257812 482 194.739257812 482 c 0
 235.739257812 482 262.892578125 460 265.72265625 406 c 0
 265.984375 401 265.24609375 396 265.508789062 391 c 0
 264.875 384 265.2421875 377 265.556640625 371 c 0
 271.059570312 266 345.845703125 251 401.845703125 251 c 0
 403.845703125 251 405.845703125 251 407.845703125 251 c 0
 497.284179688 253.600585938 542.197265625 297.678710938 540.452148438 373 c 0
 537.569335938 428 500.368164062 470 440.368164062 470 c 0
 391.862304688 472.356445312 361.688476562 441.134765625 362.141601562 398 c 0
 363.084960938 380 374.23828125 358 406.23828125 358 c 0
 441.23828125 358 460.61328125 389 461.198242188 416 c 0
 461.041015625 419 461.831054688 423 461.673828125 426 c 0
 460.73046875 444 455.892578125 460 447.106445312 475 c 1
 472.159179688 474 l 1
 485.83984375 461 494.993164062 439 496.09375 418 c 2
 496.512695312 410 l 1
 495.1328125 360 460.6484375 312 400.6484375 312 c 0
 360.6484375 312 317.49609375 334 314.666015625 388 c 0
 314.508789062 391 315.298828125 395 315.141601562 398 c 0
 317.311523438 452 361.586914062 504 435.586914062 504 c 0
 525.586914062 504 574.625976562 446 578.346679688 375 c 0
 578.609375 370 577.87109375 365 578.1328125 360 c 0
 575.587890625 275 516.200195312 187 397.200195312 187 c 0
 349.200195312 187 301.465820312 201 266.684570312 235 c 0
 240.374023438 260 226.330078125 299 223.552734375 352 c 0
 223.185546875 359 223.766601562 367 223.346679688 375 c 2
 222.508789062 391 l 2
 220.569335938 428 209.73046875 444 187.73046875 444 c 0
 139.73046875 444 106.137695312 379 103.958984375 287 c 0
 104.2734375 281 103.587890625 275 103.90234375 269 c 0
 111.186523438 130 239.641601562 45 398.694335938 44 c 1
 400.694335938 44 l 2
 621.694335938 44 709.514648438 181 720.7578125 329 c 1
 783.49609375 334 l 1
 774.96875 96 624.040039062 -58 400.040039062 -58 c 0
 184.040039062 -58 55.48828125 67 46.841796875 232 c 0
EndSplineSet
Refer: 357 -1 N 1 0 0.0350809 1 93 0 2
LCarets2: 1 0
Ligature2: "si_abvs_2 subtable" si_Ma si_MatraIi
EndChar

StartChar: si_MU
Encoding: 349 -1 249
GlifName: si_M_U_
Width: 856
VWidth: -14
Flags: HMW
LayerCount: 2
Back
Refer: 41 3512 N 1 0 0 1 0 0 2
Fore
SplineSet
38.0654296875 -255 m 0
 46.9628981058 -159.536787684 186.938476562 -117 186.938476562 -117 c 17
 200.001953125 -145 l 2
 200.088867188 -144 200.088867188 -144 199.088867188 -144 c 0
 188.148971446 -146.830384036 120.614830795 -180.753576807 116.828125 -224 c 0
 113.853515625 -258 135.065429688 -267 181.065429688 -267 c 2
 575.890625 -257 l 9
 671.78515625 169 l 25
 721.78515625 169 l 25
 611.891601562 -337 l 17
 611.891601562 -337 297.502102956 -340 138.541992188 -341 c 0
 65.5419921875 -341 34.041015625 -301 38.0654296875 -255 c 0
EndSplineSet
Refer: 41 3512 N 1 0 0.0350809 1 10 0 2
Ligature2: "si_blws_1 subtable" si_Ma si_MatraU
EndChar

StartChar: si_YI
Encoding: 362 -1 262
GlifName: si_Y_I_
Width: 856
VWidth: -24
Flags: HMW
LayerCount: 2
Back
Refer: 43 3514 N 1 0 0 1 0 0 2
Fore
SplineSet
353.85546875 646 m 0
 354.065429688 650 355.274414062 654 355.484375 658 c 0
 373.087890625 784 497.541992188 869 679.541992188 869 c 0
 840.541992188 869 931.087890625 784 925.689453125 681 c 0
 925.427734375 676 924.166015625 671 923.903320312 666 c 0
 912.868164062 589 837.094726562 517 774.094726562 517 c 1
 729.352539062 541 l 1
 729.352539062 541 834.771484375 549 849.274414062 654 c 0
 849.431640625 657 850.537109375 659 850.694335938 662 c 0
 854.415039062 733 768.245117188 787 637.296875 788 c 1
 633.296875 788 l 2
 525.296875 788 429.201171875 748 417.956054688 667 c 1
 417.22265625 653 l 2
 412.977539062 572 477.461914062 524 608.461914062 524 c 2
 612.461914062 524 l 5
 602.155273438 480 l 1
 436.208007812 481 349.0859375 555 353.85546875 646 c 0
EndSplineSet
Refer: 43 3514 N 1 0 0.139896 1 0 0 2
Ligature2: "si_abvs_1 subtable" si_Ya si_MatraI
EndChar

StartChar: si_YU
Encoding: 364 -1 264
GlifName: si_Y_U_
Width: 836
VWidth: -24
Flags: HMW
LayerCount: 2
Back
SplineSet
392 -115 m 21xff20
 418.772460938 -160 l 5
 418.76953125 -152.99609375 352.1875 -191.887695312 352.190429688 -226 c 4
 352.194335938 -272.552734375 386.30078125 -285.247070312 428 -285.247070312 c 5
 745 -287 l 13xff20
 745 169 l 29xff40
 802 169 l 29
 808 -367 l 21
 808 -367 532.004882812 -369.6796875 356 -370.586914062 c 4
 276 -371 234.755859375 -321.6015625 234 -271 c 4
 232.37109375 -161.938476562 392 -115 392 -115 c 21xff20
EndSplineSet
Refer: 43 3514 N 1 0 0 1 0 0 2
Fore
SplineSet
47.0654296875 -246 m 4
 55.9628981058 -150.536787684 195.938476562 -108 195.938476562 -108 c 21
 209.001953125 -136 l 6
 209.088867188 -135 209.088867188 -135 208.088867188 -135 c 4
 197.148971446 -137.830384036 129.614830795 -171.753576807 125.828125 -215 c 4
 122.853515625 -249 144.065429688 -258 190.065429688 -258 c 6
 618.890625 -248 l 13
 726.78515625 209 l 29
 767.78515625 209 l 29
 657.891601562 -328 l 21
 657.891601562 -328 318.927430836 -331 147.541992188 -332 c 4
 74.5419921875 -332 43.041015625 -292 47.0654296875 -246 c 4
EndSplineSet
Refer: 43 3514 S 1 0 0 1 -1 0 2
LCarets2: 1 0
Ligature2: "si_blws_1 subtable" si_Ya si_MatraU
EndChar

StartChar: si_Ya.post
Encoding: 367 -1 267
GlifName: si_Y_a.post
Width: 713
VWidth: -11
Flags: HMW
LayerCount: 2
Fore
SplineSet
46.73828125 -5 m 1
 46.73828125 -5 347.807617188 187.1484375 359.64453125 413 c 0
 363.575195312 488 316.147460938 518 271.147460938 518 c 0
 230.147460938 518 180.893554688 475 164.745117188 434 c 1
 113.741210938 453 l 1
 140.413085938 504 188.872070312 570 275.924804688 571 c 0
 276.924804688 571 277.924804688 571 278.924804688 571 c 0
 383.924804688 571 403.255859375 501 399.90234375 437 c 0
 398.64453125 413 394.491210938 391 390.547851562 373 c 0
 349.481445312 200 229.462890625 47 79.3271484375 -51 c 1
 46.73828125 -5 l 1
162.576171875 11 m 1
 178.305664062 44 l 1
 223.826171875 73 247.349609375 83 267.349609375 83 c 0
 268.349609375 83 269.349609375 83 270.349609375 83 c 0
 327.349609375 83 329.515625 48 443.515625 48 c 0
 583.515625 48 667.499023438 124 677.638671875 203 c 0
 677.795898438 206 677.953125 209 678.110351562 212 c 0
 681.98828125 286 610.032226562 325 452.032226562 325 c 2
 424.032226562 325 l 1
 447.526367188 468 523.400390625 561 630.663085938 566 c 1
 635.663085938 566 l 2
 687.663085938 566 743.352539062 541 739.7890625 473 c 0
 739.474609375 467 739.107421875 460 737.741210938 453 c 0
 720.181640625 366 619.23828125 348 619.23828125 348 c 1
 615.338867188 369 l 2
 615.401367188 367.49609375 660.869140625 404.596679688 660.26953125 444 c 0
 662.3125 483 634.67578125 509 594.67578125 509 c 2
 592.67578125 509 l 1
 508.5703125 507 485.172851562 404 485.172851562 404 c 1
 493.225585938 405 502.225585938 405 510.225585938 405 c 0
 620.225585938 405 720.818359375 340 714.005859375 210 c 0
 706.615234375 68.9912109375 624.026367188 -53.611328125 459.012695312 -57 c 0
 457.012695312 -57 455.012695312 -57 453.012695312 -57 c 0
 317.1171875 -55 353.358398438 45 251.411132812 46 c 0
 216.411132812 46 187.572265625 30 162.576171875 11 c 1
EndSplineSet
LCarets2: 2 0 0
Ligature2: "si_yansaya subtable" si_Halant zwj si_Ya
EndChar

StartChar: si_R.halant
Encoding: 374 -1 274
GlifName: si_R_.halant
Width: 779
VWidth: -5
Flags: HMW
LayerCount: 2
Back
Refer: 50 3530 N 1 0 0 1 189 -15 2
Refer: 4 3515 N 1 0 0 1 0 0 2
Fore
SplineSet
318.865234375 837 m 2
 316.983398438 788.587890625 346.051757812 756.962890625 392.411132812 752 c 0
 415.411132812 752 435.14453125 766 436.768554688 797 c 0
 440.018554688 859 368.170898438 881 325.538085938 888 c 1
 319.284179688 845 l 1
 318.865234375 837 l 2
213.736328125 472 m 5
 289.735351562 949 l 5
 316.940429688 972 l 1
 344.573242188 965 468.94921875 934 469.502929688 811 c 1
 468.821289062 798 l 2
 465.991210938 744 440.475585938 696 379.423828125 695 c 1
 377.423828125 695 l 2
 337.423828125 695 312.99609375 725 306.515625 754 c 1
 268.260742188 482 l 1
 213.736328125 472 l 5
EndSplineSet
Refer: 4 3515 N 1 0 0.139896 1 0 0 2
LCarets2: 1 0
Ligature2: "si_halant_1 subtable" si_Ra si_Halant
EndChar

StartChar: si_RAe
Encoding: 375 -1 275
GlifName: si_R_A_e
Width: 1039
VWidth: -5
Flags: HMW
LayerCount: 2
Back
SplineSet
686 286 m 0x40
 673.03149213 197.912101269 683.9552585 23.4596878133 851 13 c 0
 925.485704848 8.33599673795 962.101694915 38.7880859375 989 59 c 1
 1010 37 l 1
 993.342145647 -6.75 912.446649603 -65.0229953974 822 -63 c 0
 630.048097803 -58.706664466 595.259201143 73.8189539074 611 230 c 0
 633.347946036 451.737512925 768.240645813 647.688455021 821.163085938 712 c 1x40
 764.849913129 709.587890625 655.975856126 706.22265625 586 703.856445312 c 1
 637 779.116210938 l 1x80
 660.844270833 779.107421875 857.060351562 778.998046875 892 779 c 1
 892 723 l 1
 804.762510102 649.886284722 704.792626773 413.647916063 686 286 c 0x40
EndSplineSet
Refer: 4 3515 N 1 0 0 1 0 0 2
Fore
SplineSet
626.651367188 146 m 0
 627.333007812 159 682.823242188 321 684.399414062 332 c 0
 713.977539062 572 900.310546875 731 969.51953125 735 c 1
 679.899414062 685 l 1
 682.947265625 705 728.25390625 749 734.616210938 775 c 1
 1031.61621094 775 l 1
 1028.375 675 l 1
 1014.74609375 663 l 1
 905.744140625 657.5 726.422851562 485.102539062 712.21484375 214 c 0
 707.813476562 130 747.625 31 850.625 31 c 0
 897.625 31 972.197265625 61 994.612304688 88 c 1
 1001.67675781 32 l 1
 977.947265625 -1 900.436523438 -68 811.436523438 -68 c 0
 667.436523438 -68 621.252929688 42.9951171875 626.651367188 146 c 0
EndSplineSet
Refer: 4 3515 S 1 0 0.139896 1 0 0 2
LCarets2: 1 0
Ligature2: "si_raer subtable" si_Ra si_MatraAe
EndChar

StartChar: si_RI
Encoding: 377 -1 277
GlifName: si_R_I_
Width: 719
VWidth: -5
Flags: HMW
LayerCount: 2
Back
SplineSet
643 795 m 1
 643 717.080078125 566.435546875 670.377929688 458 604 c 0
 330 526 125 415 125 245 c 0
 125 138 214 48 360 48 c 0
 508.439453125 48 582.853515625 153 586 252 c 0
 590.389648438 389.393554688 492.021484375 476 367 476 c 0
 208.249023438 476 137 339 137 339 c 1
 165 428 l 0
 164 431 253.985351562 531.200195312 386 532 c 0
 536.497070312 532.912109375 668.461914062 424.852539062 665 245 c 0
 661.881835938 83.00390625 550.1171875 -52 356 -52 c 0
 153 -52 47.3369140625 93.9853515625 55 252 c 0
 67.9033203125 518.061523438 446 614 544 746 c 1
 584 834 l 1
 626.75390625 835.307617188 643 821.384765625 643 795 c 1
263 493 m 17
 162.110351562 451.639648438 106.826491728 577.491101825 179 703 c 0
 232.83203125 796.61328125 347.963867188 867.708984375 453 836 c 0
 541.97265625 809.140625 493 674 493 674 c 25
 459 666 l 25
 459 666 464.546875 750.15234375 395 758 c 0
 338.370117188 764.389648438 285.21875 739.506835938 241 692 c 0
 159.2421875 604.162109375 198.736328125 514.29296875 259 522 c 9
 263 493 l 17
EndSplineSet
Fore
SplineSet
195.956054688 667 m 2
 196.637695312 680 l 1
 218.498046875 830 373.84375 932 490.84375 932 c 0
 578.84375 932 603.6953125 891 601.546875 850 c 0
 601.336914062 846 600.1796875 843 599.969726562 839 c 0
 588.563476562 774 505.685546875 700 490.7421875 682 c 1
 455.689453125 681 l 1
 492.209960938 710 516.620117188 756 524.502929688 811 c 0
 524.66015625 814 524.817382812 817 524.974609375 820 c 0
 526.704101562 853 513.642578125 890 465.6953125 891 c 1
 464.6953125 891 l 2
 388.6953125 891 297.607421875 813 281.318359375 693 c 0
 281.109375 689 279.952148438 686 279.7421875 682 c 0
 276.3359375 617 329.497070312 601 364.497070312 601 c 0
 374.497070312 601 384.6015625 603 392.654296875 604 c 1
 378.08203125 574 l 1
 359.505859375 563 346.243164062 558 330.243164062 558 c 0
 256.243164062 558 191.97265625 591 195.956054688 667 c 2
EndSplineSet
Refer: 4 3515 N 1 0 0.139896 1 0 0 2
LCarets2: 1 0
Ligature2: "si_abvs_1 subtable" si_Ra si_MatraI
EndChar

StartChar: si_RIi
Encoding: 378 -1 278
GlifName: si_R_I_i
Width: 726
VWidth: -5
Flags: HMW
LayerCount: 2
Back
Refer: 4 3515 N 1 0 0 1 0 0 2
Fore
SplineSet
182.956054688 667 m 2
 183.637695312 680 l 1
 205.498046875 830 360.84375 932 477.84375 932 c 0
 565.84375 932 590.6953125 891 588.546875 850 c 0
 588.336914062 846 587.1796875 843 586.969726562 839 c 0
 575.563476562 774 492.685546875 700 477.7421875 682 c 1
 442.689453125 681 l 1
 479.209960938 710 503.620117188 756 511.502929688 811 c 0
 511.66015625 814 511.817382812 817 511.974609375 820 c 0
 513.704101562 853 500.642578125 890 452.6953125 891 c 1
 451.6953125 891 l 2
 375.6953125 891 284.607421875 813 268.318359375 693 c 0
 268.109375 689 266.952148438 686 266.7421875 682 c 0
 263.3359375 617 316.497070312 601 351.497070312 601 c 0
 361.497070312 601 371.6015625 603 379.654296875 604 c 1
 365.08203125 574 l 1
 346.505859375 563 333.243164062 558 317.243164062 558 c 0
 243.243164062 558 178.97265625 591 182.956054688 667 c 2
EndSplineSet
Refer: 4 3515 N 1 0 0.139896 1 -16 0 2
Ligature2: "si_abvs_2 subtable" si_Ra si_MatraIi
EndChar

StartChar: si_LI
Encoding: 382 -1 282
GlifName: si_L_I_
Width: 890
VWidth: -5
Flags: HMW
LayerCount: 2
Back
SplineSet
296 468 m 17
 243 468 190.475585938 521.147460938 195 598 c 0
 202.833984375 731.080078125 326.991210938 829.928710938 499 833 c 0
 722.965296868 836.998994298 819.440429688 717.55859375 816 601 c 0
 814.0625 535.350585938 762 486 727 472 c 9
 693 497 l 17
 716 517 753.9375 536.671875 751 598 c 0
 748.1953125 656.557617188 685.924804688 736.450195312 501 736 c 0
 355.9140625 735.646484375 257 679 248 604 c 0
 241.56640625 550.384765625 290 513 313 503 c 9
 296 468 l 17
EndSplineSet
Refer: 44 3517 N 1 0 0 1 0 0 2
Fore
SplineSet
285.912109375 589 m 4
 294.472408811 735.638752723 484.351992574 849 643.541992188 849 c 4
 802.367584324 849 843.742427591 746.062232719 831.169921875 662 c 4
 819.486853789 592.542326048 773.044163824 522.396807554 659.3046875 518 c 5
 644.19140625 554 l 5
 724.965813933 544.065154247 779.429305169 619.651244236 781.008789062 668 c 4
 784.913588926 741.374718106 654.082757459 760 574.091796875 755 c 4
 486.794008279 747.931317065 343.383607061 709.336988979 339.069335938 602 c 4
 337.463855752 562.05642574 369.434918963 540.473163842 465.409179688 553 c 5
 402.461914062 504 l 5
 317.141393839 494 283.232051446 539.926396115 285.912109375 589 c 4
EndSplineSet
Refer: 44 3517 S 1 0 0 1 0 0 2
LCarets2: 1 0
Ligature2: "si_abvs_1 subtable" si_La si_MatraI
EndChar

StartChar: si_LIi
Encoding: 383 -1 283
GlifName: si_L_I_i
Width: 890
VWidth: -5
Flags: HMW
LayerCount: 2
Back
Refer: 44 3517 N 1 0 0 1 0 0 2
Fore
SplineSet
285.912109375 589 m 0
 294.472408811 735.638752723 484.351992574 849 643.541992188 849 c 0
 802.367584324 849 843.742427591 746.062232719 831.169921875 662 c 0
 819.486853789 592.542326048 773.044163824 522.396807554 659.3046875 518 c 1
 644.19140625 554 l 1
 724.965813933 544.065154247 779.429305169 619.651244236 781.008789062 668 c 0
 784.913588926 741.374718106 654.082757459 760 574.091796875 755 c 0
 486.794008279 747.931317065 343.383607061 709.336988979 339.069335938 602 c 0
 337.463855752 562.05642574 369.434918963 540.473163842 465.409179688 553 c 1
 402.461914062 504 l 1
 317.141393839 494 283.232051446 539.926396115 285.912109375 589 c 0
EndSplineSet
Refer: 44 3517 N 1 0 0 1 0 0 2
Ligature2: "si_abvs_2 subtable" si_La si_MatraIi
EndChar

StartChar: si_LU
Encoding: 384 -1 284
GlifName: si_L_U_
Width: 852
VWidth: -5
Flags: HMW
LayerCount: 2
Back
Refer: 44 3517 N 1 0 0 1 0 0 2
Fore
SplineSet
60.30859375 -204 m 0
 66.1435546875 -113.262695312 164.868164062 -78.076171875 216.122070312 -74 c 1
 216.811523438 -99 l 1
 179.287109375 -109 137.71484375 -139 135.723632812 -177 c 0
 134.204101562 -206 153.110351562 -227.100585938 203.15625 -226 c 2
 657.6796875 -216 l 1
 695.471679688 9 l 1
 737.358398438 45 l 1
 696.854492188 -289 l 1
 183.854492188 -289 l 2
 85.8544921875 -289 58.0556640625 -247 60.30859375 -204 c 0
76.1279296875 136 m 0
 76.599609375 145 77.0703125 154 78.5419921875 163 c 0
 107.181640625 366 286.505859375 563 543.557617188 564 c 0
 544.557617188 564 545.557617188 564 546.557617188 564 c 0
 745.557617188 564 824.849609375 436 819.189453125 328 c 0
 818.875 322 817.61328125 317 817.298828125 311 c 0
 801.0625 192 702.76953125 91 566.6640625 89 c 0
 565.6640625 89 564.6640625 89 563.6640625 89 c 0
 472.6640625 89 419.865234375 131 422.905273438 189 c 2
 423.428710938 199 l 1
 432.625976562 260 476.298828125 311 545.452148438 333 c 1
 544.294921875 330 542.137695312 327 540.98046875 324 c 1
 370.98046875 324 l 1
 377.338867188 369 l 1
 609.338867188 369 l 1
 602.98046875 324 l 1
 569.98046875 324 510.041015625 287 502.2109375 233 c 1
 501.791992188 225 l 2
 498.909179688 170 549.599609375 145 593.599609375 145 c 0
 678.599609375 145 718.953125 209 728.516601562 277 c 0
 728.779296875 282 730.09375 288 730.35546875 293 c 0
 735.962890625 400 647.889648438 494 486.889648438 494 c 0
 319.229492188 493.485351562 175.630859375 389.228515625 162.0625 192 c 0
 153.310546875 25 289.8515625 -41 445.8515625 -41 c 0
 550.8515625 -41 652.685546875 -6 727.043945312 39 c 1
 733.501953125 23.728515625 725.78125 -12.4453125 716.584960938 -27 c 1
 643.916015625 -97 526.557617188 -142 406.557617188 -142 c 0
 174.557617188 -142 68.2666015625 -14 76.1279296875 136 c 0
EndSplineSet
LCarets2: 1 0
Ligature2: "si_blws_1 subtable" si_La si_MatraU
EndChar

StartChar: si_V.halant
Encoding: 386 -1 286
GlifName: si_V_.halant
Width: 820
VWidth: -14
Flags: HMW
LayerCount: 2
Back
SplineSet
396 274 m 1
 260.50390625 291.37890625 133.465820312 252.458984375 138 158 c 0
 141.069335938 94.0595703125 229.272460938 45.0927734375 375 46 c 0
 549 47.083984375 647 180.395507812 647 339 c 0
 710 331 l 0
 710 111.353515625 601.00390625 -66.76171875 365 -68 c 0
 183.8203125 -69.0419921875 59.146484375 8.0341796875 56 137 c 0
 52.244140625 299.32421875 249.439453125 329.377929688 364 322 c 1
 364 392 314 428 222 428 c 1
 196 347 l 1
 145 340 110.760742188 368.857421875 119 415 c 0
 129 471 187 490 234 490 c 0
 310 490 399.999023438 453 404 349 c 0
 405.383789062 313.026367188 396 274 396 274 c 1
EndSplineSet
Refer: 365 -1 N 1 0 0 1 0 0 2
Fore
Refer: 2 3520 N 1 0 0 1 0 0 2
Refer: 365 -1 N 1 0 0.209823 1 -145.476 30 2
LCarets2: 1 0
Ligature2: "si_halant_1 subtable" si_Va si_Halant
EndChar

